{
copyright = "Copyright (c) 2015, Cadson Demak (info@cadsondemak.com)";
customParameters = (
{
name = vendorID;
value = CDK;
},
{
name = glyphOrder;
value = (
    ".notdef",
    ".null",
    CR,
    space,
    exclam,
    quotedbl,
    numbersign,
    dollar,
    percent,
    ampersand,
    quotesingle,
    parenleft,
    parenright,
    asterisk,
    plus,
    comma,
    hyphen,
    period,
    slash,
    zero,
    one,
    two,
    three,
    four,
    five,
    six,
    seven,
    eight,
    nine,
    colon,
    semicolon,
    less,
    equal,
    greater,
    question,
    at,
    A,
    B,
    C,
    D,
    E,
    F,
    G,
    H,
    I,
    J,
    K,
    L,
    M,
    N,
    O,
    P,
    Q,
    R,
    S,
    T,
    U,
    V,
    W,
    X,
    Y,
    Z,
    bracketleft,
    backslash,
    bracketright,
    asciicircum,
    underscore,
    grave,
    a,
    b,
    c,
    d,
    e,
    f,
    g,
    h,
    i,
    j,
    k,
    l,
    m,
    n,
    o,
    p,
    q,
    r,
    s,
    t,
    u,
    v,
    w,
    x,
    y,
    z,
    braceleft,
    bar,
    braceright,
    asciitilde,
    uni00A0,
    Agrave,
    Aacute,
    Acircumflex,
    Atilde,
    Adieresis,
    Amacron,
    Abreve,
    Aring,
    Aringacute,
    Aogonek,
    AE,
    AEacute,
    Cacute,
    Ccircumflex,
    Ccaron,
    Cdotaccent,
    Ccedilla,
    Dcaron,
    Dcroat,
    Eth,
    Egrave,
    Eacute,
    Ecircumflex,
    Ecaron,
    Edieresis,
    Emacron,
    Ebreve,
    Edotaccent,
    Eogonek,
    Gcircumflex,
    Gbreve,
    Gdotaccent,
    Gcommaaccent,
    Hcircumflex,
    Hbar,
    Igrave,
    Iacute,
    Ibreve,
    Icircumflex,
    Itilde,
    Idieresis,
    Imacron,
    Idotaccent,
    Iogonek,
    Jcircumflex,
    Kcommaaccent,
    Lacute,
    Lcaron,
    Lcommaaccent,
    Lslash,
    Ldot,
    Nacute,
    Ncaron,
    Ntilde,
    Ncommaaccent,
    Ograve,
    Oacute,
    Ocircumflex,
    Otilde,
    Odieresis,
    Omacron,
    Obreve,
    Ohungarumlaut,
    Oslash,

glyphs = (
{
glyphname = .notdef;
lastChange = "2015-10-01 17:12:32 +0000";
layers = (
{
layerId = "6933CEC8-9691-45CB-9271-BBFB30E0E1A0";
name = Regular;
paths = (
{
closed = 1;
nodes = (
"510 0 LINE",
"510 714 LINE",
"90 714 LINE",
"90 0 LINE"
);
},
{
closed = 1;
nodes = (
"121 683 LINE",
"479 683 LINE",
"479 31 LINE",
"121 31 LINE"
);
}
);
width = 600;
}
);
note = .notdef;
},
{
glyphname = exclam;
lastChange = "2015-10-01 17:12:33 +0000";
layers = (
{
layerId = "6933CEC8-9691-45CB-9271-BBFB30E0E1A0";
name = Regular;
paths = (
{
closed = 1;
nodes = (
"181 140 LINE",
"218 613 LINE",
"218 618 OFFCURVE",
"219 624 OFFCURVE",
"219 629 CURVE SMOOTH",
"219 666 OFFCURVE",
"210 710 OFFCURVE",
"156 710 CURVE SMOOTH",
"102 710 OFFCURVE",
"93 666 OFFCURVE",
"93 629 CURVE SMOOTH",
"93 624 OFFCURVE",
"94 618 OFFCURVE",
"94 613 CURVE",
"131 140 LINE"
);
},
{
closed = 1;
nodes = (
"193 -10 OFFCURVE",
"216 13 OFFCURVE",
"216 49 CURVE SMOOTH",
"216 86 OFFCURVE",
"193 109 OFFCURVE",
"157 109 CURVE SMOOTH",
"120 109 OFFCURVE",
"97 86 OFFCURVE",
"97 49 CURVE SMOOTH",
"97 13 OFFCURVE",
"120 -10 OFFCURVE",
"157 -10 CURVE SMOOTH"
);
}
);
width = 313;
}
);
note = exclam;
unicode = 0021;
},
{
glyphname = quotedbl;
lastChange = "2015-10-01 17:12:33 +0000";
layers = (
{
layerId = "6933CEC8-9691-45CB-9271-BBFB30E0E1A0";
name = Regular;
paths = (
{
closed = 1;
nodes = (
"139 429 LINE",
"175 645 LINE",
"175 651 LINE SMOOTH",
"175 692 OFFCURVE",
"165 721 OFFCURVE",
"120 721 CURVE SMOOTH",
"75 721 OFFCURVE",
"66 691 OFFCURVE",
"66 650 CURVE SMOOTH",
"66 645 LINE",
"100 429 LINE"
);
},
{
closed = 1;
nodes = (
"325 429 LINE",
"361 645 LINE",
"361 651 LINE SMOOTH",
"361 692 OFFCURVE",
"351 721 OFFCURVE",
"307 721 CURVE SMOOTH",
"261 721 OFFCURVE",
"253 691 OFFCURVE",
"253 650 CURVE SMOOTH",
"253 645 LINE",
"287 429 LINE"
);
}
);
width = 427;
}
);
leftKerningGroup = quotedbl;
note = quotedbl;
rightKerningGroup = quotedbl;
unicode = 0022;
},
{
glyphname = numbersign;
lastChange = "2015-10-01 17:12:33 +0000";
layers = (
{
layerId = "6933CEC8-9691-45CB-9271-BBFB30E0E1A0";
name = Regular;
paths = (
{
closed = 1;
nodes = (
"537 -10 LINE",
"705 691 LINE",
"628 691 LINE",
"460 -10 LINE"
);
},
{
closed = 1;
nodes = (
"760 187 LINE",
"760 228 LINE",
"33 228 LINE",
"33 187 LINE"
);
},
{
closed = 1;
nodes = (
"229 -10 LINE",
"397 691 LINE",
"320 691 LINE",
"152 -10 LINE"
);
},
{
closed = 1;
nodes = (
"824 468 LINE",
"824 509 LINE",
"97 509 LINE",
"97 468 LINE"
);
}
);
width = 858;
}
);
note = numbersign;
unicode = 0023;
},
{
glyphname = dollar;
lastChange = "2015-10-01 17:12:31 +0000";
layers = (
{
layerId = "6933CEC8-9691-45CB-9271-BBFB30E0E1A0";
name = Regular;
paths = (
{
closed = 1;
nodes = (
"430 -10 OFFCURVE",
"540 63 OFFCURVE",
"540 188 CURVE SMOOTH",
"540 442 OFFCURVE",
"172 402 OFFCURVE",
"172 556 CURVE SMOOTH",
"172 630 OFFCURVE",
"228 668 OFFCURVE",
"326 668 CURVE SMOOTH",
"380 668 OFFCURVE",
"426 653 OFFCURVE",
"456 627 CURVE",
"459 588 OFFCURVE",
"466 543 OFFCURVE",
"476 514 CURVE",
"504 514 LINE",
"515 638 LINE",
"466 687 OFFCURVE",
"398 710 OFFCURVE",
"300 710 CURVE SMOOTH",
"155 710 OFFCURVE",
"56 654 OFFCURVE",
"56 539 CURVE SMOOTH",
"56 306 OFFCURVE",
"424 365 OFFCURVE",
"424 172 CURVE SMOOTH",
"424 78 OFFCURVE",
"343 32 OFFCURVE",
"258 32 CURVE SMOOTH",
"190 32 OFFCURVE",
"136 59 OFFCURVE",
"103 96 CURVE",
"100 134 OFFCURVE",
"95 193 OFFCURVE",
"84 223 CURVE",
"57 223 LINE",
"45 83 LINE",
"88 30 OFFCURVE",
"177 -10 OFFCURVE",
"287 -10 CURVE SMOOTH"
);
},
{
closed = 1;
nodes = (
"319 -96 LINE",
"319 6 LINE",
"279 6 LINE",
"279 -96 LINE"
);
},
{
closed = 1;
nodes = (
"319 683 LINE",
"319 785 LINE",
"279 785 LINE",
"279 683 LINE"
);
}
);
width = 564;
}
);
note = dollar;
unicode = 0024;
},
{
glyphname = percent;
lastChange = "2015-10-01 17:12:32 +0000";
layers = (
{
layerId = "6933CEC8-9691-45CB-9271-BBFB30E0E1A0";
name = Regular;
paths = (
{
closed = 1;
nodes = (
"776 695 LINE",
"741 724 LINE",
"145 -3 LINE",
"177 -30 LINE"
);
},
{
closed = 1;
nodes = (
"356 321 OFFCURVE",
"418 395 OFFCURVE",
"418 512 CURVE SMOOTH",
"418 628 OFFCURVE",
"356 702 OFFCURVE",
"224 702 CURVE SMOOTH",
"92 702 OFFCURVE",
"31 628 OFFCURVE",
"31 512 CURVE SMOOTH",
"31 395 OFFCURVE",
"92 321 OFFCURVE",
"224 321 CURVE SMOOTH"
);
},
{
closed = 1;
nodes = (
"150 361 OFFCURVE",
"126 447 OFFCURVE",
"126 512 CURVE SMOOTH",
"126 576 OFFCURVE",
"150 662 OFFCURVE",
"224 662 CURVE SMOOTH",
"299 662 OFFCURVE",
"322 576 OFFCURVE",
"322 512 CURVE SMOOTH",
"322 447 OFFCURVE",
"299 361 OFFCURVE",
"224 361 CURVE SMOOTH"
);
},
{
closed = 1;
nodes = (
"832 -10 OFFCURVE",
"894 64 OFFCURVE",
"894 180 CURVE SMOOTH",
"894 296 OFFCURVE",
"832 370 OFFCURVE",
"700 370 CURVE SMOOTH",
"568 370 OFFCURVE",
"507 296 OFFCURVE",
"507 180 CURVE SMOOTH",
"507 64 OFFCURVE",
"568 -10 OFFCURVE",
"700 -10 CURVE SMOOTH"
);
},
{
closed = 1;
nodes = (
"626 30 OFFCURVE",
"602 116 OFFCURVE",
"602 180 CURVE SMOOTH",
"602 244 OFFCURVE",
"626 331 OFFCURVE",
"700 331 CURVE SMOOTH",
"775 331 OFFCURVE",
"798 244 OFFCURVE",
"798 180 CURVE SMOOTH",
"798 116 OFFCURVE",
"775 30 OFFCURVE",
"700 30 CURVE SMOOTH"
);
}
);
width = 925;
}
);
note = percent;
unicode = 0025;
},
{
glyphname = ampersand;
lastChange = "2015-10-01 17:12:30 +0000";
layers = (
{
layerId = "6933CEC8-9691-45CB-9271-BBFB30E0E1A0";
name = Regular;
paths = (
{
closed = 1;
nodes = (
"506 -10 OFFCURVE",
"664 141 OFFCURVE",
"687 328 CURVE",
"641 328 LINE",
"622 174 OFFCURVE",
"501 32 OFFCURVE",
"306 32 CURVE SMOOTH",
"229 32 OFFCURVE",
"153 78 OFFCURVE",
"153 175 CURVE SMOOTH",
"153 395 OFFCURVE",
"474 408 OFFCURVE",
"474 582 CURVE SMOOTH",
"474 667 OFFCURVE",
"414 710 OFFCURVE",
"307 710 CURVE SMOOTH",
"204 710 OFFCURVE",
"128 664 OFFCURVE",
"128 568 CURVE SMOOTH",
"128 437 OFFCURVE",
"394 195 OFFCURVE",
"585 0 CURVE",
"715 0 LINE",
"377 351 OFFCURVE",
"233 469 OFFCURVE",
"233 579 CURVE SMOOTH",
"233 642 OFFCURVE",
"274 670 OFFCURVE",
"329 670 CURVE SMOOTH",
"386 670 OFFCURVE",
"424 639 OFFCURVE",
"424 580 CURVE SMOOTH",
"424 401 OFFCURVE",
"42 399 OFFCURVE",
"42 172 CURVE SMOOTH",
"42 57 OFFCURVE",
"145 -10 OFFCURVE",
"292 -10 CURVE SMOOTH"
);
}
);
width = 749;
}
);
note = ampersand;
unicode = 0026;
},
{
glyphname = quotesingle;
lastChange = "2015-10-01 17:12:30 +0000";
layers = (
{
layerId = "6933CEC8-9691-45CB-9271-BBFB30E0E1A0";
name = Regular;
paths = (
{
closed = 1;
nodes = (
"139 429 LINE",
"175 645 LINE",
"175 651 LINE SMOOTH",
"175 692 OFFCURVE",
"165 721 OFFCURVE",
"120 721 CURVE SMOOTH",
"75 721 OFFCURVE",
"66 691 OFFCURVE",
"66 650 CURVE SMOOTH",
"66 645 LINE",
"100 429 LINE"
);
}
);
width = 241;
}
);
leftKerningGroup = quotedbl;
note = quotesingle;
rightKerningGroup = quotedbl;
unicode = 0027;
},
{
glyphname = parenleft;
lastChange = "2015-10-01 17:12:30 +0000";
layers = (
{
layerId = "6933CEC8-9691-45CB-9271-BBFB30E0E1A0";
name = Regular;
paths = (
{
closed = 1;
nodes = (
"234 -122 LINE",
"154 -15 OFFCURVE",
"124 113 OFFCURVE",
"124 298 CURVE SMOOTH",
"124 476 OFFCURVE",
"135 585 OFFCURVE",
"234 721 CURVE",
"187 721 LINE",
"87 603 OFFCURVE",
"37 460 OFFCURVE",
"37 298 CURVE SMOOTH",
"37 136 OFFCURVE",
"86 -4 OFFCURVE",
"187 -122 CURVE"
);
}
);
width = 261;
}
);
note = parenleft;
unicode = 0028;
},
{
glyphname = parenright;
lastChange = "2015-10-01 17:12:30 +0000";
layers = (
{
layerId = "6933CEC8-9691-45CB-9271-BBFB30E0E1A0";
name = Regular;
paths = (
{
closed = 1;
nodes = (
"74 -122 LINE",
"175 -4 OFFCURVE",
"224 136 OFFCURVE",
"224 298 CURVE SMOOTH",
"224 460 OFFCURVE",
"174 603 OFFCURVE",
"74 721 CURVE",
"27 721 LINE",
"107 612 OFFCURVE",
"137 482 OFFCURVE",
"137 296 CURVE SMOOTH",
"137 118 OFFCURVE",
"126 13 OFFCURVE",
"27 -122 CURVE"
);
}
);
width = 261;
}
);
note = parenright;
unicode = 0029;
},
{
glyphname = asterisk;
lastChange = "2015-10-01 17:12:30 +0000";
layers = (
{
layerId = "6933CEC8-9691-45CB-9271-BBFB30E0E1A0";
name = Regular;
paths = (
{
closed = 1;
nodes = (
"139 330 OFFCURVE",
"175 331 OFFCURVE",
"189 352 CURVE SMOOTH",
"268 475 LINE",
"347 352 LINE SMOOTH",
"361 331 OFFCURVE",
"397 330 OFFCURVE",
"414 349 CURVE SMOOTH",
"431 368 OFFCURVE",
"421 395 OFFCURVE",
"408 406 CURVE SMOOTH",
"303 494 LINE",
"440 528 LINE SMOOTH",
"459 533 OFFCURVE",
"468 553 OFFCURVE",
"465 574 CURVE SMOOTH",
"461 597 OFFCURVE",
"431 612 OFFCURVE",
"408 599 CURVE SMOOTH",
"286 530 LINE",
"308 664 LINE SMOOTH",
"312 687 OFFCURVE",
"300 710 OFFCURVE",
"268 710 CURVE SMOOTH",
"236 710 OFFCURVE",
"224 687 OFFCURVE",
"228 664 CURVE SMOOTH",
"250 530 LINE",
"128 599 LINE SMOOTH",
"105 612 OFFCURVE",
"75 597 OFFCURVE",
"71 574 CURVE SMOOTH",
"68 553 OFFCURVE",
"77 533 OFFCURVE",
"96 528 CURVE SMOOTH",
"233 494 LINE",
"128 406 LINE SMOOTH",
"115 395 OFFCURVE",
"105 368 OFFCURVE",
"122 349 CURVE SMOOTH"
);
}
);
width = 535;
}
);
note = asterisk;
unicode = 002A;
},
{
glyphname = plus;
lastChange = "2015-10-01 17:12:30 +0000";
layers = (
{
layerId = "6933CEC8-9691-45CB-9271-BBFB30E0E1A0";
name = Regular;
paths = (
{
closed = 1;
nodes = (
"353 103 LINE",
"353 299 LINE",
"544 299 LINE",
"544 355 LINE",
"353 355 LINE",
"353 552 LINE",
"242 552 LINE",
"242 355 LINE",
"51 355 LINE",
"51 299 LINE",
"242 299 LINE",
"242 103 LINE"
);
}
);
width = 595;
}
);
note = plus;
unicode = 002B;
},
{
glyphname = comma;
lastChange = "2015-10-01 17:12:30 +0000";
layers = (
{
layerId = "6933CEC8-9691-45CB-9271-BBFB30E0E1A0";
name = Regular;
paths = (
{
closed = 1;
nodes = (
"156 -98 OFFCURVE",
"195 -21 OFFCURVE",
"195 41 CURVE SMOOTH",
"195 79 OFFCURVE",
"175 119 OFFCURVE",
"123 119 CURVE SMOOTH",
"82 119 OFFCURVE",
"59 89 OFFCURVE",
"59 53 CURVE SMOOTH",
"59 22 OFFCURVE",
"83 -2 OFFCURVE",
"115 -2 CURVE SMOOTH",
"118 -2 OFFCURVE",
"122 -2 OFFCURVE",
"126 -1 CURVE",
"121 -44 OFFCURVE",
"95 -85 OFFCURVE",
"71 -112 CURVE",
"109 -141 LINE"
);
}
);
width = 254;
}
);
leftKerningGroup = comma;
note = comma;
rightKerningGroup = comma;
unicode = 002C;
},
{
glyphname = hyphen;
lastChange = "2015-10-01 17:12:30 +0000";
layers = (
{
layerId = "6933CEC8-9691-45CB-9271-BBFB30E0E1A0";
name = Regular;
paths = (
{
closed = 1;
nodes = (
"363 248 LINE",
"363 310 LINE",
"45 310 LINE",
"45 248 LINE"
);
}
);
width = 408;
}
);
note = hyphen;
unicode = 002D;
},
{
glyphname = period;
lastChange = "2015-10-01 17:12:30 +0000";
layers = (
{
layerId = "6933CEC8-9691-45CB-9271-BBFB30E0E1A0";
name = Regular;
paths = (
{
closed = 1;
nodes = (
"167 -10 OFFCURVE",
"192 18 OFFCURVE",
"192 56 CURVE SMOOTH",
"192 93 OFFCURVE",
"167 121 OFFCURVE",
"127 121 CURVE SMOOTH",
"86 121 OFFCURVE",
"61 93 OFFCURVE",
"61 56 CURVE SMOOTH",
"61 18 OFFCURVE",
"86 -10 OFFCURVE",
"127 -10 CURVE SMOOTH"
);
}
);
width = 254;
}
);
leftKerningGroup = comma;
note = period;
rightKerningGroup = comma;
unicode = 002E;
},
{
glyphname = slash;
lastChange = "2015-10-01 17:12:30 +0000";
layers = (
{
layerId = "6933CEC8-9691-45CB-9271-BBFB30E0E1A0";
name = Regular;
paths = (
{
closed = 1;
nodes = (
"78 0 LINE",
"344 706 LINE",
"295 706 LINE",
"30 0 LINE"
);
}
);
width = 372;
}
);
note = slash;
unicode = 002F;
},
{
glyphname = zero;
lastChange = "2015-10-01 17:12:32 +0000";
layers = (
{
layerId = "6933CEC8-9691-45CB-9271-BBFB30E0E1A0";
name = Regular;
paths = (
{
closed = 1;
nodes = (
"492 -10 OFFCURVE",
"562 132 OFFCURVE",
"562 350 CURVE SMOOTH",
"562 568 OFFCURVE",
"492 710 OFFCURVE",
"301 710 CURVE SMOOTH",
"110 710 OFFCURVE",
"40 568 OFFCURVE",
"40 350 CURVE SMOOTH",
"40 132 OFFCURVE",
"110 -10 OFFCURVE",
"301 -10 CURVE SMOOTH"
);
},
{
closed = 1;
nodes = (
"193 32 OFFCURVE",
"156 159 OFFCURVE",
"156 350 CURVE SMOOTH",
"156 541 OFFCURVE",
"193 668 OFFCURVE",
"301 668 CURVE SMOOTH",
"409 668 OFFCURVE",
"446 541 OFFCURVE",
"446 350 CURVE SMOOTH",
"446 159 OFFCURVE",
"409 32 OFFCURVE",
"301 32 CURVE SMOOTH"
);
}
);
width = 602;
}
);
note = zero;
unicode = 0030;
},
{
glyphname = one;
lastChange = "2015-10-01 17:12:30 +0000";
layers = (
{
layerId = "6933CEC8-9691-45CB-9271-BBFB30E0E1A0";
name = Regular;
paths = (
{
closed = 1;
nodes = (
"498 0 LINE",
"498 21 LINE",
"451 30 OFFCURVE",
"409 35 OFFCURVE",
"367 37 CURVE",
"367 728 LINE",
"120 629 LINE",
"120 578 LINE",
"253 635 LINE",
"253 38 LINE",
"220 37 OFFCURVE",
"179 32 OFFCURVE",
"122 20 CURVE",
"122 0 LINE"
);
}
);
width = 602;
}
);
note = one;
unicode = 0031;
},
{
glyphname = two;
lastChange = "2015-10-01 17:12:30 +0000";
layers = (
{
layerId = "6933CEC8-9691-45CB-9271-BBFB30E0E1A0";
name = Regular;
paths = (
{
closed = 1;
nodes = (
"533 0 LINE",
"545 165 LINE",
"516 165 LINE",
"504 143 OFFCURVE",
"490 98 OFFCURVE",
"487 76 CURVE",
"139 76 LINE",
"190 260 OFFCURVE",
"527 310 OFFCURVE",
"527 532 CURVE SMOOTH",
"527 661 OFFCURVE",
"424 710 OFFCURVE",
"290 710 CURVE SMOOTH",
"192 710 OFFCURVE",
"118 670 OFFCURVE",
"74 635 CURVE",
"96 601 LINE",
"140 641 OFFCURVE",
"207 668 OFFCURVE",
"271 668 CURVE SMOOTH",
"363 668 OFFCURVE",
"411 609 OFFCURVE",
"411 533 CURVE SMOOTH",
"411 331 OFFCURVE",
"98 274 OFFCURVE",
"43 46 CURVE",
"43 0 LINE"
);
}
);
width = 602;
}
);
note = two;
unicode = 0032;
},
{
glyphname = three;
lastChange = "2015-10-01 17:12:30 +0000";
layers = (
{
layerId = "6933CEC8-9691-45CB-9271-BBFB30E0E1A0";
name = Regular;
paths = (
{
closed = 1;
nodes = (
"412 -10 OFFCURVE",
"535 48 OFFCURVE",
"535 202 CURVE SMOOTH",
"535 301 OFFCURVE",
"463 357 OFFCURVE",
"388 372 CURVE",
"388 376 LINE",
"470 390 OFFCURVE",
"528 463 OFFCURVE",
"528 540 CURVE SMOOTH",
"528 662 OFFCURVE",
"423 710 OFFCURVE",
"289 710 CURVE SMOOTH",
"190 710 OFFCURVE",
"118 671 OFFCURVE",
"74 635 CURVE",
"96 602 LINE",
"140 642 OFFCURVE",
"206 668 OFFCURVE",
"270 668 CURVE SMOOTH",
"362 668 OFFCURVE",
"409 614 OFFCURVE",
"409 538 CURVE SMOOTH",
"409 472 OFFCURVE",
"366 394 OFFCURVE",
"273 394 CURVE SMOOTH",
"185 394 LINE",
"185 351 LINE",
"273 351 LINE SMOOTH",
"368 351 OFFCURVE",
"420 281 OFFCURVE",
"420 200 CURVE SMOOTH",
"420 92 OFFCURVE",
"353 32 OFFCURVE",
"258 32 CURVE SMOOTH",
"195 32 OFFCURVE",
"119 61 OFFCURVE",
"78 98 CURVE",
"56 65 LINE",
"108 19 OFFCURVE",
"188 -10 OFFCURVE",
"281 -10 CURVE SMOOTH"
);
}
);
width = 602;
}
);
note = three;
unicode = 0033;
},
{
glyphname = four;
lastChange = "2015-10-01 17:12:32 +0000";
layers = (
{
layerId = "6933CEC8-9691-45CB-9271-BBFB30E0E1A0";
name = Regular;
paths = (
{
closed = 1;
nodes = (
"574 0 LINE",
"574 19 LINE",
"542 29 OFFCURVE",
"509 36 OFFCURVE",
"473 37 CURVE",
"473 164 LINE",
"569 164 LINE",
"582 235 LINE",
"473 235 LINE",
"473 701 LINE",
"362 701 LINE",
"33 223 LINE",
"33 164 LINE",
"359 164 LINE",
"359 36 LINE",
"320 36 OFFCURVE",
"282 27 OFFCURVE",
"254 19 CURVE",
"254 0 LINE"
);
},
{
closed = 1;
nodes = (
"357 619 LINE",
"358 619 OFFCURVE",
"359 619 OFFCURVE",
"359 619 CURVE",
"359 235 LINE",
"98 235 LINE"
);
}
);
width = 602;
}
);
note = four;
unicode = 0034;
},
{
glyphname = five;
lastChange = "2015-10-01 17:12:30 +0000";
layers = (
{
layerId = "6933CEC8-9691-45CB-9271-BBFB30E0E1A0";
name = Regular;
paths = (
{
closed = 1;
nodes = (
"441 -10 OFFCURVE",
"532 89 OFFCURVE",
"532 217 CURVE SMOOTH",
"532 331 OFFCURVE",
"475 440 OFFCURVE",
"300 440 CURVE SMOOTH",
"235 440 OFFCURVE",
"176 422 OFFCURVE",
"130 384 CURVE",
"159 629 LINE",
"491 629 LINE",
"498 700 LINE",
"121 700 LINE",
"77 330 LINE",
"113 320 LINE",
"156 370 OFFCURVE",
"205 398 OFFCURVE",
"270 398 CURVE SMOOTH",
"382 398 OFFCURVE",
"416 308 OFFCURVE",
"416 216 CURVE SMOOTH",
"416 106 OFFCURVE",
"353 32 OFFCURVE",
"252 32 CURVE SMOOTH",
"191 32 OFFCURVE",
"119 59 OFFCURVE",
"76 98 CURVE",
"54 65 LINE",
"105 19 OFFCURVE",
"179 -10 OFFCURVE",
"272 -10 CURVE SMOOTH"
);
}
);
width = 602;
}
);
note = five;
unicode = 0035;
},
{
glyphname = six;
lastChange = "2015-10-01 17:12:32 +0000";
layers = (
{
layerId = "6933CEC8-9691-45CB-9271-BBFB30E0E1A0";
name = Regular;
paths = (
{
closed = 1;
nodes = (
"466 -10 OFFCURVE",
"555 85 OFFCURVE",
"555 226 CURVE SMOOTH",
"555 363 OFFCURVE",
"471 451 OFFCURVE",
"320 451 CURVE SMOOTH",
"254 451 OFFCURVE",
"186 417 OFFCURVE",
"162 353 CURVE",
"174 615 OFFCURVE",
"281 668 OFFCURVE",
"355 668 CURVE SMOOTH",
"426 668 OFFCURVE",
"478 639 OFFCURVE",
"513 602 CURVE",
"535 635 LINE",
"502 669 OFFCURVE",
"452 710 OFFCURVE",
"343 710 CURVE SMOOTH",
"160 710 OFFCURVE",
"50 583 OFFCURVE",
"50 307 CURVE SMOOTH",
"50 103 OFFCURVE",
"129 -10 OFFCURVE",
"303 -10 CURVE SMOOTH"
);
},
{
closed = 1;
nodes = (
"220 32 OFFCURVE",
"173 123 OFFCURVE",
"173 223 CURVE SMOOTH",
"173 331 OFFCURVE",
"226 408 OFFCURVE",
"305 408 CURVE SMOOTH",
"394 408 OFFCURVE",
"441 324 OFFCURVE",
"441 217 CURVE SMOOTH",
"441 112 OFFCURVE",
"395 32 OFFCURVE",
"306 32 CURVE SMOOTH"
);
}
);
width = 602;
}
);
note = six;
unicode = 0036;
},
{
glyphname = seven;
lastChange = "2015-10-01 17:12:30 +0000";
layers = (
{
layerId = "6933CEC8-9691-45CB-9271-BBFB30E0E1A0";
name = Regular;
paths = (
{
closed = 1;
nodes = (
"276 0 LINE",
"291 197 OFFCURVE",
"401 514 OFFCURVE",
"548 662 CURVE",
"548 700 LINE",
"56 700 LINE",
"56 538 LINE",
"87 538 LINE",
"100 564 OFFCURVE",
"106 607 OFFCURVE",
"109 629 CURVE",
"427 629 LINE",
"323 495 OFFCURVE",
"204 280 OFFCURVE",
"164 0 CURVE"
);
}
);
width = 602;
}
);
note = seven;
unicode = 0037;
},
{
glyphname = eight;
lastChange = "2015-10-01 17:12:31 +0000";
layers = (
{
layerId = "6933CEC8-9691-45CB-9271-BBFB30E0E1A0";
name = Regular;
paths = (
{
closed = 1;
nodes = (
"495 -10 OFFCURVE",
"555 89 OFFCURVE",
"555 192 CURVE SMOOTH",
"555 288 OFFCURVE",
"490 350 OFFCURVE",
"407 372 CURVE",
"407 373 OFFCURVE",
"407 374 OFFCURVE",
"407 374 CURVE",
"478 392 OFFCURVE",
"534 465 OFFCURVE",
"534 539 CURVE SMOOTH",
"534 651 OFFCURVE",
"440 710 OFFCURVE",
"301 710 CURVE SMOOTH",
"161 710 OFFCURVE",
"67 651 OFFCURVE",
"67 539 CURVE SMOOTH",
"67 465 OFFCURVE",
"124 392 OFFCURVE",
"195 374 CURVE",
"195 374 OFFCURVE",
"195 373 OFFCURVE",
"195 372 CURVE",
"111 351 OFFCURVE",
"47 288 OFFCURVE",
"47 192 CURVE SMOOTH",
"47 89 OFFCURVE",
"107 -10 OFFCURVE",
"301 -10 CURVE SMOOTH"
);
},
{
closed = 1;
nodes = (
"231 32 OFFCURVE",
"161 82 OFFCURVE",
"161 189 CURVE SMOOTH",
"161 291 OFFCURVE",
"214 350 OFFCURVE",
"301 350 CURVE SMOOTH",
"388 350 OFFCURVE",
"441 291 OFFCURVE",
"441 189 CURVE SMOOTH",
"441 84 OFFCURVE",
"370 32 OFFCURVE",
"300 32 CURVE SMOOTH"
);
},
{
closed = 1;
nodes = (
"222 391 OFFCURVE",
"181 464 OFFCURVE",
"181 542 CURVE SMOOTH",
"181 630 OFFCURVE",
"236 668 OFFCURVE",
"301 668 CURVE SMOOTH",
"361 668 OFFCURVE",
"421 630 OFFCURVE",
"421 542 CURVE SMOOTH",
"421 464 OFFCURVE",
"380 391 OFFCURVE",
"301 391 CURVE SMOOTH"
);
}
);
width = 602;
}
);
note = eight;
unicode = 0038;
},
{
glyphname = nine;
lastChange = "2015-10-01 17:12:32 +0000";
layers = (
{
layerId = "6933CEC8-9691-45CB-9271-BBFB30E0E1A0";
name = Regular;
paths = (
{
closed = 1;
nodes = (
"443 -10 OFFCURVE",
"554 117 OFFCURVE",
"554 393 CURVE SMOOTH",
"554 597 OFFCURVE",
"475 710 OFFCURVE",
"300 710 CURVE SMOOTH",
"137 710 OFFCURVE",
"48 612 OFFCURVE",
"48 472 CURVE SMOOTH",
"48 335 OFFCURVE",
"132 244 OFFCURVE",
"283 244 CURVE SMOOTH",
"349 244 OFFCURVE",
"421 281 OFFCURVE",
"441 343 CURVE",
"433 83 OFFCURVE",
"322 32 OFFCURVE",
"248 32 CURVE SMOOTH",
"177 32 OFFCURVE",
"125 61 OFFCURVE",
"90 98 CURVE",
"68 64 LINE",
"101 30 OFFCURVE",
"151 -10 OFFCURVE",
"260 -10 CURVE SMOOTH"
);
},
{
closed = 1;
nodes = (
"209 288 OFFCURVE",
"162 373 OFFCURVE",
"162 480 CURVE SMOOTH",
"162 585 OFFCURVE",
"208 668 OFFCURVE",
"297 668 CURVE SMOOTH",
"383 668 OFFCURVE",
"430 574 OFFCURVE",
"430 475 CURVE SMOOTH",
"430 367 OFFCURVE",
"377 288 OFFCURVE",
"298 288 CURVE SMOOTH"
);
}
);
width = 602;
}
);
note = nine;
unicode = 0039;
},
{
glyphname = colon;
lastChange = "2015-10-01 17:12:31 +0000";
layers = (
{
layerId = "6933CEC8-9691-45CB-9271-BBFB30E0E1A0";
name = Regular;
paths = (
{
closed = 1;
nodes = (
"167 369 OFFCURVE",
"192 397 OFFCURVE",
"192 434 CURVE SMOOTH",
"192 472 OFFCURVE",
"167 500 OFFCURVE",
"127 500 CURVE SMOOTH",
"86 500 OFFCURVE",
"61 472 OFFCURVE",
"61 434 CURVE SMOOTH",
"61 397 OFFCURVE",
"86 369 OFFCURVE",
"127 369 CURVE SMOOTH"
);
},
{
closed = 1;
nodes = (
"167 -10 OFFCURVE",
"192 18 OFFCURVE",
"192 56 CURVE SMOOTH",
"192 93 OFFCURVE",
"167 121 OFFCURVE",
"127 121 CURVE SMOOTH",
"86 121 OFFCURVE",
"61 93 OFFCURVE",
"61 56 CURVE SMOOTH",
"61 18 OFFCURVE",
"86 -10 OFFCURVE",
"127 -10 CURVE SMOOTH"
);
}
);
width = 254;
}
);
note = colon;
unicode = 003A;
},
{
glyphname = semicolon;
lastChange = "2015-10-01 17:12:33 +0000";
layers = (
{
layerId = "6933CEC8-9691-45CB-9271-BBFB30E0E1A0";
name = Regular;
paths = (
{
closed = 1;
nodes = (
"156 -98 OFFCURVE",
"195 -21 OFFCURVE",
"195 41 CURVE SMOOTH",
"195 79 OFFCURVE",
"175 119 OFFCURVE",
"123 119 CURVE SMOOTH",
"82 119 OFFCURVE",
"59 89 OFFCURVE",
"59 53 CURVE SMOOTH",
"59 28 OFFCURVE",
"75 7 OFFCURVE",
"98 0 CURVE",
"106 -2 OFFCURVE",
"116 -3 OFFCURVE",
"126 -1 CURVE",
"121 -44 OFFCURVE",
"95 -85 OFFCURVE",
"71 -112 CURVE",
"109 -141 LINE"
);
},
{
closed = 1;
nodes = (
"167 369 OFFCURVE",
"192 397 OFFCURVE",
"192 434 CURVE SMOOTH",
"192 472 OFFCURVE",
"167 500 OFFCURVE",
"127 500 CURVE SMOOTH",
"86 500 OFFCURVE",
"61 472 OFFCURVE",
"61 434 CURVE SMOOTH",
"61 397 OFFCURVE",
"86 369 OFFCURVE",
"127 369 CURVE SMOOTH"
);
}
);
width = 254;
}
);
note = semicolon;
unicode = 003B;
},
{
glyphname = less;
lastChange = "2015-10-01 17:12:30 +0000";
layers = (
{
layerId = "6933CEC8-9691-45CB-9271-BBFB30E0E1A0";
name = Regular;
paths = (
{
closed = 1;
nodes = (
"540 134 LINE",
"149 332 LINE",
"540 530 LINE",
"540 593 LINE",
"49 349 LINE",
"49 315 LINE",
"540 71 LINE"
);
}
);
width = 595;
}
);
note = less;
unicode = 003C;
},
{
glyphname = equal;
lastChange = "2015-10-01 17:12:33 +0000";
layers = (
{
layerId = "6933CEC8-9691-45CB-9271-BBFB30E0E1A0";
name = Regular;
paths = (
{
closed = 1;
nodes = (
"542 373 LINE",
"542 429 LINE",
"53 429 LINE",
"53 373 LINE"
);
},
{
closed = 1;
nodes = (
"542 178 LINE",
"542 234 LINE",
"53 234 LINE",
"53 178 LINE"
);
}
);
width = 595;
}
);
note = equal;
unicode = 003D;
},
{
glyphname = greater;
lastChange = "2015-10-01 17:12:30 +0000";
layers = (
{
layerId = "6933CEC8-9691-45CB-9271-BBFB30E0E1A0";
name = Regular;
paths = (
{
closed = 1;
nodes = (
"546 315 LINE",
"546 349 LINE",
"55 593 LINE",
"55 530 LINE",
"446 332 LINE",
"55 134 LINE",
"55 71 LINE"
);
}
);
width = 595;
}
);
note = greater;
unicode = 003E;
},
{
glyphname = question;
lastChange = "2015-10-01 17:12:32 +0000";
layers = (
{
layerId = "6933CEC8-9691-45CB-9271-BBFB30E0E1A0";
name = Regular;
paths = (
{
closed = 1;
nodes = (
"235 171 LINE",
"235 176 OFFCURVE",
"235 181 OFFCURVE",
"235 185 CURVE SMOOTH",
"235 373 OFFCURVE",
"449 376 OFFCURVE",
"449 546 CURVE SMOOTH",
"449 665 OFFCURVE",
"350 710 OFFCURVE",
"242 710 CURVE SMOOTH",
"151 710 OFFCURVE",
"82 681 OFFCURVE",
"27 634 CURVE",
"47 603 LINE",
"91 641 OFFCURVE",
"144 668 OFFCURVE",
"208 668 CURVE SMOOTH",
"312 668 OFFCURVE",
"345 615 OFFCURVE",
"345 545 CURVE SMOOTH",
"345 413 OFFCURVE",
"179 390 OFFCURVE",
"179 201 CURVE SMOOTH",
"179 192 OFFCURVE",
"180 182 OFFCURVE",
"181 171 CURVE"
);
},
{
closed = 1;
nodes = (
"245 -10 OFFCURVE",
"268 13 OFFCURVE",
"268 50 CURVE SMOOTH",
"268 86 OFFCURVE",
"245 109 OFFCURVE",
"208 109 CURVE SMOOTH",
"172 109 OFFCURVE",
"149 86 OFFCURVE",
"149 50 CURVE SMOOTH",
"149 13 OFFCURVE",
"172 -10 OFFCURVE",
"208 -10 CURVE SMOOTH"
);
}
);
width = 479;
}
);
note = question;
unicode = 003F;
},
{
glyphname = at;
lastChange = "2015-10-01 17:12:32 +0000";
layers = (
{
layerId = "6933CEC8-9691-45CB-9271-BBFB30E0E1A0";
name = Regular;
paths = (
{
closed = 1;
nodes = (
"471 -57 OFFCURVE",
"551 -43 OFFCURVE",
"620 -17 CURVE",
"620 27 LINE",
"548 -6 OFFCURVE",
"462 -15 OFFCURVE",
"411 -15 CURVE SMOOTH",
"185 -15 OFFCURVE",
"90 120 OFFCURVE",
"90 295 CURVE SMOOTH",
"90 483 OFFCURVE",
"216 631 OFFCURVE",
"433 631 CURVE SMOOTH",
"608 631 OFFCURVE",
"732 517 OFFCURVE",
"732 349 CURVE SMOOTH",
"732 240 OFFCURVE",
"682 164 OFFCURVE",
"621 164 CURVE SMOOTH",
"598 164 OFFCURVE",
"557 181 OFFCURVE",
"559 231 CURVE",
"559 233 OFFCURVE",
"560 234 OFFCURVE",
"576 459 CURVE",
"531 484 OFFCURVE",
"476 494 OFFCURVE",
"424 494 CURVE SMOOTH",
"286 494 OFFCURVE",
"218 397 OFFCURVE",
"218 291 CURVE SMOOTH",
"218 195 OFFCURVE",
"268 124 OFFCURVE",
"382 124 CURVE SMOOTH",
"431 124 OFFCURVE",
"495 148 OFFCURVE",
"519 206 CURVE",
"523 206 LINE",
"529 155 OFFCURVE",
"573 124 OFFCURVE",
"615 124 CURVE SMOOTH",
"713 124 OFFCURVE",
"779 227 OFFCURVE",
"779 348 CURVE SMOOTH",
"779 543 OFFCURVE",
"630 671 OFFCURVE",
"428 671 CURVE SMOOTH",
"179 671 OFFCURVE",
"35 495 OFFCURVE",
"35 290 CURVE SMOOTH",
"35 96 OFFCURVE",
"161 -57 OFFCURVE",
"400 -57 CURVE SMOOTH"
);
},
{
closed = 1;
nodes = (
"333 165 OFFCURVE",
"302 209 OFFCURVE",
"302 280 CURVE SMOOTH",
"302 372 OFFCURVE",
"352 447 OFFCURVE",
"426 447 CURVE SMOOTH",
"443 447 OFFCURVE",
"476 445 OFFCURVE",
"498 435 CURVE",
"485 263 LINE SMOOTH",
"481 208 OFFCURVE",
"440 165 OFFCURVE",
"388 165 CURVE SMOOTH"
);
}
);
width = 819;
}
);
note = at;
unicode = 0040;
},
{
glyphname = A;
lastChange = "2015-10-27 09:14:23 +0000";
layers = (
{
layerId = "6933CEC8-9691-45CB-9271-BBFB30E0E1A0";
name = Regular;
paths = (
{
closed = 1;
nodes = (
"230 0 LINE",
"230 13 LINE",
"206 22 OFFCURVE",
"181 29 OFFCURVE",
"147 33 CURVE",
"347 590 LINE",
"544 34 LINE",
"518 31 OFFCURVE",
"492 26 OFFCURVE",
"463 15 CURVE",
"463 0 LINE",
"734 0 LINE",
"734 14 LINE",
"709 23 OFFCURVE",
"682 30 OFFCURVE",
"656 34 CURVE",
"410 704 LINE",
"331 704 LINE",
"85 36 LINE",
"70 34 OFFCURVE",
"32 25 OFFCURVE",
"7 16 CURVE",
"7 0 LINE"
);
},
{
closed = 1;
nodes = (
"523 181 LINE",
"523 221 LINE",
"180 221 LINE",
"180 181 LINE"
);
}
);
width = 741;
}
);
leftKerningGroup = A;
note = A;
rightKerningGroup = A;
unicode = 0041;
},
{
glyphname = B;
lastChange = "2015-10-01 17:12:33 +0000";
layers = (
{
layerId = "6933CEC8-9691-45CB-9271-BBFB30E0E1A0";
name = Regular;
paths = (
{
closed = 1;
nodes = (
"363 0 LINE SMOOTH",
"529 0 OFFCURVE",
"591 68 OFFCURVE",
"591 192 CURVE SMOOTH",
"591 262 OFFCURVE",
"554 346 OFFCURVE",
"433 368 CURVE",
"433 373 LINE",
"524 394 OFFCURVE",
"562 467 OFFCURVE",
"562 536 CURVE SMOOTH",
"562 645 OFFCURVE",
"500 700 OFFCURVE",
"332 700 CURVE SMOOTH",
"32 700 LINE",
"32 685 LINE",
"60 676 OFFCURVE",
"87 670 OFFCURVE",
"113 666 CURVE",
"113 35 LINE",
"86 32 OFFCURVE",
"67 27 OFFCURVE",
"32 14 CURVE",
"32 0 LINE"
);
},
{
closed = 1;
nodes = (
"227 348 LINE",
"336 348 LINE SMOOTH",
"427 348 OFFCURVE",
"479 295 OFFCURVE",
"479 196 CURVE SMOOTH",
"479 95 OFFCURVE",
"439 40 OFFCURVE",
"349 40 CURVE SMOOTH",
"227 40 LINE"
);
},
{
closed = 1;
nodes = (
"227 659 LINE",
"318 659 LINE SMOOTH",
"410 659 OFFCURVE",
"448 619 OFFCURVE",
"448 531 CURVE SMOOTH",
"448 445 OFFCURVE",
"404 388 OFFCURVE",
"314 388 CURVE SMOOTH",
"227 388 LINE"
);
}
);
width = 618;
}
);
note = B;
unicode = 0042;
},
{
glyphname = C;
lastChange = "2015-10-01 17:12:27 +0000";
layers = (
{
layerId = "6933CEC8-9691-45CB-9271-BBFB30E0E1A0";
name = Regular;
paths = (
{
closed = 1;
nodes = (
"462 -10 OFFCURVE",
"539 14 OFFCURVE",
"588 57 CURVE",
"572 89 LINE",
"513 49 OFFCURVE",
"441 32 OFFCURVE",
"393 32 CURVE SMOOTH",
"229 32 OFFCURVE",
"161 162 OFFCURVE",
"161 350 CURVE SMOOTH",
"161 538 OFFCURVE",
"240 668 OFFCURVE",
"402 668 CURVE SMOOTH",
"454 668 OFFCURVE",
"499 652 OFFCURVE",
"531 627 CURVE",
"534 589 OFFCURVE",
"542 537 OFFCURVE",
"552 508 CURVE",
"580 508 LINE",
"591 638 LINE",
"543 682 OFFCURVE",
"475 710 OFFCURVE",
"373 710 CURVE SMOOTH",
"160 710 OFFCURVE",
"45 572 OFFCURVE",
"45 350 CURVE SMOOTH",
"45 127 OFFCURVE",
"155 -10 OFFCURVE",
"375 -10 CURVE SMOOTH"
);
}
);
width = 634;
}
);
leftKerningGroup = C;
note = C;
unicode = 0043;
},
{
glyphname = D;
lastChange = "2015-10-01 17:12:31 +0000";
layers = (
{
layerId = "6933CEC8-9691-45CB-9271-BBFB30E0E1A0";
name = Regular;
paths = (
{
closed = 1;
nodes = (
"346 0 LINE SMOOTH",
"561 0 OFFCURVE",
"648 127 OFFCURVE",
"648 350 CURVE SMOOTH",
"648 573 OFFCURVE",
"562 700 OFFCURVE",
"347 700 CURVE SMOOTH",
"37 700 LINE",
"37 686 LINE",
"63 678 OFFCURVE",
"90 671 OFFCURVE",
"116 666 CURVE",
"116 34 LINE",
"89 31 OFFCURVE",
"61 23 OFFCURVE",
"37 15 CURVE",
"37 0 LINE"
);
},
{
closed = 1;
nodes = (
"229 659 LINE",
"346 659 LINE SMOOTH",
"487 659 OFFCURVE",
"532 535 OFFCURVE",
"532 350 CURVE SMOOTH",
"532 165 OFFCURVE",
"487 40 OFFCURVE",
"344 40 CURVE SMOOTH",
"229 40 LINE"
);
}
);
width = 685;
}
);
note = D;
rightKerningGroup = D;
unicode = 0044;
},
{
glyphname = E;
lastChange = "2015-10-01 17:12:32 +0000";
layers = (
{
layerId = "6933CEC8-9691-45CB-9271-BBFB30E0E1A0";
name = Regular;
paths = (
{
closed = 1;
nodes = (
"568 0 LINE",
"584 155 LINE",
"558 155 LINE",
"544 135 OFFCURVE",
"519 72 OFFCURVE",
"516 40 CURVE",
"235 40 LINE",
"235 659 LINE",
"512 659 LINE",
"514 631 OFFCURVE",
"531 565 OFFCURVE",
"543 544 CURVE",
"569 544 LINE",
"569 700 LINE",
"37 700 LINE",
"37 686 LINE",
"63 678 OFFCURVE",
"93 670 OFFCURVE",
"121 666 CURVE",
"121 35 LINE",
"94 32 OFFCURVE",
"61 23 OFFCURVE",
"37 15 CURVE",
"37 0 LINE"
);
},
{
closed = 1;
nodes = (
"470 235 LINE",
"470 444 LINE",
"451 444 LINE",
"441 418 OFFCURVE",
"434 378 OFFCURVE",
"432 360 CURVE",
"145 360 LINE",
"145 319 LINE",
"432 319 LINE",
"434 302 OFFCURVE",
"441 262 OFFCURVE",
"451 235 CURVE"
);
}
);
width = 629;
}
);
note = E;
unicode = 0045;
},
{
glyphname = F;
lastChange = "2015-10-01 17:12:33 +0000";
layers = (
{
layerId = "6933CEC8-9691-45CB-9271-BBFB30E0E1A0";
name = Regular;
paths = (
{
closed = 1;
nodes = (
"320 0 LINE",
"320 13 LINE",
"293 23 OFFCURVE",
"261 29 OFFCURVE",
"235 33 CURVE",
"235 659 LINE",
"502 659 LINE",
"504 631 OFFCURVE",
"521 565 OFFCURVE",
"533 544 CURVE",
"559 544 LINE",
"559 700 LINE",
"37 700 LINE",
"37 686 LINE",
"64 677 OFFCURVE",
"96 670 OFFCURVE",
"121 666 CURVE",
"121 33 LINE",
"88 29 OFFCURVE",
"61 22 OFFCURVE",
"37 14 CURVE",
"37 0 LINE"
);
},
{
closed = 1;
nodes = (
"470 235 LINE",
"470 444 LINE",
"451 444 LINE",
"441 418 OFFCURVE",
"434 378 OFFCURVE",
"432 360 CURVE",
"145 360 LINE",
"145 319 LINE",
"432 319 LINE",
"434 302 OFFCURVE",
"441 262 OFFCURVE",
"451 235 CURVE"
);
}
);
width = 585;
}
);
note = F;
unicode = 0046;
},
{
glyphname = G;
lastChange = "2015-10-01 17:12:27 +0000";
layers = (
{
layerId = "6933CEC8-9691-45CB-9271-BBFB30E0E1A0";
name = Regular;
paths = (
{
closed = 1;
nodes = (
"457 -10 OFFCURVE",
"557 10 OFFCURVE",
"608 49 CURVE",
"608 305 LINE",
"634 309 OFFCURVE",
"662 320 OFFCURVE",
"678 329 CURVE",
"678 340 LINE",
"419 340 LINE",
"419 326 LINE",
"443 318 OFFCURVE",
"471 312 OFFCURVE",
"498 307 CURVE",
"498 55 LINE",
"465 39 OFFCURVE",
"415 32 OFFCURVE",
"388 32 CURVE SMOOTH",
"224 32 OFFCURVE",
"153 162 OFFCURVE",
"153 350 CURVE SMOOTH",
"153 538 OFFCURVE",
"240 668 OFFCURVE",
"404 668 CURVE SMOOTH",
"456 668 OFFCURVE",
"528 652 OFFCURVE",
"560 627 CURVE",
"563 589 OFFCURVE",
"571 539 OFFCURVE",
"581 508 CURVE",
"609 508 LINE",
"620 638 LINE",
"572 682 OFFCURVE",
"477 710 OFFCURVE",
"375 710 CURVE SMOOTH",
"162 710 OFFCURVE",
"37 572 OFFCURVE",
"37 350 CURVE SMOOTH",
"37 127 OFFCURVE",
"150 -10 OFFCURVE",
"370 -10 CURVE SMOOTH"
);
}
);
width = 688;
}
);
leftKerningGroup = G;
note = G;
unicode = 0047;
},
{
glyphname = H;
lastChange = "2015-10-01 17:12:31 +0000";
layers = (
{
layerId = "6933CEC8-9691-45CB-9271-BBFB30E0E1A0";
name = Regular;
paths = (
{
closed = 1;
nodes = (
"766 0 LINE",
"766 13 LINE",
"739 23 OFFCURVE",
"712 29 OFFCURVE",
"686 33 CURVE",
"686 665 LINE",
"713 668 OFFCURVE",
"741 677 OFFCURVE",
"766 685 CURVE",
"766 700 LINE",
"495 700 LINE",
"495 686 LINE",
"521 678 OFFCURVE",
"547 671 OFFCURVE",
"572 667 CURVE",
"572 34 LINE",
"548 31 OFFCURVE",
"537 29 OFFCURVE",
"495 12 CURVE",
"495 0 LINE"
);
},
{
closed = 1;
nodes = (
"308 0 LINE",
"308 13 LINE",
"282 22 OFFCURVE",
"255 28 OFFCURVE",
"230 33 CURVE",
"230 666 LINE",
"254 669 OFFCURVE",
"265 671 OFFCURVE",
"308 687 CURVE",
"308 700 LINE",
"37 700 LINE",
"37 686 LINE",
"64 677 OFFCURVE",
"90 671 OFFCURVE",
"116 666 CURVE",
"116 34 LINE",
"89 31 OFFCURVE",
"61 23 OFFCURVE",
"37 15 CURVE",
"37 0 LINE"
);
},
{
closed = 1;
nodes = (
"628 335 LINE",
"628 376 LINE",
"176 376 LINE",
"176 335 LINE"
);
}
);
width = 803;
}
);
note = H;
unicode = 0048;
},
{
glyphname = I;
lastChange = "2015-10-01 17:12:27 +0000";
layers = (
{
layerId = "6933CEC8-9691-45CB-9271-BBFB30E0E1A0";
name = Regular;
paths = (
{
closed = 1;
nodes = (
"315 0 LINE",
"315 14 LINE",
"289 22 OFFCURVE",
"259 29 OFFCURVE",
"234 33 CURVE",
"234 666 LINE",
"262 671 OFFCURVE",
"291 677 OFFCURVE",
"315 685 CURVE",
"315 700 LINE",
"39 700 LINE",
"39 686 LINE",
"65 678 OFFCURVE",
"95 670 OFFCURVE",
"120 666 CURVE",
"120 34 LINE",
"92 29 OFFCURVE",
"63 22 OFFCURVE",
"39 15 CURVE",
"39 0 LINE"
);
}
);
width = 354;
}
);
note = I;
unicode = 0049;
},
{
glyphname = J;
lastChange = "2015-10-27 09:06:20 +0000";
layers = (
{
layerId = "6933CEC8-9691-45CB-9271-BBFB30E0E1A0";
name = Regular;
paths = (
{
closed = 1;
nodes = (
"291 -10 OFFCURVE",
"373 41 OFFCURVE",
"373 150 CURVE SMOOTH",
"373 665 LINE",
"400 668 OFFCURVE",
"428 677 OFFCURVE",
"452 685 CURVE",
"452 700 LINE",
"180 700 LINE",
"180 684 LINE",
"202 676 OFFCURVE",
"223 670 OFFCURVE",
"259 665 CURVE",
"259 148 LINE SMOOTH",
"259 67 OFFCURVE",
"211 39 OFFCURVE",
"151 39 CURVE SMOOTH",
"107 39 OFFCURVE",
"66 53 OFFCURVE",
"38 71 CURVE",
"20 42 LINE",
"60 9 OFFCURVE",
"119 -10 OFFCURVE",
"184 -10 CURVE SMOOTH"
);
}
);
width = 489;
}
);
leftKerningGroup = J;
note = J;
rightKerningGroup = J;
unicode = 004A;
},
{
glyphname = K;
lastChange = "2015-10-01 17:12:32 +0000";
layers = (
{
layerId = "6933CEC8-9691-45CB-9271-BBFB30E0E1A0";
name = Regular;
paths = (
{
closed = 1;
nodes = (
"606 661 LINE",
"628 675 OFFCURVE",
"653 676 OFFCURVE",
"675 681 CURVE",
"675 700 LINE",
"463 700 LINE",
"463 681 LINE",
"487 675 OFFCURVE",
"526 673 OFFCURVE",
"540 661 CURVE",
"195 292 LINE",
"195 223 LINE"
);
},
{
closed = 1;
nodes = (
"312 0 LINE",
"312 14 LINE",
"286 22 OFFCURVE",
"257 29 OFFCURVE",
"231 33 CURVE",
"231 666 LINE",
"259 671 OFFCURVE",
"287 677 OFFCURVE",
"312 685 CURVE",
"312 700 LINE",
"37 700 LINE",
"37 686 LINE",
"63 677 OFFCURVE",
"92 671 OFFCURVE",
"117 666 CURVE",
"117 34 LINE",
"103 32 OFFCURVE",
"63 23 OFFCURVE",
"37 15 CURVE",
"37 0 LINE"
);
},
{
closed = 1;
nodes = (
"751 0 LINE",
"751 14 LINE",
"719 23 OFFCURVE",
"689 29 OFFCURVE",
"666 33 CURVE",
"363 426 LINE",
"296 356 LINE",
"570 0 LINE"
);
}
);
width = 759;
}
);
note = K;
rightKerningGroup = K;
unicode = 004B;
},
{
glyphname = L;
lastChange = "2015-10-01 17:12:28 +0000";
layers = (
{
layerId = "6933CEC8-9691-45CB-9271-BBFB30E0E1A0";
name = Regular;
paths = (
{
closed = 1;
nodes = (
"562 0 LINE",
"577 155 LINE",
"552 155 LINE",
"538 135 OFFCURVE",
"512 72 OFFCURVE",
"510 40 CURVE",
"236 40 LINE",
"236 666 LINE",
"263 671 OFFCURVE",
"291 677 OFFCURVE",
"316 685 CURVE",
"316 700 LINE",
"41 700 LINE",
"41 686 LINE",
"68 677 OFFCURVE",
"96 671 OFFCURVE",
"122 666 CURVE",
"122 33 LINE",
"89 29 OFFCURVE",
"61 22 OFFCURVE",
"37 14 CURVE",
"37 0 LINE"
);
}
);
width = 618;
}
);
note = L;
rightKerningGroup = L;
unicode = 004C;
},
{
glyphname = M;
lastChange = "2015-10-01 17:12:28 +0000";
layers = (
{
layerId = "6933CEC8-9691-45CB-9271-BBFB30E0E1A0";
name = Regular;
paths = (
{
closed = 1;
nodes = (
"248 0 LINE",
"248 13 LINE",
"221 22 OFFCURVE",
"195 28 OFFCURVE",
"168 33 CURVE",
"168 622 LINE",
"399 77 LINE",
"465 77 LINE",
"700 614 LINE",
"700 33 LINE",
"673 28 OFFCURVE",
"647 22 OFFCURVE",
"620 13 CURVE",
"620 0 LINE",
"894 0 LINE",
"894 13 LINE",
"867 22 OFFCURVE",
"840 28 OFFCURVE",
"814 32 CURVE",
"814 665 LINE",
"842 671 OFFCURVE",
"870 678 OFFCURVE",
"894 686 CURVE",
"894 700 LINE",
"689 700 LINE",
"459 169 LINE",
"243 700 LINE",
"37 700 LINE",
"37 686 LINE",
"63 677 OFFCURVE",
"92 671 OFFCURVE",
"117 666 CURVE",
"117 32 LINE",
"91 28 OFFCURVE",
"64 22 OFFCURVE",
"37 13 CURVE",
"37 0 LINE"
);
}
);
width = 931;
}
);
note = M;
unicode = 004D;
},
{
glyphname = N;
lastChange = "2015-10-01 17:12:28 +0000";
layers = (
{
layerId = "6933CEC8-9691-45CB-9271-BBFB30E0E1A0";
name = Regular;
paths = (
{
closed = 1;
nodes = (
"248 0 LINE",
"248 13 LINE",
"221 22 OFFCURVE",
"195 28 OFFCURVE",
"168 33 CURVE",
"168 640 LINE",
"602 0 LINE",
"664 0 LINE",
"664 667 LINE",
"691 672 OFFCURVE",
"717 678 OFFCURVE",
"744 686 CURVE",
"744 700 LINE",
"533 700 LINE",
"533 686 LINE",
"560 678 OFFCURVE",
"587 672 OFFCURVE",
"613 667 CURVE",
"613 141 LINE",
"237 700 LINE",
"37 700 LINE",
"37 686 LINE",
"63 677 OFFCURVE",
"91 671 OFFCURVE",
"117 666 CURVE",
"117 32 LINE",
"91 28 OFFCURVE",
"64 22 OFFCURVE",
"37 13 CURVE",
"37 0 LINE"
);
}
);
width = 781;
}
);
note = N;
unicode = 004E;
},
{
glyphname = O;
lastChange = "2015-10-01 17:12:32 +0000";
layers = (
{
layerId = "6933CEC8-9691-45CB-9271-BBFB30E0E1A0";
name = Regular;
paths = (
{
closed = 1;
nodes = (
"580 -10 OFFCURVE",
"696 127 OFFCURVE",
"696 350 CURVE SMOOTH",
"696 572 OFFCURVE",
"580 710 OFFCURVE",
"366 710 CURVE SMOOTH",
"151 710 OFFCURVE",
"36 572 OFFCURVE",
"36 350 CURVE SMOOTH",
"36 127 OFFCURVE",
"151 -10 OFFCURVE",
"366 -10 CURVE SMOOTH"
);
},
{
closed = 1;
nodes = (
"219 32 OFFCURVE",
"151 166 OFFCURVE",
"151 350 CURVE SMOOTH",
"151 534 OFFCURVE",
"219 668 OFFCURVE",
"366 668 CURVE SMOOTH",
"513 668 OFFCURVE",
"581 534 OFFCURVE",
"581 350 CURVE SMOOTH",
"581 166 OFFCURVE",
"513 32 OFFCURVE",
"366 32 CURVE SMOOTH"
);
}
);
width = 732;
}
);
leftKerningGroup = O;
note = O;
rightKerningGroup = O;
unicode = 004F;
},
{
glyphname = P;
lastChange = "2015-10-01 17:12:32 +0000";
layers = (
{
layerId = "6933CEC8-9691-45CB-9271-BBFB30E0E1A0";
name = Regular;
paths = (
{
closed = 1;
nodes = (
"308 0 LINE",
"308 14 LINE",
"282 22 OFFCURVE",
"252 29 OFFCURVE",
"227 33 CURVE",
"227 275 LINE",
"372 275 LINE SMOOTH",
"525 275 OFFCURVE",
"594 372 OFFCURVE",
"594 493 CURVE SMOOTH",
"594 622 OFFCURVE",
"530 700 OFFCURVE",
"338 700 CURVE SMOOTH",
"34 700 LINE",
"34 686 LINE",
"61 677 OFFCURVE",
"87 671 OFFCURVE",
"113 666 CURVE",
"113 34 LINE",
"98 32 OFFCURVE",
"58 23 OFFCURVE",
"32 15 CURVE",
"32 0 LINE"
);
},
{
closed = 1;
nodes = (
"227 659 LINE",
"345 659 LINE SMOOTH",
"440 659 OFFCURVE",
"481 594 OFFCURVE",
"481 494 CURVE SMOOTH",
"481 396 OFFCURVE",
"443 315 OFFCURVE",
"345 315 CURVE SMOOTH",
"227 315 LINE"
);
}
);
width = 621;
}
);
note = P;
unicode = 0050;
},
{
glyphname = Q;
lastChange = "2015-10-01 17:12:32 +0000";
layers = (
{
layerId = "6933CEC8-9691-45CB-9271-BBFB30E0E1A0";
name = Regular;
paths = (
{
closed = 1;
nodes = (
"580 -10 OFFCURVE",
"696 127 OFFCURVE",
"696 350 CURVE SMOOTH",
"696 572 OFFCURVE",
"580 710 OFFCURVE",
"366 710 CURVE SMOOTH",
"151 710 OFFCURVE",
"36 572 OFFCURVE",
"36 350 CURVE SMOOTH",
"36 127 OFFCURVE",
"151 -10 OFFCURVE",
"366 -10 CURVE SMOOTH"
);
},
{
closed = 1;
nodes = (
"607 -122 LINE",
"505 -113 OFFCURVE",
"442 -61 OFFCURVE",
"434 15 CURVE",
"323 15 LINE",
"336 -80 OFFCURVE",
"429 -144 OFFCURVE",
"607 -159 CURVE"
);
},
{
closed = 1;
nodes = (
"220 32 OFFCURVE",
"151 166 OFFCURVE",
"151 350 CURVE SMOOTH",
"151 534 OFFCURVE",
"220 668 OFFCURVE",
"366 668 CURVE SMOOTH",
"512 668 OFFCURVE",
"581 534 OFFCURVE",
"581 350 CURVE SMOOTH",
"581 166 OFFCURVE",
"512 32 OFFCURVE",
"366 32 CURVE SMOOTH"
);
}
);
width = 732;
}
);
leftKerningGroup = O;
note = Q;
rightKerningGroup = O;
unicode = 0051;
},
{
glyphname = R;
lastChange = "2015-10-01 17:12:33 +0000";
layers = (
{
layerId = "6933CEC8-9691-45CB-9271-BBFB30E0E1A0";
name = Regular;
paths = (
{
closed = 1;
nodes = (
"313 0 LINE",
"313 14 LINE",
"287 22 OFFCURVE",
"257 29 OFFCURVE",
"232 33 CURVE",
"232 300 LINE",
"385 300 LINE SMOOTH",
"526 300 OFFCURVE",
"604 378 OFFCURVE",
"604 503 CURVE SMOOTH",
"604 619 OFFCURVE",
"551 700 OFFCURVE",
"385 700 CURVE SMOOTH",
"39 700 LINE",
"39 686 LINE",
"66 677 OFFCURVE",
"92 671 OFFCURVE",
"118 666 CURVE",
"118 34 LINE",
"103 32 OFFCURVE",
"63 23 OFFCURVE",
"37 15 CURVE",
"37 0 LINE"
);
},
{
closed = 1;
nodes = (
"663 0 LINE",
"663 14 LINE",
"641 23 OFFCURVE",
"611 29 OFFCURVE",
"589 33 CURVE",
"433 312 LINE",
"332 312 LINE",
"498 0 LINE"
);
},
{
closed = 1;
nodes = (
"232 659 LINE",
"350 659 LINE SMOOTH",
"449 659 OFFCURVE",
"491 604 OFFCURVE",
"491 504 CURVE SMOOTH",
"491 406 OFFCURVE",
"451 340 OFFCURVE",
"350 340 CURVE SMOOTH",
"232 340 LINE"
);
}
);
width = 686;
}
);
note = R;
rightKerningGroup = R;
unicode = 0052;
},
{
glyphname = S;
lastChange = "2015-10-01 17:12:28 +0000";
layers = (
{
layerId = "6933CEC8-9691-45CB-9271-BBFB30E0E1A0";
name = Regular;
paths = (
{
closed = 1;
nodes = (
"419 -10 OFFCURVE",
"529 63 OFFCURVE",
"529 188 CURVE SMOOTH",
"529 442 OFFCURVE",
"161 401 OFFCURVE",
"161 556 CURVE SMOOTH",
"161 630 OFFCURVE",
"217 668 OFFCURVE",
"315 668 CURVE SMOOTH",
"369 668 OFFCURVE",
"415 653 OFFCURVE",
"445 627 CURVE",
"448 588 OFFCURVE",
"455 543 OFFCURVE",
"465 514 CURVE",
"493 514 LINE",
"504 638 LINE",
"455 687 OFFCURVE",
"387 710 OFFCURVE",
"289 710 CURVE SMOOTH",
"144 710 OFFCURVE",
"45 654 OFFCURVE",
"45 539 CURVE SMOOTH",
"45 306 OFFCURVE",
"413 366 OFFCURVE",
"413 172 CURVE SMOOTH",
"413 78 OFFCURVE",
"332 32 OFFCURVE",
"247 32 CURVE SMOOTH",
"179 32 OFFCURVE",
"125 59 OFFCURVE",
"92 96 CURVE",
"89 134 OFFCURVE",
"84 193 OFFCURVE",
"73 223 CURVE",
"46 223 LINE",
"34 83 LINE",
"77 30 OFFCURVE",
"166 -10 OFFCURVE",
"276 -10 CURVE SMOOTH"
);
}
);
width = 564;
}
);
leftKerningGroup = S;
note = S;
rightKerningGroup = S;
unicode = 0053;
},
{
glyphname = T;
lastChange = "2015-10-01 17:12:28 +0000";
layers = (
{
layerId = "6933CEC8-9691-45CB-9271-BBFB30E0E1A0";
name = Regular;
paths = (
{
closed = 1;
nodes = (
"469 0 LINE",
"469 14 LINE",
"443 22 OFFCURVE",
"408 29 OFFCURVE",
"383 33 CURVE",
"383 659 LINE",
"558 659 LINE",
"560 631 OFFCURVE",
"577 550 OFFCURVE",
"589 529 CURVE",
"615 529 LINE",
"615 700 LINE",
"37 700 LINE",
"37 529 LINE",
"62 529 LINE",
"74 550 OFFCURVE",
"91 631 OFFCURVE",
"93 659 CURVE",
"269 659 LINE",
"269 34 LINE",
"239 28 OFFCURVE",
"209 22 OFFCURVE",
"183 15 CURVE",
"183 0 LINE"
);
}
);
width = 652;
}
);
leftKerningGroup = T;
note = T;
rightKerningGroup = T;
unicode = 0054;
},
{
glyphname = U;
lastChange = "2015-10-01 17:12:28 +0000";
layers = (
{
layerId = "6933CEC8-9691-45CB-9271-BBFB30E0E1A0";
name = Regular;
paths = (
{
closed = 1;
nodes = (
"572 -10 OFFCURVE",
"665 63 OFFCURVE",
"665 216 CURVE SMOOTH",
"665 665 LINE",
"684 668 OFFCURVE",
"714 675 OFFCURVE",
"747 686 CURVE",
"747 700 LINE",
"534 700 LINE",
"534 686 LINE",
"561 677 OFFCURVE",
"588 671 OFFCURVE",
"615 667 CURVE",
"615 204 LINE SMOOTH",
"615 75 OFFCURVE",
"526 32 OFFCURVE",
"423 32 CURVE SMOOTH",
"318 32 OFFCURVE",
"229 71 OFFCURVE",
"229 204 CURVE SMOOTH",
"229 666 LINE",
"257 671 OFFCURVE",
"285 677 OFFCURVE",
"309 685 CURVE",
"309 700 LINE",
"34 700 LINE",
"34 686 LINE",
"61 677 OFFCURVE",
"89 671 OFFCURVE",
"115 666 CURVE",
"115 216 LINE SMOOTH",
"115 57 OFFCURVE",
"219 -10 OFFCURVE",
"395 -10 CURVE SMOOTH"
);
}
);
width = 781;
}
);
leftKerningGroup = U;
note = U;
rightKerningGroup = U;
unicode = 0055;
},
{
glyphname = V;
lastChange = "2015-10-01 17:12:28 +0000";
layers = (
{
layerId = "6933CEC8-9691-45CB-9271-BBFB30E0E1A0";
name = Regular;
paths = (
{
closed = 1;
nodes = (
"417 -7 LINE",
"652 663 LINE",
"667 665 OFFCURVE",
"704 675 OFFCURVE",
"729 684 CURVE",
"729 700 LINE",
"506 700 LINE",
"506 687 LINE",
"529 678 OFFCURVE",
"554 671 OFFCURVE",
"589 666 CURVE",
"396 89 LINE",
"204 665 LINE",
"231 668 OFFCURVE",
"257 674 OFFCURVE",
"286 684 CURVE",
"286 700 LINE",
"17 700 LINE",
"17 686 LINE",
"42 676 OFFCURVE",
"68 669 OFFCURVE",
"93 665 CURVE",
"329 -7 LINE"
);
}
);
width = 746;
}
);
note = V;
unicode = 0056;
},
{
glyphname = W;
lastChange = "2015-10-01 17:12:28 +0000";
layers = (
{
layerId = "6933CEC8-9691-45CB-9271-BBFB30E0E1A0";
name = Regular;
paths = (
{
closed = 1;
nodes = (
"342 -5 LINE",
"506 509 LINE",
"676 -5 LINE",
"774 -5 LINE",
"949 669 LINE",
"967 672 OFFCURVE",
"990 679 OFFCURVE",
"1008 688 CURVE",
"1008 700 LINE",
"829 700 LINE",
"829 685 LINE",
"850 679 OFFCURVE",
"870 674 OFFCURVE",
"895 670 CURVE",
"746 86 LINE",
"554 668 LINE",
"502 668 LINE",
"330 132 LINE",
"202 665 LINE",
"229 668 OFFCURVE",
"265 677 OFFCURVE",
"285 685 CURVE",
"285 700 LINE",
"17 700 LINE",
"17 686 LINE",
"40 678 OFFCURVE",
"65 670 OFFCURVE",
"93 665 CURVE",
"261 -5 LINE"
);
}
);
width = 1025;
}
);
leftKerningGroup = W;
note = W;
rightKerningGroup = W;
unicode = 0057;
},
{
glyphname = X;
lastChange = "2015-10-01 17:12:32 +0000";
layers = (
{
layerId = "6933CEC8-9691-45CB-9271-BBFB30E0E1A0";
name = Regular;
paths = (
{
closed = 1;
nodes = (
"689 0 LINE",
"689 14 LINE",
"663 23 OFFCURVE",
"639 29 OFFCURVE",
"615 34 CURVE",
"208 664 LINE",
"236 667 OFFCURVE",
"271 676 OFFCURVE",
"296 684 CURVE",
"296 700 LINE",
"26 700 LINE",
"26 685 LINE",
"51 676 OFFCURVE",
"75 669 OFFCURVE",
"99 664 CURVE",
"507 36 LINE",
"478 33 OFFCURVE",
"447 24 OFFCURVE",
"419 12 CURVE",
"419 0 LINE"
);
},
{
closed = 1;
nodes = (
"187 0 LINE",
"187 14 LINE",
"166 20 OFFCURVE",
"146 26 OFFCURVE",
"122 31 CURVE",
"594 667 LINE",
"613 671 OFFCURVE",
"631 677 OFFCURVE",
"653 687 CURVE",
"653 700 LINE",
"475 700 LINE",
"475 686 LINE",
"496 678 OFFCURVE",
"515 673 OFFCURVE",
"540 667 CURVE",
"67 32 LINE",
"47 27 OFFCURVE",
"28 22 OFFCURVE",
"10 15 CURVE",
"10 0 LINE"
);
}
);
width = 699;
}
);
note = X;
unicode = 0058;
},
{
glyphname = Y;
lastChange = "2015-10-27 09:22:47 +0000";
layers = (
{
layerId = "6933CEC8-9691-45CB-9271-BBFB30E0E1A0";
name = Regular;
paths = (
{
closed = 1;
nodes = (
"505 0 LINE",
"505 14 LINE",
"479 22 OFFCURVE",
"449 29 OFFCURVE",
"424 33 CURVE",
"424 303 LINE",
"654 668 LINE",
"671 671 OFFCURVE",
"690 676 OFFCURVE",
"710 684 CURVE",
"710 700 LINE",
"524 700 LINE",
"524 686 LINE",
"546 679 OFFCURVE",
"566 673 OFFCURVE",
"589 668 CURVE",
"391 351 LINE",
"204 664 LINE",
"231 667 OFFCURVE",
"264 676 OFFCURVE",
"289 684 CURVE",
"289 700 LINE",
"17 700 LINE",
"17 685 LINE",
"42 676 OFFCURVE",
"70 669 OFFCURVE",
"95 664 CURVE",
"310 304 LINE",
"310 33 LINE",
"282 31 OFFCURVE",
"253 21 OFFCURVE",
"230 13 CURVE",
"230 0 LINE"
);
}
);
width = 727;
}
);
leftKerningGroup = Y;
note = Y;
rightKerningGroup = Y;
unicode = 0059;
},
{
glyphname = Z;
lastChange = "2015-10-01 17:12:28 +0000";
layers = (
{
layerId = "6933CEC8-9691-45CB-9271-BBFB30E0E1A0";
name = Regular;
paths = (
{
closed = 1;
nodes = (
"541 0 LINE",
"557 155 LINE",
"531 155 LINE",
"517 135 OFFCURVE",
"492 72 OFFCURVE",
"489 40 CURVE",
"145 40 LINE",
"559 682 LINE",
"559 700 LINE",
"61 700 LINE",
"61 544 LINE",
"87 544 LINE",
"99 565 OFFCURVE",
"116 631 OFFCURVE",
"118 659 CURVE",
"436 659 LINE",
"25 26 LINE",
"25 0 LINE"
);
}
);
width = 591;
}
);
note = Z;
unicode = 005A;
},
{
glyphname = bracketleft;
lastChange = "2015-10-01 17:12:30 +0000";
layers = (
{
layerId = "6933CEC8-9691-45CB-9271-BBFB30E0E1A0";
name = Regular;
paths = (
{
closed = 1;
nodes = (
"269 -124 LINE",
"269 -82 LINE",
"132 -82 LINE",
"132 665 LINE",
"269 665 LINE",
"269 705 LINE",
"49 705 LINE",
"49 -124 LINE"
);
}
);
width = 304;
}
);
note = bracketleft;
unicode = 005B;
},
{
glyphname = backslash;
lastChange = "2015-10-01 17:12:30 +0000";
layers = (
{
layerId = "6933CEC8-9691-45CB-9271-BBFB30E0E1A0";
name = Regular;
paths = (
{
closed = 1;
nodes = (
"329 0 LINE",
"63 706 LINE",
"15 706 LINE",
"281 0 LINE"
);
}
);
width = 344;
}
);
note = backslash;
unicode = 005C;
},
{
glyphname = bracketright;
lastChange = "2015-10-01 17:12:30 +0000";
layers = (
{
layerId = "6933CEC8-9691-45CB-9271-BBFB30E0E1A0";
name = Regular;
paths = (
{
closed = 1;
nodes = (
"255 -124 LINE",
"255 705 LINE",
"35 705 LINE",
"35 665 LINE",
"171 665 LINE",
"171 -82 LINE",
"35 -82 LINE",
"35 -124 LINE"
);
}
);
width = 304;
}
);
note = bracketright;
unicode = 005D;
},
{
glyphname = asciicircum;
lastChange = "2015-10-01 17:12:30 +0000";
layers = (
{
layerId = "6933CEC8-9691-45CB-9271-BBFB30E0E1A0";
name = Regular;
paths = (
{
closed = 1;
nodes = (
"116 314 LINE",
"283 683 LINE",
"451 314 LINE",
"526 314 LINE",
"324 724 LINE",
"242 724 LINE",
"41 314 LINE"
);
}
);
width = 567;
}
);
note = asciicircum;
unicode = 005E;
},
{
glyphname = underscore;
lastChange = "2015-10-01 17:12:30 +0000";
layers = (
{
layerId = "6933CEC8-9691-45CB-9271-BBFB30E0E1A0";
name = Regular;
paths = (
{
closed = 1;
nodes = (
"471 -114 LINE",
"471 -72 LINE",
"-3 -72 LINE",
"-3 -114 LINE"
);
}
);
width = 468;
}
);
note = underscore;
unicode = 005F;
},
{
glyphname = grave;
lastChange = "2015-10-01 17:12:31 +0000";
layers = (
{
layerId = "6933CEC8-9691-45CB-9271-BBFB30E0E1A0";
name = Regular;
paths = (
{
closed = 1;
nodes = (
"358 612 LINE",
"241 725 OFFCURVE",
"240 726 OFFCURVE",
"240 726 CURVE",
"232 734 OFFCURVE",
"211 752 OFFCURVE",
"187 752 CURVE SMOOTH",
"170 752 OFFCURVE",
"153 743 OFFCURVE",
"153 720 CURVE SMOOTH",
"153 699 OFFCURVE",
"169 683 OFFCURVE",
"191 671 CURVE SMOOTH",
"339 585 LINE"
);
}
);
width = 505;
}
);
note = grave;
unicode = 0060;
},
{
glyphname = a;
lastChange = "2015-10-01 17:12:32 +0000";
layers = (
{
layerId = "6933CEC8-9691-45CB-9271-BBFB30E0E1A0";
name = Regular;
paths = (
{
closed = 1;
nodes = (
"249 -10 OFFCURVE",
"315 9 OFFCURVE",
"368 67 CURVE",
"368 -3 LINE",
"548 15 LINE",
"548 24 LINE",
"525 31 OFFCURVE",
"504 36 OFFCURVE",
"479 41 CURVE",
"479 365 LINE SMOOTH",
"479 451 OFFCURVE",
"404 507 OFFCURVE",
"279 507 CURVE SMOOTH",
"204 507 OFFCURVE",
"131 489 OFFCURVE",
"76 460 CURVE",
"83 425 LINE",
"126 446 OFFCURVE",
"187 467 OFFCURVE",
"243 467 CURVE SMOOTH",
"318 467 OFFCURVE",
"368 436 OFFCURVE",
"368 359 CURVE SMOOTH",
"368 283 LINE",
"227 283 LINE SMOOTH",
"121 283 OFFCURVE",
"27 247 OFFCURVE",
"27 135 CURVE SMOOTH",
"27 41 OFFCURVE",
"82 -10 OFFCURVE",
"195 -10 CURVE SMOOTH"
);
},
{
closed = 1;
nodes = (
"179 32 OFFCURVE",
"137 63 OFFCURVE",
"137 136 CURVE SMOOTH",
"137 201 OFFCURVE",
"173 243 OFFCURVE",
"253 243 CURVE SMOOTH",
"368 243 LINE",
"368 111 LINE",
"343 69 OFFCURVE",
"285 32 OFFCURVE",
"236 32 CURVE SMOOTH"
);
}
);
width = 554;
}
);
leftKerningGroup = a;
note = a;
rightKerningGroup = a;
unicode = 0061;
},
{
glyphname = b;
lastChange = "2015-10-01 17:12:32 +0000";
layers = (
{
layerId = "6933CEC8-9691-45CB-9271-BBFB30E0E1A0";
name = Regular;
paths = (
{
closed = 1;
nodes = (
"490 -10 OFFCURVE",
"585 70 OFFCURVE",
"585 261 CURVE SMOOTH",
"585 422 OFFCURVE",
"487 507 OFFCURVE",
"361 507 CURVE SMOOTH",
"314 507 OFFCURVE",
"249 499 OFFCURVE",
"191 443 CURVE",
"191 706 LINE",
"11 688 LINE",
"11 679 LINE",
"34 671 OFFCURVE",
"55 666 OFFCURVE",
"80 661 CURVE",
"80 0 LINE",
"154 0 LINE",
"162 22 OFFCURVE",
"170 49 OFFCURVE",
"175 75 CURVE",
"202 25 OFFCURVE",
"265 -10 OFFCURVE",
"344 -10 CURVE SMOOTH"
);
},
{
closed = 1;
nodes = (
"240 30 OFFCURVE",
"191 96 OFFCURVE",
"191 170 CURVE SMOOTH",
"191 395 LINE",
"219 431 OFFCURVE",
"269 467 OFFCURVE",
"325 467 CURVE SMOOTH",
"433 467 OFFCURVE",
"475 391 OFFCURVE",
"475 256 CURVE SMOOTH",
"475 131 OFFCURVE",
"438 30 OFFCURVE",
"329 30 CURVE SMOOTH"
);
}
);
width = 615;
}
);
note = b;
unicode = 0062;
},
{
glyphname = c;
lastChange = "2015-10-27 09:20:25 +0000";
layers = (
{
layerId = "6933CEC8-9691-45CB-9271-BBFB30E0E1A0";
name = Regular;
paths = (
{
closed = 1;
nodes = (
"386 -10 OFFCURVE",
"455 19 OFFCURVE",
"492 50 CURVE",
"482 79 LINE",
"440 47 OFFCURVE",
"377 28 OFFCURVE",
"325 28 CURVE SMOOTH",
"195 28 OFFCURVE",
"142 138 OFFCURVE",
"142 244 CURVE SMOOTH",
"142 390 OFFCURVE",
"213 467 OFFCURVE",
"331 467 CURVE SMOOTH",
"375 467 OFFCURVE",
"410 453 OFFCURVE",
"442 431 CURVE",
"443 400 OFFCURVE",
"449 353 OFFCURVE",
"457 331 CURVE",
"481 331 LINE",
"489 444 LINE",
"454 474 OFFCURVE",
"396 507 OFFCURVE",
"302 507 CURVE SMOOTH",
"140 507 OFFCURVE",
"30 414 OFFCURVE",
"30 248 CURVE SMOOTH",
"30 94 OFFCURVE",
"131 -10 OFFCURVE",
"297 -10 CURVE SMOOTH"
);
}
);
width = 513;
}
);
leftKerningGroup = c;
note = c;
rightKerningGroup = c;
unicode = 0063;
},
{
glyphname = d;
lastChange = "2015-10-01 17:12:33 +0000";
layers = (
{
layerId = "6933CEC8-9691-45CB-9271-BBFB30E0E1A0";
name = Regular;
paths = (
{
closed = 1;
nodes = (
"337 -10 OFFCURVE",
"403 21 OFFCURVE",
"439 83 CURVE",
"441 53 OFFCURVE",
"444 19 OFFCURVE",
"448 -6 CURVE",
"604 16 LINE",
"604 24 LINE",
"582 31 OFFCURVE",
"560 36 OFFCURVE",
"535 41 CURVE",
"535 706 LINE",
"356 688 LINE",
"356 679 LINE",
"378 671 OFFCURVE",
"399 666 OFFCURVE",
"424 661 CURVE",
"424 445 LINE",
"376 497 OFFCURVE",
"321 507 OFFCURVE",
"270 507 CURVE SMOOTH",
"119 507 OFFCURVE",
"30 404 OFFCURVE",
"30 242 CURVE SMOOTH",
"30 65 OFFCURVE",
"117 -10 OFFCURVE",
"255 -10 CURVE SMOOTH"
);
},
{
closed = 1;
nodes = (
"183 30 OFFCURVE",
"141 112 OFFCURVE",
"141 241 CURVE SMOOTH",
"141 347 OFFCURVE",
"178 467 OFFCURVE",
"292 467 CURVE SMOOTH",
"345 467 OFFCURVE",
"389 438 OFFCURVE",
"424 396 CURVE",
"424 171 LINE SMOOTH",
"424 88 OFFCURVE",
"366 30 OFFCURVE",
"286 30 CURVE SMOOTH"
);
}
);
width = 610;
}
);
leftKerningGroup = d;
note = d;
unicode = 0064;
},
{
glyphname = e;
lastChange = "2015-10-01 17:12:28 +0000";
layers = (
{
layerId = "6933CEC8-9691-45CB-9271-BBFB30E0E1A0";
name = Regular;
paths = (
{
closed = 1;
nodes = (
"386 -10 OFFCURVE",
"459 19 OFFCURVE",
"497 50 CURVE",
"486 79 LINE",
"441 47 OFFCURVE",
"375 28 OFFCURVE",
"322 28 CURVE SMOOTH",
"195 28 OFFCURVE",
"139 132 OFFCURVE",
"139 251 CURVE SMOOTH",
"139 361 OFFCURVE",
"183 467 OFFCURVE",
"290 467 CURVE SMOOTH",
"392 467 OFFCURVE",
"423 360 OFFCURVE",
"423 285 CURVE",
"123 285 LINE",
"123 245 LINE",
"521 245 LINE",
"521 270 LINE SMOOTH",
"521 396 OFFCURVE",
"451 507 OFFCURVE",
"289 507 CURVE SMOOTH",
"126 507 OFFCURVE",
"27 414 OFFCURVE",
"27 248 CURVE SMOOTH",
"27 94 OFFCURVE",
"131 -10 OFFCURVE",
"297 -10 CURVE SMOOTH"
);
}
);
width = 551;
}
);
leftKerningGroup = e;
note = e;
rightKerningGroup = e;
unicode = 0065;
},
{
glyphname = f;
lastChange = "2015-10-01 17:12:33 +0000";
layers = (
{
layerId = "6933CEC8-9691-45CB-9271-BBFB30E0E1A0";
name = Regular;
paths = (
{
closed = 1;
nodes = (
"315 0 LINE",
"315 13 LINE",
"289 22 OFFCURVE",
"255 29 OFFCURVE",
"230 33 CURVE",
"230 558 LINE SMOOTH",
"230 640 OFFCURVE",
"268 676 OFFCURVE",
"320 676 CURVE SMOOTH",
"343 676 OFFCURVE",
"365 671 OFFCURVE",
"385 664 CURVE",
"392 701 LINE",
"357 713 OFFCURVE",
"317 718 OFFCURVE",
"280 718 CURVE SMOOTH",
"177 718 OFFCURVE",
"119 655 OFFCURVE",
"119 533 CURVE SMOOTH",
"119 33 LINE",
"105 32 OFFCURVE",
"66 22 OFFCURVE",
"39 14 CURVE",
"39 0 LINE"
);
},
{
closed = 1;
nodes = (
"380 458 LINE",
"380 498 LINE",
"25 498 LINE",
"25 458 LINE"
);
}
);
width = 417;
}
);
leftKerningGroup = f;
note = f;
unicode = 0066;
},
{
glyphname = g;
lastChange = "2015-10-01 17:12:32 +0000";
layers = (
{
layerId = "6933CEC8-9691-45CB-9271-BBFB30E0E1A0";
name = Regular;
paths = (
{
closed = 1;
nodes = (
"424 -155 OFFCURVE",
"512 -108 OFFCURVE",
"512 -7 CURVE SMOOTH",
"512 85 OFFCURVE",
"448 123 OFFCURVE",
"359 123 CURVE SMOOTH",
"190 123 LINE SMOOTH",
"154 123 OFFCURVE",
"136 136 OFFCURVE",
"136 156 CURVE SMOOTH",
"136 176 OFFCURVE",
"152 190 OFFCURVE",
"177 201 CURVE",
"127 223 LINE",
"73 197 OFFCURVE",
"49 159 OFFCURVE",
"49 120 CURVE SMOOTH",
"49 80 OFFCURVE",
"79 33 OFFCURVE",
"164 33 CURVE SMOOTH",
"320 33 LINE SMOOTH",
"381 33 OFFCURVE",
"412 8 OFFCURVE",
"412 -32 CURVE SMOOTH",
"412 -86 OFFCURVE",
"349 -112 OFFCURVE",
"263 -112 CURVE SMOOTH",
"180 -112 OFFCURVE",
"124 -81 OFFCURVE",
"124 -22 CURVE SMOOTH",
"124 9 OFFCURVE",
"132 38 OFFCURVE",
"170 65 CURVE",
"110 65 LINE",
"58 43 OFFCURVE",
"37 8 OFFCURVE",
"37 -29 CURVE SMOOTH",
"37 -111 OFFCURVE",
"129 -155 OFFCURVE",
"264 -155 CURVE SMOOTH"
);
},
{
closed = 1;
nodes = (
"396 177 OFFCURVE",
"480 236 OFFCURVE",
"480 342 CURVE SMOOTH",
"480 447 OFFCURVE",
"396 507 OFFCURVE",
"259 507 CURVE SMOOTH",
"121 507 OFFCURVE",
"37 447 OFFCURVE",
"37 342 CURVE SMOOTH",
"37 236 OFFCURVE",
"121 177 OFFCURVE",
"259 177 CURVE SMOOTH"
);
},
{
closed = 1;
nodes = (
"183 217 OFFCURVE",
"147 273 OFFCURVE",
"147 342 CURVE SMOOTH",
"147 411 OFFCURVE",
"183 467 OFFCURVE",
"259 467 CURVE SMOOTH",
"334 467 OFFCURVE",
"370 411 OFFCURVE",
"370 342 CURVE SMOOTH",
"370 273 OFFCURVE",
"334 217 OFFCURVE",
"259 217 CURVE SMOOTH"
);
},
{
closed = 1;
nodes = (
"484 442 OFFCURVE",
"516 490 OFFCURVE",
"523 526 CURVE",
"443 526 LINE",
"443 505 OFFCURVE",
"412 460 OFFCURVE",
"386 446 CURVE",
"410 406 LINE"
);
}
);
width = 541;
}
);
leftKerningGroup = g;
note = g;
unicode = 0067;
},
{
glyphname = h;
lastChange = "2015-10-01 17:12:31 +0000";
layers = (
{
layerId = "6933CEC8-9691-45CB-9271-BBFB30E0E1A0";
name = Regular;
paths = (
{
closed = 1;
nodes = (
"661 0 LINE",
"661 13 LINE",
"635 22 OFFCURVE",
"606 29 OFFCURVE",
"581 33 CURVE",
"581 366 LINE SMOOTH",
"581 455 OFFCURVE",
"510 507 OFFCURVE",
"409 507 CURVE SMOOTH",
"314 507 OFFCURVE",
"237 460 OFFCURVE",
"197 408 CURVE",
"197 362 LINE",
"246 435 OFFCURVE",
"317 467 OFFCURVE",
"371 467 CURVE SMOOTH",
"425 467 OFFCURVE",
"470 441 OFFCURVE",
"470 359 CURVE SMOOTH",
"470 33 LINE",
"443 29 OFFCURVE",
"414 20 OFFCURVE",
"395 13 CURVE",
"395 0 LINE"
);
},
{
closed = 1;
nodes = (
"293 0 LINE",
"293 13 LINE",
"270 22 OFFCURVE",
"244 29 OFFCURVE",
"219 33 CURVE",
"219 706 LINE",
"39 688 LINE",
"39 679 LINE",
"62 671 OFFCURVE",
"83 666 OFFCURVE",
"108 661 CURVE",
"108 33 LINE",
"81 30 OFFCURVE",
"47 20 OFFCURVE",
"29 13 CURVE",
"29 0 LINE"
);
}
);
width = 681;
}
);
note = h;
rightKerningGroup = h;
unicode = 0068;
},
{
glyphname = i;
lastChange = "2015-10-01 17:12:31 +0000";
layers = (
{
layerId = "6933CEC8-9691-45CB-9271-BBFB30E0E1A0";
name = Regular;
paths = (
{
closed = 1;
nodes = (
"295 0 LINE",
"295 13 LINE",
"268 22 OFFCURVE",
"241 28 OFFCURVE",
"215 33 CURVE",
"215 505 LINE",
"35 487 LINE",
"35 478 LINE",
"58 470 OFFCURVE",
"79 465 OFFCURVE",
"104 460 CURVE",
"104 33 LINE",
"75 27 OFFCURVE",
"48 21 OFFCURVE",
"25 13 CURVE",
"25 0 LINE"
);
},
{
closed = 1;
nodes = (
"190 548 OFFCURVE",
"216 573 OFFCURVE",
"216 609 CURVE SMOOTH",
"216 645 OFFCURVE",
"190 671 OFFCURVE",
"152 671 CURVE SMOOTH",
"114 671 OFFCURVE",
"89 645 OFFCURVE",
"89 609 CURVE SMOOTH",
"89 573 OFFCURVE",
"114 548 OFFCURVE",
"152 548 CURVE SMOOTH"
);
}
);
width = 320;
}
);
note = i;
unicode = 0069;
},
{
glyphname = j;
lastChange = "2015-10-01 17:12:31 +0000";
layers = (
{
layerId = "6933CEC8-9691-45CB-9271-BBFB30E0E1A0";
name = Regular;
paths = (
{
closed = 1;
nodes = (
"174 -124 OFFCURVE",
"241 -82 OFFCURVE",
"241 16 CURVE SMOOTH",
"241 505 LINE",
"61 487 LINE",
"61 478 LINE",
"83 470 OFFCURVE",
"105 465 OFFCURVE",
"130 460 CURVE",
"130 12 LINE SMOOTH",
"130 -46 OFFCURVE",
"102 -81 OFFCURVE",
"49 -81 CURVE SMOOTH",
"27 -81 OFFCURVE",
"3 -77 OFFCURVE",
"-16 -68 CURVE",
"-23 -104 LINE",
"10 -118 OFFCURVE",
"52 -124 OFFCURVE",
"90 -124 CURVE SMOOTH"
);
},
{
closed = 1;
nodes = (
"216 548 OFFCURVE",
"241 573 OFFCURVE",
"241 609 CURVE SMOOTH",
"241 645 OFFCURVE",
"216 671 OFFCURVE",
"178 671 CURVE SMOOTH",
"140 671 OFFCURVE",
"115 645 OFFCURVE",
"115 609 CURVE SMOOTH",
"115 573 OFFCURVE",
"140 548 OFFCURVE",
"178 548 CURVE SMOOTH"
);
}
);
width = 327;
}
);
leftKerningGroup = j;
note = j;
unicode = 006A;
},
{
glyphname = k;
lastChange = "2015-10-01 17:12:32 +0000";
layers = (
{
layerId = "6933CEC8-9691-45CB-9271-BBFB30E0E1A0";
name = Regular;
paths = (
{
closed = 1;
nodes = (
"299 0 LINE",
"299 13 LINE",
"274 22 OFFCURVE",
"244 29 OFFCURVE",
"219 33 CURVE",
"219 706 LINE",
"39 688 LINE",
"39 679 LINE",
"62 671 OFFCURVE",
"83 666 OFFCURVE",
"108 661 CURVE",
"108 33 LINE",
"80 30 OFFCURVE",
"52 21 OFFCURVE",
"29 13 CURVE",
"29 0 LINE"
);
},
{
closed = 1;
nodes = (
"639 0 LINE",
"639 13 LINE",
"609 23 OFFCURVE",
"584 29 OFFCURVE",
"558 34 CURVE",
"333 310 LINE",
"270 252 LINE",
"478 0 LINE"
);
},
{
closed = 1;
nodes = (
"501 456 LINE",
"517 463 OFFCURVE",
"567 473 OFFCURVE",
"592 485 CURVE",
"592 498 LINE",
"367 498 LINE",
"367 485 LINE",
"388 475 OFFCURVE",
"420 467 OFFCURVE",
"435 462 CURVE",
"437 461 OFFCURVE",
"438 460 OFFCURVE",
"438 458 CURVE SMOOTH",
"438 454 OFFCURVE",
"432 448 OFFCURVE",
"429 445 CURVE SMOOTH",
"186 206 LINE",
"186 147 LINE"
);
}
);
width = 654;
}
);
note = k;
rightKerningGroup = k;
unicode = 006B;
},
{
glyphname = l;
lastChange = "2015-10-01 17:12:29 +0000";
layers = (
{
layerId = "6933CEC8-9691-45CB-9271-BBFB30E0E1A0";
name = Regular;
paths = (
{
closed = 1;
nodes = (
"299 0 LINE",
"299 13 LINE",
"274 22 OFFCURVE",
"244 29 OFFCURVE",
"219 33 CURVE",
"219 706 LINE",
"39 688 LINE",
"39 679 LINE",
"62 671 OFFCURVE",
"83 666 OFFCURVE",
"108 661 CURVE",
"108 33 LINE",
"79 27 OFFCURVE",
"50 20 OFFCURVE",
"29 13 CURVE",
"29 0 LINE"
);
}
);
width = 328;
}
);
note = l;
unicode = 006C;
},
{
glyphname = m;
lastChange = "2015-10-01 17:12:32 +0000";
layers = (
{
layerId = "6933CEC8-9691-45CB-9271-BBFB30E0E1A0";
name = Regular;
paths = (
{
closed = 1;
nodes = (
"961 0 LINE",
"961 13 LINE",
"936 22 OFFCURVE",
"907 29 OFFCURVE",
"881 33 CURVE",
"881 366 LINE SMOOTH",
"881 455 OFFCURVE",
"810 507 OFFCURVE",
"709 507 CURVE SMOOTH",
"617 507 OFFCURVE",
"552 453 OFFCURVE",
"521 404 CURVE",
"521 357 LINE",
"559 424 OFFCURVE",
"615 467 OFFCURVE",
"671 467 CURVE SMOOTH",
"725 467 OFFCURVE",
"770 441 OFFCURVE",
"770 359 CURVE SMOOTH",
"770 33 LINE",
"743 29 OFFCURVE",
"713 19 OFFCURVE",
"696 13 CURVE",
"696 0 LINE"
);
},
{
closed = 1;
nodes = (
"299 0 LINE",
"299 13 LINE",
"273 22 OFFCURVE",
"244 29 OFFCURVE",
"219 33 CURVE",
"219 507 LINE",
"39 489 LINE",
"39 480 LINE",
"62 472 OFFCURVE",
"83 467 OFFCURVE",
"108 462 CURVE",
"108 33 LINE",
"81 29 OFFCURVE",
"49 20 OFFCURVE",
"29 13 CURVE",
"29 0 LINE"
);
},
{
closed = 1;
nodes = (
"621 0 LINE",
"621 13 LINE",
"600 22 OFFCURVE",
"574 29 OFFCURVE",
"548 33 CURVE",
"548 366 LINE SMOOTH",
"548 455 OFFCURVE",
"480 507 OFFCURVE",
"379 507 CURVE SMOOTH",
"289 507 OFFCURVE",
"223 450 OFFCURVE",
"196 408 CURVE",
"196 362 LINE",
"236 427 OFFCURVE",
"292 467 OFFCURVE",
"346 467 CURVE SMOOTH",
"400 467 OFFCURVE",
"442 441 OFFCURVE",
"442 359 CURVE SMOOTH",
"442 33 LINE",
"415 29 OFFCURVE",
"386 19 OFFCURVE",
"369 13 CURVE",
"369 0 LINE"
);
}
);
width = 981;
}
);
leftKerningGroup = m;
note = m;
rightKerningGroup = m;
unicode = 006D;
},
{
glyphname = n;
lastChange = "2015-10-01 17:12:31 +0000";
layers = (
{
layerId = "6933CEC8-9691-45CB-9271-BBFB30E0E1A0";
name = Regular;
paths = (
{
closed = 1;
nodes = (
"660 0 LINE",
"660 13 LINE",
"639 22 OFFCURVE",
"607 29 OFFCURVE",
"581 33 CURVE",
"581 366 LINE SMOOTH",
"581 455 OFFCURVE",
"510 507 OFFCURVE",
"409 507 CURVE SMOOTH",
"314 507 OFFCURVE",
"236 460 OFFCURVE",
"196 408 CURVE",
"196 362 LINE",
"246 435 OFFCURVE",
"317 467 OFFCURVE",
"371 467 CURVE SMOOTH",
"425 467 OFFCURVE",
"470 441 OFFCURVE",
"470 359 CURVE SMOOTH",
"470 33 LINE",
"443 29 OFFCURVE",
"412 19 OFFCURVE",
"396 13 CURVE",
"396 0 LINE"
);
},
{
closed = 1;
nodes = (
"299 0 LINE",
"299 13 LINE",
"273 22 OFFCURVE",
"244 29 OFFCURVE",
"219 33 CURVE",
"219 507 LINE",
"39 489 LINE",
"39 480 LINE",
"62 472 OFFCURVE",
"83 467 OFFCURVE",
"108 462 CURVE",
"108 33 LINE",
"81 29 OFFCURVE",
"49 20 OFFCURVE",
"29 13 CURVE",
"29 0 LINE"
);
}
);
width = 680;
}
);
leftKerningGroup = m;
note = n;
rightKerningGroup = m;
unicode = 006E;
},
{
glyphname = o;
lastChange = "2015-10-27 09:11:00 +0000";
layers = (
{
layerId = "6933CEC8-9691-45CB-9271-BBFB30E0E1A0";
name = Regular;
paths = (
{
closed = 1;
nodes = (
"472 -10 OFFCURVE",
"571 86 OFFCURVE",
"571 248 CURVE SMOOTH",
"571 410 OFFCURVE",
"472 507 OFFCURVE",
"298 507 CURVE SMOOTH",
"124 507 OFFCURVE",
"25 410 OFFCURVE",
"25 248 CURVE SMOOTH",
"25 86 OFFCURVE",
"124 -10 OFFCURVE",
"298 -10 CURVE SMOOTH"
);
},
{
closed = 1;
nodes = (
"199 30 OFFCURVE",
"136 111 OFFCURVE",
"136 248 CURVE SMOOTH",
"136 385 OFFCURVE",
"199 467 OFFCURVE",
"298 467 CURVE SMOOTH",
"396 467 OFFCURVE",
"459 385 OFFCURVE",
"459 248 CURVE SMOOTH",
"459 111 OFFCURVE",
"396 30 OFFCURVE",
"298 30 CURVE SMOOTH"
);
}
);
width = 596;
}
);
leftKerningGroup = o;
note = o;
rightKerningGroup = o;
unicode = 006F;
},
{
glyphname = p;
lastChange = "2015-10-27 09:22:54 +0000";
layers = (
{
layerId = "6933CEC8-9691-45CB-9271-BBFB30E0E1A0";
name = Regular;
paths = (
{
closed = 1;
nodes = (
"281 -241 LINE",
"281 -227 LINE",
"256 -219 OFFCURVE",
"227 -212 OFFCURVE",
"202 -208 CURVE",
"202 59 LINE",
"233 7 OFFCURVE",
"298 -10 OFFCURVE",
"353 -10 CURVE SMOOTH",
"504 -10 OFFCURVE",
"596 70 OFFCURVE",
"596 261 CURVE SMOOTH",
"596 428 OFFCURVE",
"508 507 OFFCURVE",
"363 507 CURVE SMOOTH",
"325 507 OFFCURVE",
"255 498 OFFCURVE",
"202 438 CURVE",
"202 507 LINE",
"22 489 LINE",
"22 479 LINE",
"44 472 OFFCURVE",
"66 467 OFFCURVE",
"91 462 CURVE",
"91 -207 LINE",
"63 -213 OFFCURVE",
"35 -219 OFFCURVE",
"11 -226 CURVE",
"11 -241 LINE"
);
},
{
closed = 1;
nodes = (
"251 30 OFFCURVE",
"202 96 OFFCURVE",
"202 170 CURVE SMOOTH",
"202 388 LINE",
"233 431 OFFCURVE",
"284 467 OFFCURVE",
"340 467 CURVE SMOOTH",
"448 467 OFFCURVE",
"484 391 OFFCURVE",
"484 256 CURVE SMOOTH",
"484 131 OFFCURVE",
"448 30 OFFCURVE",
"339 30 CURVE SMOOTH"
);
}
);
width = 621;
}
);
note = p;
unicode = 0070;
},
{
glyphname = q;
lastChange = "2015-10-01 17:12:31 +0000";
layers = (
{
layerId = "6933CEC8-9691-45CB-9271-BBFB30E0E1A0";
name = Regular;
paths = (
{
closed = 1;
nodes = (
"611 -241 LINE",
"611 -227 LINE",
"585 -219 OFFCURVE",
"558 -213 OFFCURVE",
"531 -209 CURVE",
"531 461 LINE",
"561 468 OFFCURVE",
"583 474 OFFCURVE",
"601 480 CURVE",
"601 489 LINE",
"420 507 LINE",
"420 439 LINE",
"372 493 OFFCURVE",
"306 507 OFFCURVE",
"251 507 CURVE SMOOTH",
"127 507 OFFCURVE",
"25 420 OFFCURVE",
"25 253 CURVE SMOOTH",
"25 60 OFFCURVE",
"128 -10 OFFCURVE",
"269 -10 CURVE SMOOTH",
"326 -10 OFFCURVE",
"389 10 OFFCURVE",
"420 61 CURVE",
"420 -207 LINE",
"392 -212 OFFCURVE",
"363 -220 OFFCURVE",
"340 -228 CURVE",
"340 -241 LINE"
);
},
{
closed = 1;
nodes = (
"173 30 OFFCURVE",
"137 130 OFFCURVE",
"137 256 CURVE SMOOTH",
"137 389 OFFCURVE",
"179 467 OFFCURVE",
"286 467 CURVE SMOOTH",
"336 467 OFFCURVE",
"390 435 OFFCURVE",
"420 394 CURVE",
"420 170 LINE SMOOTH",
"420 96 OFFCURVE",
"370 30 OFFCURVE",
"282 30 CURVE SMOOTH"
);
}
);
width = 622;
}
);
leftKerningGroup = d;
note = q;
unicode = 0071;
},
{
glyphname = r;
lastChange = "2015-10-01 17:12:29 +0000";
layers = (
{
layerId = "6933CEC8-9691-45CB-9271-BBFB30E0E1A0";
name = Regular;
paths = (
{
closed = 1;
nodes = (
"290 0 LINE",
"290 13 LINE",
"267 21 OFFCURVE",
"237 29 OFFCURVE",
"211 33 CURVE",
"211 348 LINE",
"241 401 OFFCURVE",
"291 448 OFFCURVE",
"351 448 CURVE SMOOTH",
"371 448 OFFCURVE",
"391 442 OFFCURVE",
"409 429 CURVE",
"430 484 LINE",
"401 502 OFFCURVE",
"373 507 OFFCURVE",
"339 507 CURVE SMOOTH",
"284 507 OFFCURVE",
"234 470 OFFCURVE",
"212 418 CURVE",
"208 418 LINE",
"198 507 LINE",
"31 488 LINE",
"31 480 LINE",
"53 472 OFFCURVE",
"75 467 OFFCURVE",
"100 462 CURVE",
"100 33 LINE",
"69 29 OFFCURVE",
"40 22 OFFCURVE",
"20 14 CURVE",
"20 0 LINE"
);
}
);
width = 445;
}
);
leftKerningGroup = r;
note = r;
rightKerningGroup = r;
unicode = 0072;
},
{
glyphname = s;
lastChange = "2015-10-01 17:12:29 +0000";
layers = (
{
layerId = "6933CEC8-9691-45CB-9271-BBFB30E0E1A0";
name = Regular;
paths = (
{
closed = 1;
nodes = (
"354 -10 OFFCURVE",
"446 35 OFFCURVE",
"446 135 CURVE SMOOTH",
"446 313 OFFCURVE",
"149 276 OFFCURVE",
"149 397 CURVE SMOOTH",
"149 449 OFFCURVE",
"197 468 OFFCURVE",
"258 468 CURVE SMOOTH",
"306 468 OFFCURVE",
"343 458 OFFCURVE",
"371 439 CURVE",
"371 408 OFFCURVE",
"376 370 OFFCURVE",
"384 349 CURVE",
"410 349 LINE",
"419 453 LINE",
"380 486 OFFCURVE",
"321 507 OFFCURVE",
"235 507 CURVE SMOOTH",
"131 507 OFFCURVE",
"40 468 OFFCURVE",
"40 383 CURVE SMOOTH",
"40 206 OFFCURVE",
"335 246 OFFCURVE",
"335 127 CURVE SMOOTH",
"335 66 OFFCURVE",
"285 30 OFFCURVE",
"206 30 CURVE SMOOTH",
"153 30 OFFCURVE",
"112 45 OFFCURVE",
"86 68 CURVE",
"85 98 OFFCURVE",
"79 155 OFFCURVE",
"71 177 CURVE",
"46 177 LINE",
"38 53 LINE",
"79 16 OFFCURVE",
"153 -10 OFFCURVE",
"246 -10 CURVE SMOOTH"
);
}
);
width = 481;
}
);
leftKerningGroup = s;
note = s;
rightKerningGroup = s;
unicode = 0073;
},
{
glyphname = t;
lastChange = "2015-10-01 17:12:33 +0000";
layers = (
{
layerId = "6933CEC8-9691-45CB-9271-BBFB30E0E1A0";
name = Regular;
paths = (
{
closed = 1;
nodes = (
"294 -10 OFFCURVE",
"333 -5 OFFCURVE",
"368 7 CURVE",
"361 44 LINE",
"341 37 OFFCURVE",
"319 32 OFFCURVE",
"296 32 CURVE SMOOTH",
"243 32 OFFCURVE",
"206 55 OFFCURVE",
"206 137 CURVE SMOOTH",
"206 633 LINE",
"152 633 LINE",
"146 585 OFFCURVE",
"128 554 OFFCURVE",
"95 542 CURVE",
"95 137 LINE SMOOTH",
"95 30 OFFCURVE",
"163 -10 OFFCURVE",
"256 -10 CURVE SMOOTH"
);
},
{
closed = 1;
nodes = (
"354 458 LINE",
"354 498 LINE",
"12 498 LINE",
"12 458 LINE"
);
}
);
width = 394;
}
);
leftKerningGroup = t;
note = t;
rightKerningGroup = t;
unicode = 0074;
},
{
glyphname = u;
lastChange = "2015-10-01 17:12:33 +0000";
layers = (
{
layerId = "6933CEC8-9691-45CB-9271-BBFB30E0E1A0";
name = Regular;
paths = (
{
closed = 1;
nodes = (
"351 -10 OFFCURVE",
"424 28 OFFCURVE",
"466 65 CURVE",
"466 108 LINE",
"421 61 OFFCURVE",
"348 30 OFFCURVE",
"300 30 CURVE SMOOTH",
"243 30 OFFCURVE",
"200 57 OFFCURVE",
"200 139 CURVE SMOOTH",
"200 507 LINE",
"20 489 LINE",
"20 480 LINE",
"42 472 OFFCURVE",
"64 467 OFFCURVE",
"89 462 CURVE",
"89 129 LINE SMOOTH",
"89 42 OFFCURVE",
"159 -10 OFFCURVE",
"270 -10 CURVE SMOOTH"
);
},
{
closed = 1;
nodes = (
"631 8 LINE",
"631 17 LINE",
"608 24 OFFCURVE",
"586 30 OFFCURVE",
"561 34 CURVE",
"561 507 LINE",
"382 489 LINE",
"382 480 LINE",
"404 472 OFFCURVE",
"425 467 OFFCURVE",
"450 462 CURVE",
"450 -10 LINE"
);
}
);
width = 651;
}
);
leftKerningGroup = u;
note = u;
unicode = 0075;
},
{
glyphname = v;
lastChange = "2015-10-27 09:11:55 +0000";
layers = (
{
layerId = "6933CEC8-9691-45CB-9271-BBFB30E0E1A0";
name = Regular;
paths = (
{
closed = 1;
nodes = (
"329 0 LINE",
"507 467 LINE",
"530 471 OFFCURVE",
"556 478 OFFCURVE",
"573 486 CURVE",
"573 498 LINE",
"373 498 LINE",
"373 484 LINE",
"391 477 OFFCURVE",
"420 471 OFFCURVE",
"447 467 CURVE",
"306 85 LINE",
"181 466 LINE",
"204 469 OFFCURVE",
"244 477 OFFCURVE",
"258 486 CURVE",
"258 498 LINE",
"8 498 LINE",
"8 485 LINE",
"30 476 OFFCURVE",
"52 471 OFFCURVE",
"74 467 CURVE",
"239 0 LINE"
);
}
);
width = 581;
}
);
note = v;
unicode = 0076;
},
{
glyphname = w;
lastChange = "2015-10-01 17:12:29 +0000";
layers = (
{
layerId = "6933CEC8-9691-45CB-9271-BBFB30E0E1A0";
name = Regular;
paths = (
{
closed = 1;
nodes = (
"280 0 LINE",
"403 351 LINE",
"522 0 LINE",
"601 0 LINE",
"729 467 LINE",
"751 471 OFFCURVE",
"772 476 OFFCURVE",
"797 485 CURVE",
"797 498 LINE",
"595 498 LINE",
"595 485 LINE",
"618 477 OFFCURVE",
"642 470 OFFCURVE",
"670 465 CURVE",
"573 97 LINE",
"453 449 LINE",
"391 449 LINE",
"275 120 LINE",
"185 465 LINE",
"222 469 OFFCURVE",
"241 478 OFFCURVE",
"260 484 CURVE",
"260 498 LINE",
"8 498 LINE",
"8 483 LINE",
"27 475 OFFCURVE",
"54 471 OFFCURVE",
"76 467 CURVE",
"204 0 LINE"
);
}
);
width = 805;
}
);
leftKerningGroup = w;
note = w;
rightKerningGroup = w;
unicode = 0077;
},
{
glyphname = x;
lastChange = "2015-10-01 17:12:31 +0000";
layers = (
{
layerId = "6933CEC8-9691-45CB-9271-BBFB30E0E1A0";
name = Regular;
paths = (
{
closed = 1;
nodes = (
"591 0 LINE",
"591 13 LINE",
"567 21 OFFCURVE",
"542 27 OFFCURVE",
"518 31 CURVE",
"197 465 LINE",
"210 467 OFFCURVE",
"232 472 OFFCURVE",
"267 484 CURVE",
"267 498 LINE",
"18 498 LINE",
"18 486 LINE",
"38 477 OFFCURVE",
"64 470 OFFCURVE",
"88 466 CURVE",
"410 32 LINE",
"386 29 OFFCURVE",
"357 20 OFFCURVE",
"339 14 CURVE",
"339 0 LINE"
);
},
{
closed = 1;
nodes = (
"210 0 LINE",
"210 14 LINE",
"187 21 OFFCURVE",
"165 27 OFFCURVE",
"135 32 CURVE",
"504 466 LINE",
"527 469 OFFCURVE",
"555 475 OFFCURVE",
"578 485 CURVE",
"578 498 LINE",
"373 498 LINE",
"373 485 LINE",
"392 477 OFFCURVE",
"425 470 OFFCURVE",
"446 466 CURVE",
"77 31 LINE",
"55 28 OFFCURVE",
"34 23 OFFCURVE",
"5 12 CURVE",
"5 0 LINE"
);
}
);
width = 596;
}
);
note = x;
unicode = 0078;
},
{
glyphname = y;
lastChange = "2015-10-27 09:12:01 +0000";
layers = (
{
layerId = "6933CEC8-9691-45CB-9271-BBFB30E0E1A0";
name = Regular;
paths = (
{
closed = 1;
nodes = (
"245 -192 OFFCURVE",
"275 -143 OFFCURVE",
"311 -49 CURVE SMOOTH",
"377 122 OFFCURVE",
"442 295 OFFCURVE",
"507 467 CURVE",
"529 471 OFFCURVE",
"551 476 OFFCURVE",
"576 486 CURVE",
"576 498 LINE",
"371 498 LINE",
"371 484 LINE",
"398 476 OFFCURVE",
"422 471 OFFCURVE",
"446 469 CURVE",
"259 -25 LINE SMOOTH",
"224 -118 OFFCURVE",
"201 -136 OFFCURVE",
"148 -136 CURVE SMOOTH",
"126 -136 OFFCURVE",
"95 -129 OFFCURVE",
"69 -119 CURVE",
"51 -171 LINE",
"86 -186 OFFCURVE",
"120 -192 OFFCURVE",
"151 -192 CURVE SMOOTH"
);
},
{
closed = 1;
nodes = (
"319 101 LINE",
"175 467 LINE",
"209 472 OFFCURVE",
"237 477 OFFCURVE",
"255 484 CURVE",
"255 498 LINE",
"4 498 LINE",
"4 485 LINE",
"24 476 OFFCURVE",
"48 471 OFFCURVE",
"70 468 CURVE",
"275 -8 LINE"
);
}
);
width = 580;
}
);
leftKerningGroup = y;
note = y;
rightKerningGroup = y;
unicode = 0079;
},
{
glyphname = z;
lastChange = "2015-10-01 17:12:29 +0000";
layers = (
{
layerId = "6933CEC8-9691-45CB-9271-BBFB30E0E1A0";
name = Regular;
paths = (
{
closed = 1;
nodes = (
"441 0 LINE",
"452 128 LINE",
"418 128 LINE",
"408 108 OFFCURVE",
"393 63 OFFCURVE",
"388 39 CURVE",
"139 39 LINE",
"463 470 LINE",
"463 498 LINE",
"55 498 LINE",
"55 369 LINE",
"86 369 LINE",
"99 395 OFFCURVE",
"105 437 OFFCURVE",
"108 458 CURVE",
"348 458 LINE",
"21 22 LINE",
"21 0 LINE"
);
}
);
width = 484;
}
);
leftKerningGroup = z;
note = z;
unicode = 007A;
},
{
glyphname = braceleft;
lastChange = "2015-10-01 17:12:30 +0000";
layers = (
{
layerId = "6933CEC8-9691-45CB-9271-BBFB30E0E1A0";
name = Regular;
paths = (
{
closed = 1;
nodes = (
"353 -83 LINE",
"280 -81 OFFCURVE",
"233 -69 OFFCURVE",
"233 17 CURVE SMOOTH",
"233 189 LINE SMOOTH",
"233 248 OFFCURVE",
"190 281 OFFCURVE",
"125 295 CURVE",
"192 306 OFFCURVE",
"233 341 OFFCURVE",
"233 399 CURVE SMOOTH",
"233 571 LINE SMOOTH",
"233 657 OFFCURVE",
"280 669 OFFCURVE",
"353 672 CURVE",
"353 710 LINE",
"167 710 OFFCURVE",
"137 667 OFFCURVE",
"137 563 CURVE SMOOTH",
"137 403 LINE SMOOTH",
"137 349 OFFCURVE",
"111 324 OFFCURVE",
"29 323 CURVE",
"29 266 LINE",
"122 265 OFFCURVE",
"137 233 OFFCURVE",
"137 165 CURVE SMOOTH",
"137 45 LINE SMOOTH",
"137 -73 OFFCURVE",
"157 -122 OFFCURVE",
"353 -122 CURVE"
);
}
);
width = 390;
}
);
note = braceleft;
unicode = 007B;
},
{
glyphname = bar;
lastChange = "2015-10-01 17:12:30 +0000";
layers = (
{
layerId = "6933CEC8-9691-45CB-9271-BBFB30E0E1A0";
name = Regular;
paths = (
{
closed = 1;
nodes = (
"271 -197 LINE",
"271 753 LINE",
"181 753 LINE",
"181 -197 LINE"
);
}
);
width = 452;
}
);
note = bar;
unicode = 007C;
},
{
glyphname = braceright;
lastChange = "2015-10-01 17:12:30 +0000";
layers = (
{
layerId = "6933CEC8-9691-45CB-9271-BBFB30E0E1A0";
name = Regular;
paths = (
{
closed = 1;
nodes = (
"223 -122 OFFCURVE",
"253 -79 OFFCURVE",
"253 25 CURVE SMOOTH",
"253 165 LINE SMOOTH",
"253 233 OFFCURVE",
"267 265 OFFCURVE",
"361 266 CURVE",
"361 323 LINE",
"267 324 OFFCURVE",
"253 355 OFFCURVE",
"253 423 CURVE SMOOTH",
"253 563 LINE SMOOTH",
"253 667 OFFCURVE",
"223 710 OFFCURVE",
"37 710 CURVE",
"37 672 LINE",
"110 669 OFFCURVE",
"157 657 OFFCURVE",
"157 571 CURVE SMOOTH",
"157 399 LINE SMOOTH",
"157 341 OFFCURVE",
"198 306 OFFCURVE",
"265 295 CURVE",
"200 281 OFFCURVE",
"157 248 OFFCURVE",
"157 189 CURVE SMOOTH",
"157 17 LINE SMOOTH",
"157 -69 OFFCURVE",
"110 -81 OFFCURVE",
"37 -83 CURVE",
"37 -122 LINE"
);
}
);
width = 390;
}
);
note = braceright;
unicode = 007D;
},
{
glyphname = asciitilde;
lastChange = "2015-10-01 17:12:30 +0000";
layers = (
{
layerId = "6933CEC8-9691-45CB-9271-BBFB30E0E1A0";
name = Regular;
paths = (
{
closed = 1;
nodes = (
"91 284 OFFCURVE",
"133 309 OFFCURVE",
"172 309 CURVE SMOOTH",
"251 309 OFFCURVE",
"333 252 OFFCURVE",
"426 252 CURVE SMOOTH",
"469 252 OFFCURVE",
"509 270 OFFCURVE",
"537 303 CURVE",
"537 361 LINE",
"504 325 OFFCURVE",
"471 305 OFFCURVE",
"428 305 CURVE SMOOTH",
"343 305 OFFCURVE",
"258 362 OFFCURVE",
"176 362 CURVE SMOOTH",
"131 362 OFFCURVE",
"87 337 OFFCURVE",
"59 307 CURVE",
"59 251 LINE"
);
}
);
width = 596;
}
);
note = asciitilde;
unicode = 007E;
},
{
glyphname = Agrave;
lastChange = "2015-10-01 17:12:32 +0000";
layers = (
{
layerId = "6933CEC8-9691-45CB-9271-BBFB30E0E1A0";
name = Regular;
paths = (
{
closed = 1;
nodes = (
"230 0 LINE",
"230 13 LINE",
"206 22 OFFCURVE",
"181 29 OFFCURVE",
"147 33 CURVE",
"347 590 LINE",
"544 34 LINE",
"518 31 OFFCURVE",
"492 26 OFFCURVE",
"463 15 CURVE",
"463 0 LINE",
"734 0 LINE",
"734 14 LINE",
"709 23 OFFCURVE",
"682 30 OFFCURVE",
"656 34 CURVE",
"410 704 LINE",
"331 704 LINE",
"85 36 LINE",
"70 34 OFFCURVE",
"32 25 OFFCURVE",
"7 16 CURVE",
"7 0 LINE"
);
},
{
closed = 1;
nodes = (
"523 181 LINE",
"523 221 LINE",
"180 221 LINE",
"180 181 LINE"
);
},
{
closed = 1;
nodes = (
"447 813 LINE",
"329 927 LINE SMOOTH",
"321 935 OFFCURVE",
"303 953 OFFCURVE",
"279 953 CURVE SMOOTH",
"253 953 OFFCURVE",
"241 936 OFFCURVE",
"241 921 CURVE SMOOTH",
"241 902 OFFCURVE",
"255 887 OFFCURVE",
"280 872 CURVE SMOOTH",
"428 786 LINE"
);
}
);
width = 741;
}
);
leftKerningGroup = A;
note = Agrave;
rightKerningGroup = A;
unicode = 00C0;
},
{
glyphname = Aacute;
lastChange = "2015-10-01 17:12:32 +0000";
layers = (
{
layerId = "6933CEC8-9691-45CB-9271-BBFB30E0E1A0";
name = Regular;
paths = (
{
closed = 1;
nodes = (
"230 0 LINE",
"230 13 LINE",
"206 22 OFFCURVE",
"181 29 OFFCURVE",
"147 33 CURVE",
"347 590 LINE",
"544 34 LINE",
"518 31 OFFCURVE",
"492 26 OFFCURVE",
"463 15 CURVE",
"463 0 LINE",
"734 0 LINE",
"734 14 LINE",
"709 23 OFFCURVE",
"682 30 OFFCURVE",
"656 34 CURVE",
"410 704 LINE",
"331 704 LINE",
"85 36 LINE",
"70 34 OFFCURVE",
"32 25 OFFCURVE",
"7 16 CURVE",
"7 0 LINE"
);
},
{
closed = 1;
nodes = (
"523 181 LINE",
"523 221 LINE",
"180 221 LINE",
"180 181 LINE"
);
},
{
closed = 1;
nodes = (
"466 872 LINE SMOOTH",
"491 887 OFFCURVE",
"504 902 OFFCURVE",
"504 921 CURVE SMOOTH",
"504 936 OFFCURVE",
"492 953 OFFCURVE",
"467 953 CURVE SMOOTH",
"441 953 OFFCURVE",
"422 933 OFFCURVE",
"416 926 CURVE",
"299 813 LINE",
"318 786 LINE"
);
}
);
width = 741;
}
);
leftKerningGroup = A;
note = Aacute;
rightKerningGroup = A;
unicode = 00C1;
},
{
glyphname = Acircumflex;
lastChange = "2015-10-01 17:12:33 +0000";
layers = (
{
layerId = "6933CEC8-9691-45CB-9271-BBFB30E0E1A0";
name = Regular;
paths = (
{
closed = 1;
nodes = (
"230 0 LINE",
"230 13 LINE",
"206 22 OFFCURVE",
"181 29 OFFCURVE",
"147 33 CURVE",
"347 590 LINE",
"544 34 LINE",
"518 31 OFFCURVE",
"492 26 OFFCURVE",
"463 15 CURVE",
"463 0 LINE",
"734 0 LINE",
"734 14 LINE",
"709 23 OFFCURVE",
"682 30 OFFCURVE",
"656 34 CURVE",
"410 704 LINE",
"331 704 LINE",
"85 36 LINE",
"70 34 OFFCURVE",
"32 25 OFFCURVE",
"7 16 CURVE",
"7 0 LINE"
);
},
{
closed = 1;
nodes = (
"523 181 LINE",
"523 221 LINE",
"180 221 LINE",
"180 181 LINE"
);
},
{
closed = 1;
nodes = (
"290 811 OFFCURVE",
"343 861 OFFCURVE",
"368 897 CURVE",
"373 897 LINE",
"398 861 OFFCURVE",
"451 811 OFFCURVE",
"490 781 CURVE",
"536 818 LINE",
"494 845 OFFCURVE",
"424 908 OFFCURVE",
"397 947 CURVE",
"344 947 LINE",
"317 908 OFFCURVE",
"247 845 OFFCURVE",
"205 818 CURVE",
"251 781 LINE"
);
}
);
width = 741;
}
);
leftKerningGroup = A;
note = Acircumflex;
rightKerningGroup = A;
unicode = 00C2;
},
{
glyphname = Atilde;
lastChange = "2015-10-01 17:12:33 +0000";
layers = (
{
layerId = "6933CEC8-9691-45CB-9271-BBFB30E0E1A0";
name = Regular;
paths = (
{
closed = 1;
nodes = (
"230 0 LINE",
"230 13 LINE",
"206 22 OFFCURVE",
"181 29 OFFCURVE",
"147 33 CURVE",
"347 590 LINE",
"544 34 LINE",
"518 31 OFFCURVE",
"492 26 OFFCURVE",
"463 15 CURVE",
"463 0 LINE",
"734 0 LINE",
"734 14 LINE",
"709 23 OFFCURVE",
"682 30 OFFCURVE",
"656 34 CURVE",
"410 704 LINE",
"331 704 LINE",
"85 36 LINE",
"70 34 OFFCURVE",
"32 25 OFFCURVE",
"7 16 CURVE",
"7 0 LINE"
);
},
{
closed = 1;
nodes = (
"523 181 LINE",
"523 221 LINE",
"180 221 LINE",
"180 181 LINE"
);
},
{
closed = 1;
nodes = (
"228 786 LINE",
"235 820 OFFCURVE",
"261 842 OFFCURVE",
"291 842 CURVE SMOOTH",
"330 842 OFFCURVE",
"390 787 OFFCURVE",
"443 787 CURVE SMOOTH",
"508 787 OFFCURVE",
"541 830 OFFCURVE",
"549 896 CURVE",
"511 896 LINE",
"501 852 OFFCURVE",
"472 838 OFFCURVE",
"444 838 CURVE SMOOTH",
"403 838 OFFCURVE",
"356 892 OFFCURVE",
"294 892 CURVE SMOOTH",
"236 892 OFFCURVE",
"198 858 OFFCURVE",
"188 786 CURVE"
);
}
);
width = 741;
}
);
leftKerningGroup = A;
note = Atilde;
rightKerningGroup = A;
unicode = 00C3;
},
{
glyphname = Adieresis;
lastChange = "2015-10-01 17:12:33 +0000";
layers = (
{
layerId = "6933CEC8-9691-45CB-9271-BBFB30E0E1A0";
name = Regular;
paths = (
{
closed = 1;
nodes = (
"230 0 LINE",
"230 13 LINE",
"206 22 OFFCURVE",
"181 29 OFFCURVE",
"147 33 CURVE",
"347 590 LINE",
"544 34 LINE",
"518 31 OFFCURVE",
"492 26 OFFCURVE",
"463 15 CURVE",
"463 0 LINE",
"734 0 LINE",
"734 14 LINE",
"709 23 OFFCURVE",
"682 30 OFFCURVE",
"656 34 CURVE",
"410 704 LINE",
"331 704 LINE",
"85 36 LINE",
"70 34 OFFCURVE",
"32 25 OFFCURVE",
"7 16 CURVE",
"7 0 LINE"
);
},
{
closed = 1;
nodes = (
"523 181 LINE",
"523 221 LINE",
"180 221 LINE",
"180 181 LINE"
);
},
{
closed = 1;
nodes = (
"277 785 OFFCURVE",
"297 807 OFFCURVE",
"297 836 CURVE SMOOTH",
"297 866 OFFCURVE",
"277 888 OFFCURVE",
"246 888 CURVE SMOOTH",
"216 888 OFFCURVE",
"196 866 OFFCURVE",
"196 836 CURVE SMOOTH",
"196 807 OFFCURVE",
"216 785 OFFCURVE",
"246 785 CURVE SMOOTH"
);
},
{
closed = 1;
nodes = (
"503 785 OFFCURVE",
"523 807 OFFCURVE",
"523 836 CURVE SMOOTH",
"523 866 OFFCURVE",
"503 888 OFFCURVE",
"473 888 CURVE SMOOTH",
"442 888 OFFCURVE",
"423 866 OFFCURVE",
"423 836 CURVE SMOOTH",
"423 807 OFFCURVE",
"442 785 OFFCURVE",
"473 785 CURVE SMOOTH"
);
}
);
width = 741;
}
);
leftKerningGroup = A;
note = Adieresis;
rightKerningGroup = A;
unicode = 00C4;
},
{
glyphname = Amacron;
lastChange = "2015-10-01 17:12:32 +0000";
layers = (
{
layerId = "6933CEC8-9691-45CB-9271-BBFB30E0E1A0";
name = Regular;
paths = (
{
closed = 1;
nodes = (
"230 0 LINE",
"230 13 LINE",
"206 22 OFFCURVE",
"181 29 OFFCURVE",
"147 33 CURVE",
"347 590 LINE",
"544 34 LINE",
"518 31 OFFCURVE",
"492 26 OFFCURVE",
"463 15 CURVE",
"463 0 LINE",
"734 0 LINE",
"734 14 LINE",
"709 23 OFFCURVE",
"682 30 OFFCURVE",
"656 34 CURVE",
"410 704 LINE",
"331 704 LINE",
"85 36 LINE",
"70 34 OFFCURVE",
"32 25 OFFCURVE",
"7 16 CURVE",
"7 0 LINE"
);
},
{
closed = 1;
nodes = (
"523 181 LINE",
"523 221 LINE",
"180 221 LINE",
"180 181 LINE"
);
},
{
closed = 1;
nodes = (
"548 785 LINE",
"548 825 LINE",
"196 825 LINE",
"196 785 LINE"
);
}
);
width = 741;
}
);
leftKerningGroup = A;
note = Amacron;
rightKerningGroup = A;
unicode = 0100;
},
{
glyphname = Abreve;
lastChange = "2015-10-01 17:12:31 +0000";
layers = (
{
layerId = "6933CEC8-9691-45CB-9271-BBFB30E0E1A0";
name = Regular;
paths = (
{
closed = 1;
nodes = (
"230 0 LINE",
"230 13 LINE",
"206 22 OFFCURVE",
"181 29 OFFCURVE",
"147 33 CURVE",
"347 590 LINE",
"544 34 LINE",
"518 31 OFFCURVE",
"492 26 OFFCURVE",
"463 15 CURVE",
"463 0 LINE",
"734 0 LINE",
"734 14 LINE",
"709 23 OFFCURVE",
"682 30 OFFCURVE",
"656 34 CURVE",
"410 704 LINE",
"331 704 LINE",
"85 36 LINE",
"70 34 OFFCURVE",
"32 25 OFFCURVE",
"7 16 CURVE",
"7 0 LINE"
);
},
{
closed = 1;
nodes = (
"523 181 LINE",
"523 221 LINE",
"180 221 LINE",
"180 181 LINE"
);
},
{
closed = 1;
nodes = (
"459 778 OFFCURVE",
"522 818 OFFCURVE",
"534 905 CURVE",
"468 905 LINE",
"460 830 OFFCURVE",
"411 820 OFFCURVE",
"370 820 CURVE SMOOTH",
"329 820 OFFCURVE",
"280 830 OFFCURVE",
"272 905 CURVE",
"206 905 LINE",
"218 818 OFFCURVE",
"281 778 OFFCURVE",
"370 778 CURVE SMOOTH"
);
}
);
width = 741;
}
);
leftKerningGroup = A;
note = Abreve;
rightKerningGroup = A;
unicode = 0102;
},
{
glyphname = Aring;
lastChange = "2015-10-01 17:12:33 +0000";
layers = (
{
layerId = "6933CEC8-9691-45CB-9271-BBFB30E0E1A0";
name = Regular;
paths = (
{
closed = 1;
nodes = (
"230 0 LINE",
"230 13 LINE",
"206 22 OFFCURVE",
"181 29 OFFCURVE",
"147 33 CURVE",
"347 590 LINE",
"544 34 LINE",
"518 31 OFFCURVE",
"492 26 OFFCURVE",
"463 15 CURVE",
"463 0 LINE",
"734 0 LINE",
"734 14 LINE",
"709 23 OFFCURVE",
"682 30 OFFCURVE",
"656 34 CURVE",
"410 704 LINE",
"331 704 LINE",
"85 36 LINE",
"70 34 OFFCURVE",
"32 25 OFFCURVE",
"7 16 CURVE",
"7 0 LINE"
);
},
{
closed = 1;
nodes = (
"523 181 LINE",
"523 221 LINE",
"180 221 LINE",
"180 181 LINE"
);
},
{
closed = 1;
nodes = (
"428 742 OFFCURVE",
"468 779 OFFCURVE",
"468 834 CURVE SMOOTH",
"468 889 OFFCURVE",
"428 927 OFFCURVE",
"370 927 CURVE SMOOTH",
"312 927 OFFCURVE",
"272 889 OFFCURVE",
"272 834 CURVE SMOOTH",
"272 779 OFFCURVE",
"312 742 OFFCURVE",
"370 742 CURVE SMOOTH"
);
},
{
closed = 1;
nodes = (
"337 778 OFFCURVE",
"312 800 OFFCURVE",
"312 834 CURVE SMOOTH",
"312 868 OFFCURVE",
"337 890 OFFCURVE",
"370 890 CURVE SMOOTH",
"403 890 OFFCURVE",
"427 868 OFFCURVE",
"427 834 CURVE SMOOTH",
"427 800 OFFCURVE",
"403 778 OFFCURVE",
"370 778 CURVE SMOOTH"
);
}
);
width = 741;
}
);
leftKerningGroup = A;
note = Aring;
rightKerningGroup = A;
unicode = 00C5;
},
{
glyphname = Aringacute;
lastChange = "2015-10-01 17:12:32 +0000";
layers = (
{
layerId = "6933CEC8-9691-45CB-9271-BBFB30E0E1A0";
name = Regular;
paths = (
{
closed = 1;
nodes = (
"230 0 LINE",
"230 13 LINE",
"206 22 OFFCURVE",
"181 29 OFFCURVE",
"147 33 CURVE",
"347 590 LINE",
"544 34 LINE",
"518 31 OFFCURVE",
"492 26 OFFCURVE",
"463 15 CURVE",
"463 0 LINE",
"734 0 LINE",
"734 14 LINE",
"709 23 OFFCURVE",
"682 30 OFFCURVE",
"656 34 CURVE",
"410 704 LINE",
"331 704 LINE",
"85 36 LINE",
"70 34 OFFCURVE",
"32 25 OFFCURVE",
"7 16 CURVE",
"7 0 LINE"
);
},
{
closed = 1;
nodes = (
"523 181 LINE",
"523 221 LINE",
"180 221 LINE",
"180 181 LINE"
);
},
{
closed = 1;
nodes = (
"428 740 OFFCURVE",
"468 777 OFFCURVE",
"468 832 CURVE SMOOTH",
"468 887 OFFCURVE",
"428 925 OFFCURVE",
"370 925 CURVE SMOOTH",
"312 925 OFFCURVE",
"272 887 OFFCURVE",
"272 832 CURVE SMOOTH",
"272 777 OFFCURVE",
"312 740 OFFCURVE",
"370 740 CURVE SMOOTH"
);
},
{
closed = 1;
nodes = (
"337 776 OFFCURVE",
"312 798 OFFCURVE",
"312 832 CURVE SMOOTH",
"312 866 OFFCURVE",
"337 888 OFFCURVE",
"370 888 CURVE SMOOTH",
"403 888 OFFCURVE",
"427 866 OFFCURVE",
"427 832 CURVE SMOOTH",
"427 798 OFFCURVE",
"403 776 OFFCURVE",
"370 776 CURVE SMOOTH"
);
},
{
closed = 1;
nodes = (
"464 1036 LINE SMOOTH",
"489 1051 OFFCURVE",
"502 1066 OFFCURVE",
"502 1085 CURVE SMOOTH",
"502 1100 OFFCURVE",
"490 1117 OFFCURVE",
"465 1117 CURVE SMOOTH",
"439 1117 OFFCURVE",
"420 1097 OFFCURVE",
"414 1090 CURVE",
"297 977 LINE",
"316 950 LINE"
);
}
);
width = 741;
}
);
leftKerningGroup = A;
note = Aringacute;
rightKerningGroup = A;
unicode = 01FA;
},
{
glyphname = Aogonek;
lastChange = "2015-10-01 17:12:32 +0000";
layers = (
{
layerId = "6933CEC8-9691-45CB-9271-BBFB30E0E1A0";
name = Regular;
paths = (
{
closed = 1;
nodes = (
"230 0 LINE",
"230 13 LINE",
"206 22 OFFCURVE",
"181 29 OFFCURVE",
"147 33 CURVE",
"347 590 LINE",
"544 34 LINE",
"518 31 OFFCURVE",
"492 26 OFFCURVE",
"463 15 CURVE",
"463 0 LINE",
"734 0 LINE",
"734 14 LINE",
"709 23 OFFCURVE",
"682 30 OFFCURVE",
"656 34 CURVE",
"410 704 LINE",
"331 704 LINE",
"85 36 LINE",
"70 34 OFFCURVE",
"32 25 OFFCURVE",
"7 16 CURVE",
"7 0 LINE"
);
},
{
closed = 1;
nodes = (
"523 181 LINE",
"523 221 LINE",
"180 221 LINE",
"180 181 LINE"
);
},
{
closed = 1;
nodes = (
"733 -193 OFFCURVE",
"766 -186 OFFCURVE",
"790 -173 CURVE",
"790 -125 LINE",
"769 -136 OFFCURVE",
"749 -141 OFFCURVE",
"732 -141 CURVE SMOOTH",
"696 -141 OFFCURVE",
"670 -123 OFFCURVE",
"670 -90 CURVE SMOOTH",
"670 -55 OFFCURVE",
"698 -19 OFFCURVE",
"729 0 CURVE",
"672 0 LINE",
"617 -19 OFFCURVE",
"585 -65 OFFCURVE",
"585 -110 CURVE SMOOTH",
"585 -156 OFFCURVE",
"624 -193 OFFCURVE",
"697 -193 CURVE SMOOTH"
);
}
);
width = 741;
}
);
leftKerningGroup = A;
note = Aogonek;
rightKerningGroup = A;
unicode = 0104;
},
{
glyphname = AE;
lastChange = "2015-10-01 17:12:31 +0000";
layers = (
{
layerId = "6933CEC8-9691-45CB-9271-BBFB30E0E1A0";
name = Regular;
paths = (
{
closed = 1;
nodes = (
"235 0 LINE",
"235 13 LINE",
"212 22 OFFCURVE",
"183 29 OFFCURVE",
"149 33 CURVE",
"236 181 LINE",
"502 181 LINE",
"502 33 LINE",
"469 29 OFFCURVE",
"442 22 OFFCURVE",
"418 14 CURVE",
"418 0 LINE",
"949 0 LINE",
"965 155 LINE",
"939 155 LINE",
"925 135 OFFCURVE",
"900 72 OFFCURVE",
"897 40 CURVE",
"615 40 LINE",
"615 339 LINE",
"813 339 LINE",
"815 322 OFFCURVE",
"822 282 OFFCURVE",
"832 255 CURVE",
"851 255 LINE",
"851 464 LINE",
"832 464 LINE",
"822 438 OFFCURVE",
"815 398 OFFCURVE",
"813 380 CURVE",
"615 380 LINE",
"615 659 LINE",
"893 659 LINE",
"895 631 OFFCURVE",
"912 565 OFFCURVE",
"924 544 CURVE",
"950 544 LINE",
"950 700 LINE",
"415 700 LINE",
"415 686 LINE",
"431 679 OFFCURVE",
"448 676 OFFCURVE",
"465 672 CURVE",
"82 35 LINE",
"56 30 OFFCURVE",
"33 24 OFFCURVE",
"7 14 CURVE",
"7 0 LINE"
);
},
{
closed = 1;
nodes = (
"502 632 LINE",
"502 221 LINE",
"260 221 LINE"
);
}
);
width = 1010;
}
);
leftKerningGroup = A;
note = AE;
unicode = 00C6;
},
{
glyphname = AEacute;
lastChange = "2015-10-01 17:12:31 +0000";
layers = (
{
layerId = "6933CEC8-9691-45CB-9271-BBFB30E0E1A0";
name = Regular;
paths = (
{
closed = 1;
nodes = (
"235 0 LINE",
"235 13 LINE",
"212 22 OFFCURVE",
"183 29 OFFCURVE",
"149 33 CURVE",
"236 181 LINE",
"502 181 LINE",
"502 33 LINE",
"469 29 OFFCURVE",
"442 22 OFFCURVE",
"418 14 CURVE",
"418 0 LINE",
"949 0 LINE",
"965 155 LINE",
"939 155 LINE",
"925 135 OFFCURVE",
"900 72 OFFCURVE",
"897 40 CURVE",
"615 40 LINE",
"615 339 LINE",
"813 339 LINE",
"815 322 OFFCURVE",
"822 282 OFFCURVE",
"832 255 CURVE",
"851 255 LINE",
"851 464 LINE",
"832 464 LINE",
"822 438 OFFCURVE",
"815 398 OFFCURVE",
"813 380 CURVE",
"615 380 LINE",
"615 659 LINE",
"893 659 LINE",
"895 631 OFFCURVE",
"912 565 OFFCURVE",
"924 544 CURVE",
"950 544 LINE",
"950 700 LINE",
"415 700 LINE",
"415 686 LINE",
"431 679 OFFCURVE",
"448 676 OFFCURVE",
"465 672 CURVE",
"82 35 LINE",
"56 30 OFFCURVE",
"33 24 OFFCURVE",
"7 14 CURVE",
"7 0 LINE"
);
},
{
closed = 1;
nodes = (
"502 632 LINE",
"502 221 LINE",
"260 221 LINE"
);
},
{
closed = 1;
nodes = (
"778 872 LINE SMOOTH",
"803 887 OFFCURVE",
"816 902 OFFCURVE",
"816 921 CURVE SMOOTH",
"816 936 OFFCURVE",
"804 953 OFFCURVE",
"779 953 CURVE SMOOTH",
"753 953 OFFCURVE",
"734 933 OFFCURVE",
"728 926 CURVE",
"611 813 LINE",
"630 786 LINE"
);
}
);
width = 1010;
}
);
leftKerningGroup = A;
note = AEacute;
unicode = 01FC;
},
{
glyphname = Cacute;
lastChange = "2015-10-01 17:12:32 +0000";
layers = (
{
layerId = "6933CEC8-9691-45CB-9271-BBFB30E0E1A0";
name = Regular;
paths = (
{
closed = 1;
nodes = (
"462 -10 OFFCURVE",
"539 14 OFFCURVE",
"588 57 CURVE",
"572 89 LINE",
"513 49 OFFCURVE",
"441 32 OFFCURVE",
"393 32 CURVE SMOOTH",
"229 32 OFFCURVE",
"161 162 OFFCURVE",
"161 350 CURVE SMOOTH",
"161 538 OFFCURVE",
"240 668 OFFCURVE",
"402 668 CURVE SMOOTH",
"454 668 OFFCURVE",
"499 652 OFFCURVE",
"531 627 CURVE",
"534 589 OFFCURVE",
"542 537 OFFCURVE",
"552 508 CURVE",
"580 508 LINE",
"591 638 LINE",
"543 682 OFFCURVE",
"475 710 OFFCURVE",
"373 710 CURVE SMOOTH",
"160 710 OFFCURVE",
"45 572 OFFCURVE",
"45 350 CURVE SMOOTH",
"45 127 OFFCURVE",
"155 -10 OFFCURVE",
"375 -10 CURVE SMOOTH"
);
},
{
closed = 1;
nodes = (
"470 872 LINE SMOOTH",
"495 887 OFFCURVE",
"508 902 OFFCURVE",
"508 921 CURVE SMOOTH",
"508 936 OFFCURVE",
"496 953 OFFCURVE",
"471 953 CURVE SMOOTH",
"445 953 OFFCURVE",
"426 933 OFFCURVE",
"420 926 CURVE",
"303 813 LINE",
"322 786 LINE"
);
}
);
width = 634;
}
);
leftKerningGroup = C;
note = Cacute;
unicode = 0106;
},
{
glyphname = Ccircumflex;
lastChange = "2015-10-01 17:12:32 +0000";
layers = (
{
layerId = "6933CEC8-9691-45CB-9271-BBFB30E0E1A0";
name = Regular;
paths = (
{
closed = 1;
nodes = (
"462 -10 OFFCURVE",
"539 14 OFFCURVE",
"588 57 CURVE",
"572 89 LINE",
"513 49 OFFCURVE",
"441 32 OFFCURVE",
"393 32 CURVE SMOOTH",
"229 32 OFFCURVE",
"161 162 OFFCURVE",
"161 350 CURVE SMOOTH",
"161 538 OFFCURVE",
"240 668 OFFCURVE",
"402 668 CURVE SMOOTH",
"454 668 OFFCURVE",
"499 652 OFFCURVE",
"531 627 CURVE",
"534 589 OFFCURVE",
"542 537 OFFCURVE",
"552 508 CURVE",
"580 508 LINE",
"591 638 LINE",
"543 682 OFFCURVE",
"475 710 OFFCURVE",
"373 710 CURVE SMOOTH",
"160 710 OFFCURVE",
"45 572 OFFCURVE",
"45 350 CURVE SMOOTH",
"45 127 OFFCURVE",
"155 -10 OFFCURVE",
"375 -10 CURVE SMOOTH"
);
},
{
closed = 1;
nodes = (
"303 811 OFFCURVE",
"356 861 OFFCURVE",
"381 897 CURVE",
"386 897 LINE",
"411 861 OFFCURVE",
"464 811 OFFCURVE",
"503 781 CURVE",
"549 818 LINE",
"507 845 OFFCURVE",
"437 908 OFFCURVE",
"410 947 CURVE",
"357 947 LINE",
"330 908 OFFCURVE",
"260 845 OFFCURVE",
"218 818 CURVE",
"264 781 LINE"
);
}
);
width = 634;
}
);
leftKerningGroup = C;
note = Ccircumflex;
unicode = 0108;
},
{
glyphname = Ccaron;
lastChange = "2015-10-01 17:12:33 +0000";
layers = (
{
layerId = "6933CEC8-9691-45CB-9271-BBFB30E0E1A0";
name = Regular;
paths = (
{
closed = 1;
nodes = (
"462 -10 OFFCURVE",
"539 14 OFFCURVE",
"588 57 CURVE",
"572 89 LINE",
"513 49 OFFCURVE",
"441 32 OFFCURVE",
"393 32 CURVE SMOOTH",
"229 32 OFFCURVE",
"161 162 OFFCURVE",
"161 350 CURVE SMOOTH",
"161 538 OFFCURVE",
"240 668 OFFCURVE",
"402 668 CURVE SMOOTH",
"454 668 OFFCURVE",
"499 652 OFFCURVE",
"531 627 CURVE",
"534 589 OFFCURVE",
"542 537 OFFCURVE",
"552 508 CURVE",
"580 508 LINE",
"591 638 LINE",
"543 682 OFFCURVE",
"475 710 OFFCURVE",
"373 710 CURVE SMOOTH",
"160 710 OFFCURVE",
"45 572 OFFCURVE",
"45 350 CURVE SMOOTH",
"45 127 OFFCURVE",
"155 -10 OFFCURVE",
"375 -10 CURVE SMOOTH"
);
},
{
closed = 1;
nodes = (
"419 786 LINE",
"446 826 OFFCURVE",
"516 888 OFFCURVE",
"558 916 CURVE",
"512 952 LINE",
"473 923 OFFCURVE",
"420 873 OFFCURVE",
"395 837 CURVE",
"390 837 LINE",
"365 873 OFFCURVE",
"312 923 OFFCURVE",
"273 952 CURVE",
"227 916 LINE",
"269 888 OFFCURVE",
"339 826 OFFCURVE",
"366 786 CURVE"
);
}
);
width = 634;
}
);
leftKerningGroup = C;
note = Ccaron;
unicode = 010C;
},
{
glyphname = Cdotaccent;
lastChange = "2015-10-01 17:12:32 +0000";
layers = (
{
layerId = "6933CEC8-9691-45CB-9271-BBFB30E0E1A0";
name = Regular;
paths = (
{
closed = 1;
nodes = (
"462 -10 OFFCURVE",
"539 14 OFFCURVE",
"588 57 CURVE",
"572 89 LINE",
"513 49 OFFCURVE",
"441 32 OFFCURVE",
"393 32 CURVE SMOOTH",
"229 32 OFFCURVE",
"161 162 OFFCURVE",
"161 350 CURVE SMOOTH",
"161 538 OFFCURVE",
"240 668 OFFCURVE",
"402 668 CURVE SMOOTH",
"454 668 OFFCURVE",
"499 652 OFFCURVE",
"531 627 CURVE",
"534 589 OFFCURVE",
"542 537 OFFCURVE",
"552 508 CURVE",
"580 508 LINE",
"591 638 LINE",
"543 682 OFFCURVE",
"475 710 OFFCURVE",
"373 710 CURVE SMOOTH",
"160 710 OFFCURVE",
"45 572 OFFCURVE",
"45 350 CURVE SMOOTH",
"45 127 OFFCURVE",
"155 -10 OFFCURVE",
"375 -10 CURVE SMOOTH"
);
},
{
closed = 1;
nodes = (
"420 785 OFFCURVE",
"440 807 OFFCURVE",
"440 836 CURVE SMOOTH",
"440 866 OFFCURVE",
"420 888 OFFCURVE",
"390 888 CURVE SMOOTH",
"359 888 OFFCURVE",
"340 866 OFFCURVE",
"340 836 CURVE SMOOTH",
"340 807 OFFCURVE",
"359 785 OFFCURVE",
"390 785 CURVE SMOOTH"
);
}
);
width = 634;
}
);
leftKerningGroup = C;
note = Cdotaccent;
unicode = 010A;
},
{
glyphname = Ccedilla;
lastChange = "2015-10-01 17:12:32 +0000";
layers = (
{
layerId = "6933CEC8-9691-45CB-9271-BBFB30E0E1A0";
name = Regular;
paths = (
{
closed = 1;
nodes = (
"462 -10 OFFCURVE",
"539 14 OFFCURVE",
"588 57 CURVE",
"572 89 LINE",
"513 49 OFFCURVE",
"441 32 OFFCURVE",
"393 32 CURVE SMOOTH",
"229 32 OFFCURVE",
"161 162 OFFCURVE",
"161 350 CURVE SMOOTH",
"161 538 OFFCURVE",
"240 668 OFFCURVE",
"402 668 CURVE SMOOTH",
"454 668 OFFCURVE",
"499 652 OFFCURVE",
"531 627 CURVE",
"534 589 OFFCURVE",
"542 537 OFFCURVE",
"552 508 CURVE",
"580 508 LINE",
"591 638 LINE",
"543 682 OFFCURVE",
"475 710 OFFCURVE",
"373 710 CURVE SMOOTH",
"160 710 OFFCURVE",
"45 572 OFFCURVE",
"45 350 CURVE SMOOTH",
"45 127 OFFCURVE",
"155 -10 OFFCURVE",
"375 -10 CURVE SMOOTH"
);
},
{
closed = 1;
nodes = (
"409 -234 OFFCURVE",
"466 -203 OFFCURVE",
"466 -140 CURVE SMOOTH",
"466 -95 OFFCURVE",
"427 -67 OFFCURVE",
"355 -67 CURVE",
"393 12 LINE",
"341 12 LINE",
"298 -73 LINE",
"321 -103 LINE",
"328 -102 OFFCURVE",
"337 -101 OFFCURVE",
"345 -101 CURVE SMOOTH",
"374 -101 OFFCURVE",
"407 -110 OFFCURVE",
"407 -140 CURVE SMOOTH",
"407 -179 OFFCURVE",
"373 -193 OFFCURVE",
"330 -193 CURVE SMOOTH",
"307 -193 OFFCURVE",
"281 -188 OFFCURVE",
"262 -179 CURVE",
"243 -211 LINE",
"269 -226 OFFCURVE",
"306 -234 OFFCURVE",
"337 -234 CURVE SMOOTH"
);
}
);
width = 634;
}
);
leftKerningGroup = C;
note = Ccedilla;
unicode = 00C7;
},
{
glyphname = Dcaron;
lastChange = "2015-10-01 17:12:33 +0000";
layers = (
{
layerId = "6933CEC8-9691-45CB-9271-BBFB30E0E1A0";
name = Regular;
paths = (
{
closed = 1;
nodes = (
"346 0 LINE SMOOTH",
"561 0 OFFCURVE",
"648 127 OFFCURVE",
"648 350 CURVE SMOOTH",
"648 573 OFFCURVE",
"562 700 OFFCURVE",
"347 700 CURVE SMOOTH",
"37 700 LINE",
"37 686 LINE",
"63 678 OFFCURVE",
"90 671 OFFCURVE",
"116 666 CURVE",
"116 34 LINE",
"89 31 OFFCURVE",
"61 23 OFFCURVE",
"37 15 CURVE",
"37 0 LINE"
);
},
{
closed = 1;
nodes = (
"229 659 LINE",
"346 659 LINE SMOOTH",
"487 659 OFFCURVE",
"532 535 OFFCURVE",
"532 350 CURVE SMOOTH",
"532 165 OFFCURVE",
"487 40 OFFCURVE",
"344 40 CURVE SMOOTH",
"229 40 LINE"
);
},
{
closed = 1;
nodes = (
"365 786 LINE",
"392 826 OFFCURVE",
"462 888 OFFCURVE",
"504 916 CURVE",
"458 952 LINE",
"419 923 OFFCURVE",
"366 873 OFFCURVE",
"341 837 CURVE",
"336 837 LINE",
"311 873 OFFCURVE",
"258 923 OFFCURVE",
"219 952 CURVE",
"173 916 LINE",
"215 888 OFFCURVE",
"285 826 OFFCURVE",
"312 786 CURVE"
);
}
);
width = 685;
}
);
note = Dcaron;
rightKerningGroup = D;
unicode = 010E;
},
{
glyphname = Dcroat;
lastChange = "2015-10-01 17:12:34 +0000";
layers = (
{
layerId = "6933CEC8-9691-45CB-9271-BBFB30E0E1A0";
name = Regular;
paths = (
{
closed = 1;
nodes = (
"346 0 LINE SMOOTH",
"561 0 OFFCURVE",
"648 127 OFFCURVE",
"648 350 CURVE SMOOTH",
"648 573 OFFCURVE",
"562 700 OFFCURVE",
"347 700 CURVE SMOOTH",
"37 700 LINE",
"37 686 LINE",
"63 678 OFFCURVE",
"90 671 OFFCURVE",
"116 666 CURVE",
"116 34 LINE",
"89 31 OFFCURVE",
"61 23 OFFCURVE",
"37 15 CURVE",
"37 0 LINE"
);
},
{
closed = 1;
nodes = (
"389 313 LINE",
"389 353 LINE",
"46 353 LINE",
"46 313 LINE"
);
},
{
closed = 1;
nodes = (
"229 659 LINE",
"346 659 LINE SMOOTH",
"487 659 OFFCURVE",
"532 535 OFFCURVE",
"532 350 CURVE SMOOTH",
"532 165 OFFCURVE",
"487 40 OFFCURVE",
"344 40 CURVE SMOOTH",
"229 40 LINE"
);
}
);
width = 685;
}
);
note = Dcroat;
rightKerningGroup = D;
unicode = 0110;
},
{
glyphname = Eth;
lastChange = "2015-10-01 17:12:33 +0000";
layers = (
{
layerId = "6933CEC8-9691-45CB-9271-BBFB30E0E1A0";
name = Regular;
paths = (
{
closed = 1;
nodes = (
"346 0 LINE SMOOTH",
"561 0 OFFCURVE",
"648 127 OFFCURVE",
"648 350 CURVE SMOOTH",
"648 573 OFFCURVE",
"562 700 OFFCURVE",
"347 700 CURVE SMOOTH",
"37 700 LINE",
"37 686 LINE",
"63 678 OFFCURVE",
"90 671 OFFCURVE",
"116 666 CURVE",
"116 34 LINE",
"89 31 OFFCURVE",
"61 23 OFFCURVE",
"37 15 CURVE",
"37 0 LINE"
);
},
{
closed = 1;
nodes = (
"428 305 LINE",
"428 363 LINE",
"43 363 LINE",
"43 305 LINE"
);
},
{
closed = 1;
nodes = (
"229 659 LINE",
"346 659 LINE SMOOTH",
"487 659 OFFCURVE",
"532 535 OFFCURVE",
"532 350 CURVE SMOOTH",
"532 165 OFFCURVE",
"487 40 OFFCURVE",
"344 40 CURVE SMOOTH",
"229 40 LINE"
);
}
);
width = 686;
}
);
note = Eth;
rightKerningGroup = D;
unicode = 00D0;
},
{
glyphname = Egrave;
lastChange = "2015-10-01 17:12:33 +0000";
layers = (
{
layerId = "6933CEC8-9691-45CB-9271-BBFB30E0E1A0";
name = Regular;
paths = (
{
closed = 1;
nodes = (
"568 0 LINE",
"584 155 LINE",
"558 155 LINE",
"544 135 OFFCURVE",
"519 72 OFFCURVE",
"516 40 CURVE",
"235 40 LINE",
"235 659 LINE",
"512 659 LINE",
"514 631 OFFCURVE",
"531 565 OFFCURVE",
"543 544 CURVE",
"569 544 LINE",
"569 700 LINE",
"37 700 LINE",
"37 686 LINE",
"63 678 OFFCURVE",
"93 670 OFFCURVE",
"121 666 CURVE",
"121 35 LINE",
"94 32 OFFCURVE",
"61 23 OFFCURVE",
"37 15 CURVE",
"37 0 LINE"
);
},
{
closed = 1;
nodes = (
"470 235 LINE",
"470 444 LINE",
"451 444 LINE",
"441 418 OFFCURVE",
"434 378 OFFCURVE",
"432 360 CURVE",
"145 360 LINE",
"145 319 LINE",
"432 319 LINE",
"434 302 OFFCURVE",
"441 262 OFFCURVE",
"451 235 CURVE"
);
},
{
closed = 1;
nodes = (
"452 813 LINE",
"334 927 LINE SMOOTH",
"326 935 OFFCURVE",
"308 953 OFFCURVE",
"284 953 CURVE SMOOTH",
"258 953 OFFCURVE",
"246 936 OFFCURVE",
"246 921 CURVE SMOOTH",
"246 902 OFFCURVE",
"260 887 OFFCURVE",
"285 872 CURVE SMOOTH",
"433 786 LINE"
);
}
);
width = 629;
}
);
note = Egrave;
unicode = 00C8;
},
{
glyphname = Eacute;
lastChange = "2015-10-01 17:12:31 +0000";
layers = (
{
layerId = "6933CEC8-9691-45CB-9271-BBFB30E0E1A0";
name = Regular;
paths = (
{
closed = 1;
nodes = (
"568 0 LINE",
"584 155 LINE",
"558 155 LINE",
"544 135 OFFCURVE",
"519 72 OFFCURVE",
"516 40 CURVE",
"235 40 LINE",
"235 659 LINE",
"512 659 LINE",
"514 631 OFFCURVE",
"531 565 OFFCURVE",
"543 544 CURVE",
"569 544 LINE",
"569 700 LINE",
"37 700 LINE",
"37 686 LINE",
"63 678 OFFCURVE",
"93 670 OFFCURVE",
"121 666 CURVE",
"121 35 LINE",
"94 32 OFFCURVE",
"61 23 OFFCURVE",
"37 15 CURVE",
"37 0 LINE"
);
},
{
closed = 1;
nodes = (
"470 235 LINE",
"470 444 LINE",
"451 444 LINE",
"441 418 OFFCURVE",
"434 378 OFFCURVE",
"432 360 CURVE",
"145 360 LINE",
"145 319 LINE",
"432 319 LINE",
"434 302 OFFCURVE",
"441 262 OFFCURVE",
"451 235 CURVE"
);
},
{
closed = 1;
nodes = (
"407 872 LINE SMOOTH",
"432 887 OFFCURVE",
"445 902 OFFCURVE",
"445 921 CURVE SMOOTH",
"445 936 OFFCURVE",
"433 953 OFFCURVE",
"408 953 CURVE SMOOTH",
"382 953 OFFCURVE",
"363 933 OFFCURVE",
"357 926 CURVE",
"240 813 LINE",
"259 786 LINE"
);
}
);
width = 629;
}
);
note = Eacute;
unicode = 00C9;
},
{
glyphname = Ecircumflex;
lastChange = "2015-10-01 17:12:31 +0000";
layers = (
{
layerId = "6933CEC8-9691-45CB-9271-BBFB30E0E1A0";
name = Regular;
paths = (
{
closed = 1;
nodes = (
"568 0 LINE",
"584 155 LINE",
"558 155 LINE",
"544 135 OFFCURVE",
"519 72 OFFCURVE",
"516 40 CURVE",
"235 40 LINE",
"235 659 LINE",
"512 659 LINE",
"514 631 OFFCURVE",
"531 565 OFFCURVE",
"543 544 CURVE",
"569 544 LINE",
"569 700 LINE",
"37 700 LINE",
"37 686 LINE",
"63 678 OFFCURVE",
"93 670 OFFCURVE",
"121 666 CURVE",
"121 35 LINE",
"94 32 OFFCURVE",
"61 23 OFFCURVE",
"37 15 CURVE",
"37 0 LINE"
);
},
{
closed = 1;
nodes = (
"470 235 LINE",
"470 444 LINE",
"451 444 LINE",
"441 418 OFFCURVE",
"434 378 OFFCURVE",
"432 360 CURVE",
"145 360 LINE",
"145 319 LINE",
"432 319 LINE",
"434 302 OFFCURVE",
"441 262 OFFCURVE",
"451 235 CURVE"
);
},
{
closed = 1;
nodes = (
"270 811 OFFCURVE",
"323 861 OFFCURVE",
"348 897 CURVE",
"353 897 LINE",
"378 861 OFFCURVE",
"431 811 OFFCURVE",
"470 781 CURVE",
"516 818 LINE",
"474 845 OFFCURVE",
"404 908 OFFCURVE",
"377 947 CURVE",
"324 947 LINE",
"297 908 OFFCURVE",
"227 845 OFFCURVE",
"185 818 CURVE",
"231 781 LINE"
);
}
);
width = 629;
}
);
note = Ecircumflex;
unicode = 00CA;
},
{
glyphname = Ecaron;
lastChange = "2015-10-01 17:12:32 +0000";
layers = (
{
layerId = "6933CEC8-9691-45CB-9271-BBFB30E0E1A0";
name = Regular;
paths = (
{
closed = 1;
nodes = (
"568 0 LINE",
"584 155 LINE",
"558 155 LINE",
"544 135 OFFCURVE",
"519 72 OFFCURVE",
"516 40 CURVE",
"235 40 LINE",
"235 659 LINE",
"512 659 LINE",
"514 631 OFFCURVE",
"531 565 OFFCURVE",
"543 544 CURVE",
"569 544 LINE",
"569 700 LINE",
"37 700 LINE",
"37 686 LINE",
"63 678 OFFCURVE",
"93 670 OFFCURVE",
"121 666 CURVE",
"121 35 LINE",
"94 32 OFFCURVE",
"61 23 OFFCURVE",
"37 15 CURVE",
"37 0 LINE"
);
},
{
closed = 1;
nodes = (
"470 235 LINE",
"470 444 LINE",
"451 444 LINE",
"441 418 OFFCURVE",
"434 378 OFFCURVE",
"432 360 CURVE",
"145 360 LINE",
"145 319 LINE",
"432 319 LINE",
"434 302 OFFCURVE",
"441 262 OFFCURVE",
"451 235 CURVE"
);
},
{
closed = 1;
nodes = (
"377 786 LINE",
"404 826 OFFCURVE",
"474 888 OFFCURVE",
"516 916 CURVE",
"470 952 LINE",
"431 923 OFFCURVE",
"378 873 OFFCURVE",
"353 837 CURVE",
"348 837 LINE",
"323 873 OFFCURVE",
"270 923 OFFCURVE",
"231 952 CURVE",
"185 916 LINE",
"227 888 OFFCURVE",
"297 826 OFFCURVE",
"324 786 CURVE"
);
}
);
width = 629;
}
);
note = Ecaron;
unicode = 011A;
},
{
glyphname = Edieresis;
lastChange = "2015-10-01 17:12:32 +0000";
layers = (
{
layerId = "6933CEC8-9691-45CB-9271-BBFB30E0E1A0";
name = Regular;
paths = (
{
closed = 1;
nodes = (
"568 0 LINE",
"584 155 LINE",
"558 155 LINE",
"544 135 OFFCURVE",
"519 72 OFFCURVE",
"516 40 CURVE",
"235 40 LINE",
"235 659 LINE",
"512 659 LINE",
"514 631 OFFCURVE",
"531 565 OFFCURVE",
"543 544 CURVE",
"569 544 LINE",
"569 700 LINE",
"37 700 LINE",
"37 686 LINE",
"63 678 OFFCURVE",
"93 670 OFFCURVE",
"121 666 CURVE",
"121 35 LINE",
"94 32 OFFCURVE",
"61 23 OFFCURVE",
"37 15 CURVE",
"37 0 LINE"
);
},
{
closed = 1;
nodes = (
"470 235 LINE",
"470 444 LINE",
"451 444 LINE",
"441 418 OFFCURVE",
"434 378 OFFCURVE",
"432 360 CURVE",
"145 360 LINE",
"145 319 LINE",
"432 319 LINE",
"434 302 OFFCURVE",
"441 262 OFFCURVE",
"451 235 CURVE"
);
},
{
closed = 1;
nodes = (
"272 785 OFFCURVE",
"292 807 OFFCURVE",
"292 836 CURVE SMOOTH",
"292 866 OFFCURVE",
"272 888 OFFCURVE",
"241 888 CURVE SMOOTH",
"211 888 OFFCURVE",
"191 866 OFFCURVE",
"191 836 CURVE SMOOTH",
"191 807 OFFCURVE",
"211 785 OFFCURVE",
"241 785 CURVE SMOOTH"
);
},
{
closed = 1;
nodes = (
"498 785 OFFCURVE",
"518 807 OFFCURVE",
"518 836 CURVE SMOOTH",
"518 866 OFFCURVE",
"498 888 OFFCURVE",
"468 888 CURVE SMOOTH",
"437 888 OFFCURVE",
"418 866 OFFCURVE",
"418 836 CURVE SMOOTH",
"418 807 OFFCURVE",
"437 785 OFFCURVE",
"468 785 CURVE SMOOTH"
);
}
);
width = 629;
}
);
note = Edieresis;
unicode = 00CB;
},
{
glyphname = Emacron;
lastChange = "2015-10-01 17:12:33 +0000";
layers = (
{
layerId = "6933CEC8-9691-45CB-9271-BBFB30E0E1A0";
name = Regular;
paths = (
{
closed = 1;
nodes = (
"568 0 LINE",
"584 155 LINE",
"558 155 LINE",
"544 135 OFFCURVE",
"519 72 OFFCURVE",
"516 40 CURVE",
"235 40 LINE",
"235 659 LINE",
"512 659 LINE",
"514 631 OFFCURVE",
"531 565 OFFCURVE",
"543 544 CURVE",
"569 544 LINE",
"569 700 LINE",
"37 700 LINE",
"37 686 LINE",
"63 678 OFFCURVE",
"93 670 OFFCURVE",
"121 666 CURVE",
"121 35 LINE",
"94 32 OFFCURVE",
"61 23 OFFCURVE",
"37 15 CURVE",
"37 0 LINE"
);
},
{
closed = 1;
nodes = (
"470 235 LINE",
"470 444 LINE",
"451 444 LINE",
"441 418 OFFCURVE",
"434 378 OFFCURVE",
"432 360 CURVE",
"145 360 LINE",
"145 319 LINE",
"432 319 LINE",
"434 302 OFFCURVE",
"441 262 OFFCURVE",
"451 235 CURVE"
);
},
{
closed = 1;
nodes = (
"523 785 LINE",
"523 825 LINE",
"171 825 LINE",
"171 785 LINE"
);
}
);
width = 629;
}
);
note = Emacron;
unicode = 0112;
},
{
glyphname = Ebreve;
lastChange = "2015-10-01 17:12:33 +0000";
layers = (
{
layerId = "6933CEC8-9691-45CB-9271-BBFB30E0E1A0";
name = Regular;
paths = (
{
closed = 1;
nodes = (
"568 0 LINE",
"584 155 LINE",
"558 155 LINE",
"544 135 OFFCURVE",
"519 72 OFFCURVE",
"516 40 CURVE",
"235 40 LINE",
"235 659 LINE",
"512 659 LINE",
"514 631 OFFCURVE",
"531 565 OFFCURVE",
"543 544 CURVE",
"569 544 LINE",
"569 700 LINE",
"37 700 LINE",
"37 686 LINE",
"63 678 OFFCURVE",
"93 670 OFFCURVE",
"121 666 CURVE",
"121 35 LINE",
"94 32 OFFCURVE",
"61 23 OFFCURVE",
"37 15 CURVE",
"37 0 LINE"
);
},
{
closed = 1;
nodes = (
"470 235 LINE",
"470 444 LINE",
"451 444 LINE",
"441 418 OFFCURVE",
"434 378 OFFCURVE",
"432 360 CURVE",
"145 360 LINE",
"145 319 LINE",
"432 319 LINE",
"434 302 OFFCURVE",
"441 262 OFFCURVE",
"451 235 CURVE"
);
},
{
closed = 1;
nodes = (
"443 779 OFFCURVE",
"506 819 OFFCURVE",
"518 906 CURVE",
"452 906 LINE",
"444 831 OFFCURVE",
"395 821 OFFCURVE",
"354 821 CURVE SMOOTH",
"313 821 OFFCURVE",
"264 831 OFFCURVE",
"256 906 CURVE",
"190 906 LINE",
"202 819 OFFCURVE",
"265 779 OFFCURVE",
"354 779 CURVE SMOOTH"
);
}
);
width = 629;
}
);
note = Ebreve;
unicode = 0114;
},
{
glyphname = Edotaccent;
lastChange = "2015-10-01 17:12:32 +0000";
layers = (
{
layerId = "6933CEC8-9691-45CB-9271-BBFB30E0E1A0";
name = Regular;
paths = (
{
closed = 1;
nodes = (
"568 0 LINE",
"584 155 LINE",
"558 155 LINE",
"544 135 OFFCURVE",
"519 72 OFFCURVE",
"516 40 CURVE",
"235 40 LINE",
"235 659 LINE",
"512 659 LINE",
"514 631 OFFCURVE",
"531 565 OFFCURVE",
"543 544 CURVE",
"569 544 LINE",
"569 700 LINE",
"37 700 LINE",
"37 686 LINE",
"63 678 OFFCURVE",
"93 670 OFFCURVE",
"121 666 CURVE",
"121 35 LINE",
"94 32 OFFCURVE",
"61 23 OFFCURVE",
"37 15 CURVE",
"37 0 LINE"
);
},
{
closed = 1;
nodes = (
"470 235 LINE",
"470 444 LINE",
"451 444 LINE",
"441 418 OFFCURVE",
"434 378 OFFCURVE",
"432 360 CURVE",
"145 360 LINE",
"145 319 LINE",
"432 319 LINE",
"434 302 OFFCURVE",
"441 262 OFFCURVE",
"451 235 CURVE"
);
},
{
closed = 1;
nodes = (
"388 785 OFFCURVE",
"408 807 OFFCURVE",
"408 836 CURVE SMOOTH",
"408 866 OFFCURVE",
"388 888 OFFCURVE",
"358 888 CURVE SMOOTH",
"327 888 OFFCURVE",
"308 866 OFFCURVE",
"308 836 CURVE SMOOTH",
"308 807 OFFCURVE",
"327 785 OFFCURVE",
"358 785 CURVE SMOOTH"
);
}
);
width = 629;
}
);
note = Edotaccent;
unicode = 0116;
},
{
glyphname = Eogonek;
lastChange = "2015-10-01 17:12:32 +0000";
layers = (
{
layerId = "6933CEC8-9691-45CB-9271-BBFB30E0E1A0";
name = Regular;
paths = (
{
closed = 1;
nodes = (
"568 0 LINE",
"584 155 LINE",
"558 155 LINE",
"544 135 OFFCURVE",
"519 72 OFFCURVE",
"516 40 CURVE",
"235 40 LINE",
"235 659 LINE",
"512 659 LINE",
"514 631 OFFCURVE",
"531 565 OFFCURVE",
"543 544 CURVE",
"569 544 LINE",
"569 700 LINE",
"37 700 LINE",
"37 686 LINE",
"63 678 OFFCURVE",
"93 670 OFFCURVE",
"121 666 CURVE",
"121 35 LINE",
"94 32 OFFCURVE",
"61 23 OFFCURVE",
"37 15 CURVE",
"37 0 LINE"
);
},
{
closed = 1;
nodes = (
"543 -193 OFFCURVE",
"576 -186 OFFCURVE",
"600 -173 CURVE",
"600 -125 LINE",
"579 -136 OFFCURVE",
"559 -141 OFFCURVE",
"542 -141 CURVE SMOOTH",
"506 -141 OFFCURVE",
"480 -123 OFFCURVE",
"480 -90 CURVE SMOOTH",
"480 -55 OFFCURVE",
"508 -19 OFFCURVE",
"539 0 CURVE",
"482 0 LINE",
"427 -19 OFFCURVE",
"395 -65 OFFCURVE",
"395 -110 CURVE SMOOTH",
"395 -156 OFFCURVE",
"434 -193 OFFCURVE",
"507 -193 CURVE SMOOTH"
);
},
{
closed = 1;
nodes = (
"470 235 LINE",
"470 444 LINE",
"451 444 LINE",
"441 418 OFFCURVE",
"434 378 OFFCURVE",
"432 360 CURVE",
"145 360 LINE",
"145 319 LINE",
"432 319 LINE",
"434 302 OFFCURVE",
"441 262 OFFCURVE",
"451 235 CURVE"
);
}
);
width = 629;
}
);
note = Eogonek;
unicode = 0118;
},
{
glyphname = Gcircumflex;
lastChange = "2015-10-01 17:12:33 +0000";
layers = (
{
layerId = "6933CEC8-9691-45CB-9271-BBFB30E0E1A0";
name = Regular;
paths = (
{
closed = 1;
nodes = (
"457 -10 OFFCURVE",
"557 10 OFFCURVE",
"608 49 CURVE",
"608 305 LINE",
"634 309 OFFCURVE",
"662 320 OFFCURVE",
"678 329 CURVE",
"678 340 LINE",
"419 340 LINE",
"419 326 LINE",
"443 318 OFFCURVE",
"471 312 OFFCURVE",
"498 307 CURVE",
"498 55 LINE",
"465 39 OFFCURVE",
"415 32 OFFCURVE",
"388 32 CURVE SMOOTH",
"224 32 OFFCURVE",
"153 162 OFFCURVE",
"153 350 CURVE SMOOTH",
"153 538 OFFCURVE",
"240 668 OFFCURVE",
"404 668 CURVE SMOOTH",
"456 668 OFFCURVE",
"528 652 OFFCURVE",
"560 627 CURVE",
"563 589 OFFCURVE",
"571 539 OFFCURVE",
"581 508 CURVE",
"609 508 LINE",
"620 638 LINE",
"572 682 OFFCURVE",
"477 710 OFFCURVE",
"375 710 CURVE SMOOTH",
"162 710 OFFCURVE",
"37 572 OFFCURVE",
"37 350 CURVE SMOOTH",
"37 127 OFFCURVE",
"150 -10 OFFCURVE",
"370 -10 CURVE SMOOTH"
);
},
{
closed = 1;
nodes = (
"310 811 OFFCURVE",
"363 861 OFFCURVE",
"388 897 CURVE",
"393 897 LINE",
"418 861 OFFCURVE",
"471 811 OFFCURVE",
"510 781 CURVE",
"556 818 LINE",
"514 845 OFFCURVE",
"444 908 OFFCURVE",
"417 947 CURVE",
"364 947 LINE",
"337 908 OFFCURVE",
"267 845 OFFCURVE",
"225 818 CURVE",
"271 781 LINE"
);
}
);
width = 688;
}
);
leftKerningGroup = G;
note = Gcircumflex;
unicode = 011C;
},
{
glyphname = Gbreve;
lastChange = "2015-10-01 17:12:32 +0000";
layers = (
{
layerId = "6933CEC8-9691-45CB-9271-BBFB30E0E1A0";
name = Regular;
paths = (
{
closed = 1;
nodes = (
"457 -10 OFFCURVE",
"557 10 OFFCURVE",
"608 49 CURVE",
"608 305 LINE",
"634 309 OFFCURVE",
"662 320 OFFCURVE",
"678 329 CURVE",
"678 340 LINE",
"419 340 LINE",
"419 326 LINE",
"443 318 OFFCURVE",
"471 312 OFFCURVE",
"498 307 CURVE",
"498 55 LINE",
"465 39 OFFCURVE",
"415 32 OFFCURVE",
"388 32 CURVE SMOOTH",
"224 32 OFFCURVE",
"153 162 OFFCURVE",
"153 350 CURVE SMOOTH",
"153 538 OFFCURVE",
"240 668 OFFCURVE",
"404 668 CURVE SMOOTH",
"456 668 OFFCURVE",
"528 652 OFFCURVE",
"560 627 CURVE",
"563 589 OFFCURVE",
"571 539 OFFCURVE",
"581 508 CURVE",
"609 508 LINE",
"620 638 LINE",
"572 682 OFFCURVE",
"477 710 OFFCURVE",
"375 710 CURVE SMOOTH",
"162 710 OFFCURVE",
"37 572 OFFCURVE",
"37 350 CURVE SMOOTH",
"37 127 OFFCURVE",
"150 -10 OFFCURVE",
"370 -10 CURVE SMOOTH"
);
},
{
closed = 1;
nodes = (
"466 779 OFFCURVE",
"529 819 OFFCURVE",
"541 906 CURVE",
"475 906 LINE",
"467 831 OFFCURVE",
"418 821 OFFCURVE",
"377 821 CURVE SMOOTH",
"336 821 OFFCURVE",
"287 831 OFFCURVE",
"279 906 CURVE",
"213 906 LINE",
"225 819 OFFCURVE",
"288 779 OFFCURVE",
"377 779 CURVE SMOOTH"
);
}
);
width = 688;
}
);
leftKerningGroup = G;
note = Gbreve;
unicode = 011E;
},
{
glyphname = Gdotaccent;
lastChange = "2015-10-01 17:12:33 +0000";
layers = (
{
layerId = "6933CEC8-9691-45CB-9271-BBFB30E0E1A0";
name = Regular;
paths = (
{
closed = 1;
nodes = (
"457 -10 OFFCURVE",
"557 10 OFFCURVE",
"608 49 CURVE",
"608 305 LINE",
"634 309 OFFCURVE",
"662 320 OFFCURVE",
"678 329 CURVE",
"678 340 LINE",
"419 340 LINE",
"419 326 LINE",
"443 318 OFFCURVE",
"471 312 OFFCURVE",
"498 307 CURVE",
"498 55 LINE",
"465 39 OFFCURVE",
"415 32 OFFCURVE",
"388 32 CURVE SMOOTH",
"224 32 OFFCURVE",
"153 162 OFFCURVE",
"153 350 CURVE SMOOTH",
"153 538 OFFCURVE",
"240 668 OFFCURVE",
"404 668 CURVE SMOOTH",
"456 668 OFFCURVE",
"528 652 OFFCURVE",
"560 627 CURVE",
"563 589 OFFCURVE",
"571 539 OFFCURVE",
"581 508 CURVE",
"609 508 LINE",
"620 638 LINE",
"572 682 OFFCURVE",
"477 710 OFFCURVE",
"375 710 CURVE SMOOTH",
"162 710 OFFCURVE",
"37 572 OFFCURVE",
"37 350 CURVE SMOOTH",
"37 127 OFFCURVE",
"150 -10 OFFCURVE",
"370 -10 CURVE SMOOTH"
);
},
{
closed = 1;
nodes = (
"419 785 OFFCURVE",
"439 807 OFFCURVE",
"439 836 CURVE SMOOTH",
"439 866 OFFCURVE",
"419 888 OFFCURVE",
"389 888 CURVE SMOOTH",
"358 888 OFFCURVE",
"339 866 OFFCURVE",
"339 836 CURVE SMOOTH",
"339 807 OFFCURVE",
"358 785 OFFCURVE",
"389 785 CURVE SMOOTH"
);
}
);
width = 688;
}
);
leftKerningGroup = G;
note = Gdotaccent;
unicode = 0120;
},
{
glyphname = Gcommaaccent;
lastChange = "2015-10-01 17:12:32 +0000";
layers = (
{
layerId = "6933CEC8-9691-45CB-9271-BBFB30E0E1A0";
name = Regular;
paths = (
{
closed = 1;
nodes = (
"457 -10 OFFCURVE",
"557 10 OFFCURVE",
"608 49 CURVE",
"608 305 LINE",
"634 309 OFFCURVE",
"662 320 OFFCURVE",
"678 329 CURVE",
"678 340 LINE",
"419 340 LINE",
"419 326 LINE",
"443 318 OFFCURVE",
"471 312 OFFCURVE",
"498 307 CURVE",
"498 55 LINE",
"465 39 OFFCURVE",
"415 32 OFFCURVE",
"388 32 CURVE SMOOTH",
"224 32 OFFCURVE",
"153 162 OFFCURVE",
"153 350 CURVE SMOOTH",
"153 538 OFFCURVE",
"240 668 OFFCURVE",
"404 668 CURVE SMOOTH",
"456 668 OFFCURVE",
"528 652 OFFCURVE",
"560 627 CURVE",
"563 589 OFFCURVE",
"571 539 OFFCURVE",
"581 508 CURVE",
"609 508 LINE",
"620 638 LINE",
"572 682 OFFCURVE",
"477 710 OFFCURVE",
"375 710 CURVE SMOOTH",
"162 710 OFFCURVE",
"37 572 OFFCURVE",
"37 350 CURVE SMOOTH",
"37 127 OFFCURVE",
"150 -10 OFFCURVE",
"370 -10 CURVE SMOOTH"
);
},
{
closed = 1;
nodes = (
"410 -281 OFFCURVE",
"444 -205 OFFCURVE",
"444 -143 CURVE SMOOTH",
"444 -104 OFFCURVE",
"426 -73 OFFCURVE",
"379 -73 CURVE SMOOTH",
"348 -73 OFFCURVE",
"318 -92 OFFCURVE",
"318 -128 CURVE SMOOTH",
"318 -166 OFFCURVE",
"342 -183 OFFCURVE",
"381 -183 CURVE",
"376 -225 OFFCURVE",
"351 -268 OFFCURVE",
"326 -295 CURVE",
"363 -324 LINE"
);
}
);
width = 688;
}
);
leftKerningGroup = G;
note = Gcommaaccent;
unicode = 0122;
},
{
glyphname = Hcircumflex;
lastChange = "2015-10-01 17:12:32 +0000";
layers = (
{
layerId = "6933CEC8-9691-45CB-9271-BBFB30E0E1A0";
name = Regular;
paths = (
{
closed = 1;
nodes = (
"766 0 LINE",
"766 13 LINE",
"739 23 OFFCURVE",
"712 29 OFFCURVE",
"686 33 CURVE",
"686 665 LINE",
"713 668 OFFCURVE",
"741 677 OFFCURVE",
"766 685 CURVE",
"766 700 LINE",
"495 700 LINE",
"495 686 LINE",
"521 678 OFFCURVE",
"547 671 OFFCURVE",
"572 667 CURVE",
"572 34 LINE",
"548 31 OFFCURVE",
"537 29 OFFCURVE",
"495 12 CURVE",
"495 0 LINE"
);
},
{
closed = 1;
nodes = (
"308 0 LINE",
"308 13 LINE",
"282 22 OFFCURVE",
"255 28 OFFCURVE",
"230 33 CURVE",
"230 666 LINE",
"254 669 OFFCURVE",
"265 671 OFFCURVE",
"308 687 CURVE",
"308 700 LINE",
"37 700 LINE",
"37 686 LINE",
"64 677 OFFCURVE",
"90 671 OFFCURVE",
"116 666 CURVE",
"116 34 LINE",
"89 31 OFFCURVE",
"61 23 OFFCURVE",
"37 15 CURVE",
"37 0 LINE"
);
},
{
closed = 1;
nodes = (
"628 335 LINE",
"628 376 LINE",
"176 376 LINE",
"176 335 LINE"
);
},
{
closed = 1;
nodes = (
"321 811 OFFCURVE",
"374 861 OFFCURVE",
"399 897 CURVE",
"404 897 LINE",
"429 861 OFFCURVE",
"482 811 OFFCURVE",
"521 781 CURVE",
"567 818 LINE",
"525 845 OFFCURVE",
"455 908 OFFCURVE",
"428 947 CURVE",
"375 947 LINE",
"348 908 OFFCURVE",
"278 845 OFFCURVE",
"236 818 CURVE",
"282 781 LINE"
);
}
);
width = 803;
}
);
note = Hcircumflex;
unicode = 0124;
},
{
glyphname = Hbar;
lastChange = "2015-10-01 17:12:32 +0000";
layers = (
{
layerId = "6933CEC8-9691-45CB-9271-BBFB30E0E1A0";
name = Regular;
paths = (
{
closed = 1;
nodes = (
"766 0 LINE",
"766 13 LINE",
"739 23 OFFCURVE",
"712 29 OFFCURVE",
"686 33 CURVE",
"686 665 LINE",
"713 668 OFFCURVE",
"741 677 OFFCURVE",
"766 685 CURVE",
"766 700 LINE",
"495 700 LINE",
"495 686 LINE",
"521 678 OFFCURVE",
"547 671 OFFCURVE",
"572 667 CURVE",
"572 34 LINE",
"548 31 OFFCURVE",
"537 29 OFFCURVE",
"495 12 CURVE",
"495 0 LINE"
);
},
{
closed = 1;
nodes = (
"308 0 LINE",
"308 13 LINE",
"282 22 OFFCURVE",
"255 28 OFFCURVE",
"230 33 CURVE",
"230 666 LINE",
"254 669 OFFCURVE",
"265 671 OFFCURVE",
"308 687 CURVE",
"308 700 LINE",
"37 700 LINE",
"37 686 LINE",
"64 677 OFFCURVE",
"90 671 OFFCURVE",
"116 666 CURVE",
"116 34 LINE",
"89 31 OFFCURVE",
"61 23 OFFCURVE",
"37 15 CURVE",
"37 0 LINE"
);
},
{
closed = 1;
nodes = (
"628 335 LINE",
"628 376 LINE",
"176 376 LINE",
"176 335 LINE"
);
},
{
closed = 1;
nodes = (
"747 501 LINE",
"747 541 LINE",
"56 541 LINE",
"56 501 LINE"
);
}
);
width = 803;
}
);
note = Hbar;
unicode = 0126;
},
{
glyphname = Igrave;
lastChange = "2015-10-01 17:12:32 +0000";
layers = (
{
layerId = "6933CEC8-9691-45CB-9271-BBFB30E0E1A0";
name = Regular;
paths = (
{
closed = 1;
nodes = (
"315 0 LINE",
"315 14 LINE",
"289 22 OFFCURVE",
"259 29 OFFCURVE",
"234 33 CURVE",
"234 666 LINE",
"262 671 OFFCURVE",
"291 677 OFFCURVE",
"315 685 CURVE",
"315 700 LINE",
"39 700 LINE",
"39 686 LINE",
"65 678 OFFCURVE",
"95 670 OFFCURVE",
"120 666 CURVE",
"120 34 LINE",
"92 29 OFFCURVE",
"63 22 OFFCURVE",
"39 15 CURVE",
"39 0 LINE"
);
},
{
closed = 1;
nodes = (
"279 813 LINE",
"161 927 LINE SMOOTH",
"153 935 OFFCURVE",
"135 953 OFFCURVE",
"111 953 CURVE SMOOTH",
"85 953 OFFCURVE",
"73 936 OFFCURVE",
"73 921 CURVE SMOOTH",
"73 902 OFFCURVE",
"87 887 OFFCURVE",
"112 872 CURVE SMOOTH",
"260 786 LINE"
);
}
);
width = 354;
}
);
note = Igrave;
unicode = 00CC;
},
{
glyphname = Iacute;
lastChange = "2015-10-01 17:12:31 +0000";
layers = (
{
layerId = "6933CEC8-9691-45CB-9271-BBFB30E0E1A0";
name = Regular;
paths = (
{
closed = 1;
nodes = (
"315 0 LINE",
"315 14 LINE",
"289 22 OFFCURVE",
"259 29 OFFCURVE",
"234 33 CURVE",
"234 666 LINE",
"262 671 OFFCURVE",
"291 677 OFFCURVE",
"315 685 CURVE",
"315 700 LINE",
"39 700 LINE",
"39 686 LINE",
"65 678 OFFCURVE",
"95 670 OFFCURVE",
"120 666 CURVE",
"120 34 LINE",
"92 29 OFFCURVE",
"63 22 OFFCURVE",
"39 15 CURVE",
"39 0 LINE"
);
},
{
closed = 1;
nodes = (
"240 872 LINE SMOOTH",
"265 887 OFFCURVE",
"278 902 OFFCURVE",
"278 921 CURVE SMOOTH",
"278 936 OFFCURVE",
"266 953 OFFCURVE",
"241 953 CURVE SMOOTH",
"215 953 OFFCURVE",
"196 933 OFFCURVE",
"190 926 CURVE",
"73 813 LINE",
"92 786 LINE"
);
}
);
width = 354;
}
);
note = Iacute;
unicode = 00CD;
},
{
glyphname = Ibreve;
lastChange = "2015-10-01 17:12:32 +0000";
layers = (
{
layerId = "6933CEC8-9691-45CB-9271-BBFB30E0E1A0";
name = Regular;
paths = (
{
closed = 1;
nodes = (
"315 0 LINE",
"315 14 LINE",
"289 22 OFFCURVE",
"259 29 OFFCURVE",
"234 33 CURVE",
"234 666 LINE",
"262 671 OFFCURVE",
"291 677 OFFCURVE",
"315 685 CURVE",
"315 700 LINE",
"39 700 LINE",
"39 686 LINE",
"65 678 OFFCURVE",
"95 670 OFFCURVE",
"120 666 CURVE",
"120 34 LINE",
"92 29 OFFCURVE",
"63 22 OFFCURVE",
"39 15 CURVE",
"39 0 LINE"
);
},
{
closed = 1;
nodes = (
"266 779 OFFCURVE",
"329 819 OFFCURVE",
"341 906 CURVE",
"275 906 LINE",
"267 831 OFFCURVE",
"218 821 OFFCURVE",
"177 821 CURVE SMOOTH",
"136 821 OFFCURVE",
"87 831 OFFCURVE",
"79 906 CURVE",
"13 906 LINE",
"25 819 OFFCURVE",
"88 779 OFFCURVE",
"177 779 CURVE SMOOTH"
);
}
);
width = 354;
}
);
note = Ibreve;
unicode = 012C;
},
{
glyphname = Icircumflex;
lastChange = "2015-10-01 17:12:31 +0000";
layers = (
{
layerId = "6933CEC8-9691-45CB-9271-BBFB30E0E1A0";
name = Regular;
paths = (
{
closed = 1;
nodes = (
"315 0 LINE",
"315 14 LINE",
"289 22 OFFCURVE",
"259 29 OFFCURVE",
"234 33 CURVE",
"234 666 LINE",
"262 671 OFFCURVE",
"291 677 OFFCURVE",
"315 685 CURVE",
"315 700 LINE",
"39 700 LINE",
"39 686 LINE",
"65 678 OFFCURVE",
"95 670 OFFCURVE",
"120 666 CURVE",
"120 34 LINE",
"92 29 OFFCURVE",
"63 22 OFFCURVE",
"39 15 CURVE",
"39 0 LINE"
);
},
{
closed = 1;
nodes = (
"96 811 OFFCURVE",
"149 861 OFFCURVE",
"174 897 CURVE",
"179 897 LINE",
"204 861 OFFCURVE",
"257 811 OFFCURVE",
"296 781 CURVE",
"342 818 LINE",
"300 845 OFFCURVE",
"230 908 OFFCURVE",
"203 947 CURVE",
"150 947 LINE",
"123 908 OFFCURVE",
"53 845 OFFCURVE",
"11 818 CURVE",
"57 781 LINE"
);
}
);
width = 354;
}
);
note = Icircumflex;
unicode = 00CE;
},
{
glyphname = Itilde;
lastChange = "2015-10-01 17:12:31 +0000";
layers = (
{
layerId = "6933CEC8-9691-45CB-9271-BBFB30E0E1A0";
name = Regular;
paths = (
{
closed = 1;
nodes = (
"315 0 LINE",
"315 14 LINE",
"289 22 OFFCURVE",
"259 29 OFFCURVE",
"234 33 CURVE",
"234 666 LINE",
"262 671 OFFCURVE",
"291 677 OFFCURVE",
"315 685 CURVE",
"315 700 LINE",
"39 700 LINE",
"39 686 LINE",
"65 678 OFFCURVE",
"95 670 OFFCURVE",
"120 666 CURVE",
"120 34 LINE",
"92 29 OFFCURVE",
"63 22 OFFCURVE",
"39 15 CURVE",
"39 0 LINE"
);
},
{
closed = 1;
nodes = (
"36 786 LINE",
"43 820 OFFCURVE",
"69 842 OFFCURVE",
"99 842 CURVE SMOOTH",
"138 842 OFFCURVE",
"198 787 OFFCURVE",
"251 787 CURVE SMOOTH",
"316 787 OFFCURVE",
"349 830 OFFCURVE",
"357 896 CURVE",
"319 896 LINE",
"309 852 OFFCURVE",
"280 838 OFFCURVE",
"252 838 CURVE SMOOTH",
"211 838 OFFCURVE",
"164 892 OFFCURVE",
"102 892 CURVE SMOOTH",
"44 892 OFFCURVE",
"6 858 OFFCURVE",
"-4 786 CURVE"
);
}
);
width = 354;
}
);
note = Itilde;
unicode = 0128;
},
{
glyphname = Idieresis;
lastChange = "2015-10-01 17:12:31 +0000";
layers = (
{
layerId = "6933CEC8-9691-45CB-9271-BBFB30E0E1A0";
name = Regular;
paths = (
{
closed = 1;
nodes = (
"315 0 LINE",
"315 14 LINE",
"289 22 OFFCURVE",
"259 29 OFFCURVE",
"234 33 CURVE",
"234 666 LINE",
"262 671 OFFCURVE",
"291 677 OFFCURVE",
"315 685 CURVE",
"315 700 LINE",
"39 700 LINE",
"39 686 LINE",
"65 678 OFFCURVE",
"95 670 OFFCURVE",
"120 666 CURVE",
"120 34 LINE",
"92 29 OFFCURVE",
"63 22 OFFCURVE",
"39 15 CURVE",
"39 0 LINE"
);
},
{
closed = 1;
nodes = (
"94 785 OFFCURVE",
"114 807 OFFCURVE",
"114 836 CURVE SMOOTH",
"114 866 OFFCURVE",
"94 888 OFFCURVE",
"63 888 CURVE SMOOTH",
"33 888 OFFCURVE",
"13 866 OFFCURVE",
"13 836 CURVE SMOOTH",
"13 807 OFFCURVE",
"33 785 OFFCURVE",
"63 785 CURVE SMOOTH"
);
},
{
closed = 1;
nodes = (
"320 785 OFFCURVE",
"340 807 OFFCURVE",
"340 836 CURVE SMOOTH",
"340 866 OFFCURVE",
"320 888 OFFCURVE",
"290 888 CURVE SMOOTH",
"259 888 OFFCURVE",
"240 866 OFFCURVE",
"240 836 CURVE SMOOTH",
"240 807 OFFCURVE",
"259 785 OFFCURVE",
"290 785 CURVE SMOOTH"
);
}
);
width = 354;
}
);
note = Idieresis;
unicode = 00CF;
},
{
glyphname = Imacron;
lastChange = "2015-10-01 17:12:33 +0000";
layers = (
{
layerId = "6933CEC8-9691-45CB-9271-BBFB30E0E1A0";
name = Regular;
paths = (
{
closed = 1;
nodes = (
"315 0 LINE",
"315 14 LINE",
"289 22 OFFCURVE",
"259 29 OFFCURVE",
"234 33 CURVE",
"234 666 LINE",
"262 671 OFFCURVE",
"291 677 OFFCURVE",
"315 685 CURVE",
"315 700 LINE",
"39 700 LINE",
"39 686 LINE",
"65 678 OFFCURVE",
"95 670 OFFCURVE",
"120 666 CURVE",
"120 34 LINE",
"92 29 OFFCURVE",
"63 22 OFFCURVE",
"39 15 CURVE",
"39 0 LINE"
);
},
{
closed = 1;
nodes = (
"366 785 LINE",
"366 825 LINE",
"-12 825 LINE",
"-12 785 LINE"
);
}
);
width = 354;
}
);
note = Imacron;
unicode = 012A;
},
{
glyphname = Idotaccent;
lastChange = "2015-10-01 17:12:32 +0000";
layers = (
{
layerId = "6933CEC8-9691-45CB-9271-BBFB30E0E1A0";
name = Regular;
paths = (
{
closed = 1;
nodes = (
"315 0 LINE",
"315 14 LINE",
"289 22 OFFCURVE",
"259 29 OFFCURVE",
"234 33 CURVE",
"234 666 LINE",
"262 671 OFFCURVE",
"291 677 OFFCURVE",
"315 685 CURVE",
"315 700 LINE",
"39 700 LINE",
"39 686 LINE",
"65 678 OFFCURVE",
"95 670 OFFCURVE",
"120 666 CURVE",
"120 34 LINE",
"92 29 OFFCURVE",
"63 22 OFFCURVE",
"39 15 CURVE",
"39 0 LINE"
);
},
{
closed = 1;
nodes = (
"206 785 OFFCURVE",
"226 807 OFFCURVE",
"226 836 CURVE SMOOTH",
"226 866 OFFCURVE",
"206 888 OFFCURVE",
"176 888 CURVE SMOOTH",
"145 888 OFFCURVE",
"126 866 OFFCURVE",
"126 836 CURVE SMOOTH",
"126 807 OFFCURVE",
"145 785 OFFCURVE",
"176 785 CURVE SMOOTH"
);
}
);
width = 354;
}
);
note = Idotaccent;
unicode = 0130;
},
{
glyphname = Iogonek;
lastChange = "2015-10-01 17:12:33 +0000";
layers = (
{
layerId = "6933CEC8-9691-45CB-9271-BBFB30E0E1A0";
name = Regular;
paths = (
{
closed = 1;
nodes = (
"315 0 LINE",
"315 14 LINE",
"289 22 OFFCURVE",
"259 29 OFFCURVE",
"234 33 CURVE",
"234 666 LINE",
"262 671 OFFCURVE",
"291 677 OFFCURVE",
"315 685 CURVE",
"315 700 LINE",
"39 700 LINE",
"39 686 LINE",
"65 678 OFFCURVE",
"95 670 OFFCURVE",
"120 666 CURVE",
"120 34 LINE",
"92 29 OFFCURVE",
"63 22 OFFCURVE",
"39 15 CURVE",
"39 0 LINE"
);
},
{
closed = 1;
nodes = (
"298 -193 OFFCURVE",
"331 -186 OFFCURVE",
"355 -173 CURVE",
"355 -125 LINE",
"334 -136 OFFCURVE",
"314 -141 OFFCURVE",
"297 -141 CURVE SMOOTH",
"261 -141 OFFCURVE",
"235 -123 OFFCURVE",
"235 -90 CURVE SMOOTH",
"235 -55 OFFCURVE",
"263 -19 OFFCURVE",
"294 0 CURVE",
"237 0 LINE",
"182 -19 OFFCURVE",
"150 -65 OFFCURVE",
"150 -110 CURVE SMOOTH",
"150 -156 OFFCURVE",
"189 -193 OFFCURVE",
"262 -193 CURVE SMOOTH"
);
}
);
width = 354;
}
);
note = Iogonek;
unicode = 012E;
},
{
glyphname = Jcircumflex;
lastChange = "2015-10-01 17:12:33 +0000";
layers = (
{
layerId = "6933CEC8-9691-45CB-9271-BBFB30E0E1A0";
name = Regular;
paths = (
{
closed = 1;
nodes = (
"291 -10 OFFCURVE",
"373 41 OFFCURVE",
"373 150 CURVE SMOOTH",
"373 665 LINE",
"400 668 OFFCURVE",
"428 677 OFFCURVE",
"452 685 CURVE",
"452 700 LINE",
"180 700 LINE",
"180 684 LINE",
"202 676 OFFCURVE",
"223 670 OFFCURVE",
"259 665 CURVE",
"259 148 LINE SMOOTH",
"259 67 OFFCURVE",
"211 39 OFFCURVE",
"151 39 CURVE SMOOTH",
"107 39 OFFCURVE",
"66 53 OFFCURVE",
"38 71 CURVE",
"20 42 LINE",
"60 9 OFFCURVE",
"119 -10 OFFCURVE",
"184 -10 CURVE SMOOTH"
);
},
{
closed = 1;
nodes = (
"235 811 OFFCURVE",
"288 861 OFFCURVE",
"313 897 CURVE",
"318 897 LINE",
"343 861 OFFCURVE",
"396 811 OFFCURVE",
"435 781 CURVE",
"481 818 LINE",
"439 845 OFFCURVE",
"369 908 OFFCURVE",
"342 947 CURVE",
"289 947 LINE",
"262 908 OFFCURVE",
"192 845 OFFCURVE",
"150 818 CURVE",
"196 781 LINE"
);
}
);
width = 489;
}
);
leftKerningGroup = J;
note = Jcircumflex;
rightKerningGroup = J;
unicode = 0134;
},
{
glyphname = Kcommaaccent;
lastChange = "2015-10-01 17:12:33 +0000";
layers = (
{
layerId = "6933CEC8-9691-45CB-9271-BBFB30E0E1A0";
name = Regular;
paths = (
{
closed = 1;
nodes = (
"606 661 LINE",
"628 675 OFFCURVE",
"653 676 OFFCURVE",
"675 681 CURVE",
"675 700 LINE",
"463 700 LINE",
"463 681 LINE",
"487 675 OFFCURVE",
"526 673 OFFCURVE",
"540 661 CURVE",
"195 292 LINE",
"195 223 LINE"
);
},
{
closed = 1;
nodes = (
"430 -281 OFFCURVE",
"464 -205 OFFCURVE",
"464 -143 CURVE SMOOTH",
"464 -104 OFFCURVE",
"446 -73 OFFCURVE",
"399 -73 CURVE SMOOTH",
"368 -73 OFFCURVE",
"338 -92 OFFCURVE",
"338 -128 CURVE SMOOTH",
"338 -166 OFFCURVE",
"362 -183 OFFCURVE",
"401 -183 CURVE",
"396 -225 OFFCURVE",
"371 -268 OFFCURVE",
"346 -295 CURVE",
"383 -324 LINE"
);
},
{
closed = 1;
nodes = (
"312 0 LINE",
"312 14 LINE",
"286 22 OFFCURVE",
"257 29 OFFCURVE",
"231 33 CURVE",
"231 666 LINE",
"259 671 OFFCURVE",
"287 677 OFFCURVE",
"312 685 CURVE",
"312 700 LINE",
"37 700 LINE",
"37 686 LINE",
"63 677 OFFCURVE",
"92 671 OFFCURVE",
"117 666 CURVE",
"117 34 LINE",
"103 32 OFFCURVE",
"63 23 OFFCURVE",
"37 15 CURVE",
"37 0 LINE"
);
},
{
closed = 1;
nodes = (
"751 0 LINE",
"751 14 LINE",
"719 23 OFFCURVE",
"689 29 OFFCURVE",
"666 33 CURVE",
"363 426 LINE",
"296 356 LINE",
"570 0 LINE"
);
}
);
width = 759;
}
);
note = Kcommaaccent;
rightKerningGroup = K;
unicode = 0136;
},
{
glyphname = Lacute;
lastChange = "2015-10-01 17:12:34 +0000";
layers = (
{
layerId = "6933CEC8-9691-45CB-9271-BBFB30E0E1A0";
name = Regular;
paths = (
{
closed = 1;
nodes = (
"562 0 LINE",
"577 155 LINE",
"552 155 LINE",
"538 135 OFFCURVE",
"512 72 OFFCURVE",
"510 40 CURVE",
"236 40 LINE",
"236 666 LINE",
"263 671 OFFCURVE",
"291 677 OFFCURVE",
"316 685 CURVE",
"316 700 LINE",
"41 700 LINE",
"41 686 LINE",
"68 677 OFFCURVE",
"96 671 OFFCURVE",
"122 666 CURVE",
"122 33 LINE",
"89 29 OFFCURVE",
"61 22 OFFCURVE",
"37 14 CURVE",
"37 0 LINE"
);
},
{
closed = 1;
nodes = (
"283 872 LINE SMOOTH",
"308 887 OFFCURVE",
"321 902 OFFCURVE",
"321 921 CURVE SMOOTH",
"321 936 OFFCURVE",
"309 953 OFFCURVE",
"284 953 CURVE SMOOTH",
"258 953 OFFCURVE",
"239 933 OFFCURVE",
"233 926 CURVE",
"116 813 LINE",
"135 786 LINE"
);
}
);
width = 618;
}
);
note = Lacute;
rightKerningGroup = L;
unicode = 0139;
},
{
glyphname = Lcaron;
lastChange = "2015-10-01 17:12:34 +0000";
layers = (
{
layerId = "6933CEC8-9691-45CB-9271-BBFB30E0E1A0";
name = Regular;
paths = (
{
closed = 1;
nodes = (
"562 0 LINE",
"577 155 LINE",
"552 155 LINE",
"538 135 OFFCURVE",
"512 72 OFFCURVE",
"510 40 CURVE",
"236 40 LINE",
"236 666 LINE",
"263 671 OFFCURVE",
"291 677 OFFCURVE",
"316 685 CURVE",
"316 700 LINE",
"41 700 LINE",
"41 686 LINE",
"68 677 OFFCURVE",
"96 671 OFFCURVE",
"122 666 CURVE",
"122 33 LINE",
"89 29 OFFCURVE",
"61 22 OFFCURVE",
"37 14 CURVE",
"37 0 LINE"
);
},
{
closed = 1;
nodes = (
"502 495 OFFCURVE",
"539 572 OFFCURVE",
"539 634 CURVE SMOOTH",
"539 672 OFFCURVE",
"522 710 OFFCURVE",
"470 710 CURVE SMOOTH",
"428 710 OFFCURVE",
"408 681 OFFCURVE",
"408 649 CURVE SMOOTH",
"408 606 OFFCURVE",
"442 593 OFFCURVE",
"467 593 CURVE SMOOTH",
"473 593 LINE",
"468 551 OFFCURVE",
"442 508 OFFCURVE",
"418 481 CURVE",
"455 452 LINE"
);
}
);
width = 618;
}
);
note = Lcaron;
rightKerningGroup = L;
unicode = 013D;
},
{
glyphname = Lcommaaccent;
lastChange = "2015-10-01 17:12:32 +0000";
layers = (
{
layerId = "6933CEC8-9691-45CB-9271-BBFB30E0E1A0";
name = Regular;
paths = (
{
closed = 1;
nodes = (
"562 0 LINE",
"577 155 LINE",
"552 155 LINE",
"538 135 OFFCURVE",
"512 72 OFFCURVE",
"510 40 CURVE",
"236 40 LINE",
"236 666 LINE",
"263 671 OFFCURVE",
"291 677 OFFCURVE",
"316 685 CURVE",
"316 700 LINE",
"41 700 LINE",
"41 686 LINE",
"68 677 OFFCURVE",
"96 671 OFFCURVE",
"122 666 CURVE",
"122 33 LINE",
"89 29 OFFCURVE",
"61 22 OFFCURVE",
"37 14 CURVE",
"37 0 LINE"
);
},
{
closed = 1;
nodes = (
"356 -281 OFFCURVE",
"390 -205 OFFCURVE",
"390 -143 CURVE SMOOTH",
"390 -104 OFFCURVE",
"372 -73 OFFCURVE",
"325 -73 CURVE SMOOTH",
"294 -73 OFFCURVE",
"264 -92 OFFCURVE",
"264 -128 CURVE SMOOTH",
"264 -166 OFFCURVE",
"288 -183 OFFCURVE",
"327 -183 CURVE",
"322 -225 OFFCURVE",
"297 -268 OFFCURVE",
"272 -295 CURVE",
"309 -324 LINE"
);
}
);
width = 618;
}
);
note = Lcommaaccent;
rightKerningGroup = L;
unicode = 013B;
},
{
glyphname = Lslash;
lastChange = "2015-10-01 17:12:33 +0000";
layers = (
{
layerId = "6933CEC8-9691-45CB-9271-BBFB30E0E1A0";
name = Regular;
paths = (
{
closed = 1;
nodes = (
"562 0 LINE",
"577 155 LINE",
"552 155 LINE",
"538 135 OFFCURVE",
"512 72 OFFCURVE",
"510 40 CURVE",
"236 40 LINE",
"236 666 LINE",
"263 671 OFFCURVE",
"291 677 OFFCURVE",
"316 685 CURVE",
"316 700 LINE",
"41 700 LINE",
"41 686 LINE",
"68 677 OFFCURVE",
"96 671 OFFCURVE",
"122 666 CURVE",
"122 33 LINE",
"89 29 OFFCURVE",
"61 22 OFFCURVE",
"37 14 CURVE",
"37 0 LINE"
);
},
{
closed = 1;
nodes = (
"441 381 LINE",
"441 435 LINE",
"38 290 LINE",
"38 236 LINE"
);
}
);
width = 618;
}
);
note = Lslash;
rightKerningGroup = L;
unicode = 0141;
},
{
glyphname = Ldot;
lastChange = "2015-10-01 17:12:31 +0000";
layers = (
{
layerId = "6933CEC8-9691-45CB-9271-BBFB30E0E1A0";
name = Regular;
paths = (
{
closed = 1;
nodes = (
"562 0 LINE",
"577 155 LINE",
"552 155 LINE",
"538 135 OFFCURVE",
"512 72 OFFCURVE",
"510 40 CURVE",
"236 40 LINE",
"236 666 LINE",
"263 671 OFFCURVE",
"291 677 OFFCURVE",
"316 685 CURVE",
"316 700 LINE",
"41 700 LINE",
"41 686 LINE",
"68 677 OFFCURVE",
"96 671 OFFCURVE",
"122 666 CURVE",
"122 33 LINE",
"89 29 OFFCURVE",
"61 22 OFFCURVE",
"37 14 CURVE",
"37 0 LINE"
);
},
{
closed = 1;
nodes = (
"450 330 OFFCURVE",
"470 351 OFFCURVE",
"470 381 CURVE SMOOTH",
"470 410 OFFCURVE",
"450 432 OFFCURVE",
"419 432 CURVE SMOOTH",
"389 432 OFFCURVE",
"369 410 OFFCURVE",
"369 381 CURVE SMOOTH",
"369 351 OFFCURVE",
"389 330 OFFCURVE",
"419 330 CURVE SMOOTH"
);
}
);
width = 618;
}
);
note = Ldot;
rightKerningGroup = L;
unicode = 013F;
},
{
glyphname = Nacute;
lastChange = "2015-10-01 17:12:33 +0000";
layers = (
{
layerId = "6933CEC8-9691-45CB-9271-BBFB30E0E1A0";
name = Regular;
paths = (
{
closed = 1;
nodes = (
"248 0 LINE",
"248 13 LINE",
"221 22 OFFCURVE",
"195 28 OFFCURVE",
"168 33 CURVE",
"168 640 LINE",
"602 0 LINE",
"664 0 LINE",
"664 667 LINE",
"691 672 OFFCURVE",
"717 678 OFFCURVE",
"744 686 CURVE",
"744 700 LINE",
"533 700 LINE",
"533 686 LINE",
"560 678 OFFCURVE",
"587 672 OFFCURVE",
"613 667 CURVE",
"613 141 LINE",
"237 700 LINE",
"37 700 LINE",
"37 686 LINE",
"63 677 OFFCURVE",
"91 671 OFFCURVE",
"117 666 CURVE",
"117 32 LINE",
"91 28 OFFCURVE",
"64 22 OFFCURVE",
"37 13 CURVE",
"37 0 LINE"
);
},
{
closed = 1;
nodes = (
"492 872 LINE SMOOTH",
"517 887 OFFCURVE",
"530 902 OFFCURVE",
"530 921 CURVE SMOOTH",
"530 936 OFFCURVE",
"518 953 OFFCURVE",
"493 953 CURVE SMOOTH",
"467 953 OFFCURVE",
"448 933 OFFCURVE",
"442 926 CURVE",
"325 813 LINE",
"344 786 LINE"
);
}
);
width = 781;
}
);
note = Nacute;
unicode = 0143;
},
{
glyphname = Ncaron;
lastChange = "2015-10-01 17:12:32 +0000";
layers = (
{
layerId = "6933CEC8-9691-45CB-9271-BBFB30E0E1A0";
name = Regular;
paths = (
{
closed = 1;
nodes = (
"248 0 LINE",
"248 13 LINE",
"221 22 OFFCURVE",
"195 28 OFFCURVE",
"168 33 CURVE",
"168 640 LINE",
"602 0 LINE",
"664 0 LINE",
"664 667 LINE",
"691 672 OFFCURVE",
"717 678 OFFCURVE",
"744 686 CURVE",
"744 700 LINE",
"533 700 LINE",
"533 686 LINE",
"560 678 OFFCURVE",
"587 672 OFFCURVE",
"613 667 CURVE",
"613 141 LINE",
"237 700 LINE",
"37 700 LINE",
"37 686 LINE",
"63 677 OFFCURVE",
"91 671 OFFCURVE",
"117 666 CURVE",
"117 32 LINE",
"91 28 OFFCURVE",
"64 22 OFFCURVE",
"37 13 CURVE",
"37 0 LINE"
);
},
{
closed = 1;
nodes = (
"416 786 LINE",
"443 826 OFFCURVE",
"513 888 OFFCURVE",
"555 916 CURVE",
"509 952 LINE",
"470 923 OFFCURVE",
"417 873 OFFCURVE",
"392 837 CURVE",
"387 837 LINE",
"362 873 OFFCURVE",
"309 923 OFFCURVE",
"270 952 CURVE",
"224 916 LINE",
"266 888 OFFCURVE",
"336 826 OFFCURVE",
"363 786 CURVE"
);
}
);
width = 781;
}
);
note = Ncaron;
unicode = 0147;
},
{
glyphname = Ntilde;
lastChange = "2015-10-01 17:12:33 +0000";
layers = (
{
layerId = "6933CEC8-9691-45CB-9271-BBFB30E0E1A0";
name = Regular;
paths = (
{
closed = 1;
nodes = (
"248 0 LINE",
"248 13 LINE",
"221 22 OFFCURVE",
"195 28 OFFCURVE",
"168 33 CURVE",
"168 640 LINE",
"602 0 LINE",
"664 0 LINE",
"664 667 LINE",
"691 672 OFFCURVE",
"717 678 OFFCURVE",
"744 686 CURVE",
"744 700 LINE",
"533 700 LINE",
"533 686 LINE",
"560 678 OFFCURVE",
"587 672 OFFCURVE",
"613 667 CURVE",
"613 141 LINE",
"237 700 LINE",
"37 700 LINE",
"37 686 LINE",
"63 677 OFFCURVE",
"91 671 OFFCURVE",
"117 666 CURVE",
"117 32 LINE",
"91 28 OFFCURVE",
"64 22 OFFCURVE",
"37 13 CURVE",
"37 0 LINE"
);
},
{
closed = 1;
nodes = (
"255 786 LINE",
"262 820 OFFCURVE",
"288 842 OFFCURVE",
"318 842 CURVE SMOOTH",
"357 842 OFFCURVE",
"417 787 OFFCURVE",
"470 787 CURVE SMOOTH",
"535 787 OFFCURVE",
"568 830 OFFCURVE",
"576 896 CURVE",
"538 896 LINE",
"528 852 OFFCURVE",
"499 838 OFFCURVE",
"471 838 CURVE SMOOTH",
"430 838 OFFCURVE",
"383 892 OFFCURVE",
"321 892 CURVE SMOOTH",
"263 892 OFFCURVE",
"225 858 OFFCURVE",
"215 786 CURVE"
);
}
);
width = 781;
}
);
note = Ntilde;
unicode = 00D1;
},
{
glyphname = Ncommaaccent;
lastChange = "2015-10-01 17:12:31 +0000";
layers = (
{
layerId = "6933CEC8-9691-45CB-9271-BBFB30E0E1A0";
name = Regular;
paths = (
{
closed = 1;
nodes = (
"248 0 LINE",
"248 13 LINE",
"221 22 OFFCURVE",
"195 28 OFFCURVE",
"168 33 CURVE",
"168 640 LINE",
"602 0 LINE",
"664 0 LINE",
"664 667 LINE",
"691 672 OFFCURVE",
"717 678 OFFCURVE",
"744 686 CURVE",
"744 700 LINE",
"533 700 LINE",
"533 686 LINE",
"560 678 OFFCURVE",
"587 672 OFFCURVE",
"613 667 CURVE",
"613 141 LINE",
"237 700 LINE",
"37 700 LINE",
"37 686 LINE",
"63 677 OFFCURVE",
"91 671 OFFCURVE",
"117 666 CURVE",
"117 32 LINE",
"91 28 OFFCURVE",
"64 22 OFFCURVE",
"37 13 CURVE",
"37 0 LINE"
);
},
{
closed = 1;
nodes = (
"424 -281 OFFCURVE",
"458 -205 OFFCURVE",
"458 -143 CURVE SMOOTH",
"458 -104 OFFCURVE",
"440 -73 OFFCURVE",
"393 -73 CURVE SMOOTH",
"362 -73 OFFCURVE",
"332 -92 OFFCURVE",
"332 -128 CURVE SMOOTH",
"332 -166 OFFCURVE",
"356 -183 OFFCURVE",
"395 -183 CURVE",
"390 -225 OFFCURVE",
"365 -268 OFFCURVE",
"340 -295 CURVE",
"377 -324 LINE"
);
}
);
width = 781;
}
);
note = Ncommaaccent;
unicode = 0145;
},
{
glyphname = Ograve;
lastChange = "2015-10-01 17:12:31 +0000";
layers = (
{
layerId = "6933CEC8-9691-45CB-9271-BBFB30E0E1A0";
name = Regular;
paths = (
{
closed = 1;
nodes = (
"580 -10 OFFCURVE",
"696 127 OFFCURVE",
"696 350 CURVE SMOOTH",
"696 572 OFFCURVE",
"580 710 OFFCURVE",
"366 710 CURVE SMOOTH",
"151 710 OFFCURVE",
"36 572 OFFCURVE",
"36 350 CURVE SMOOTH",
"36 127 OFFCURVE",
"151 -10 OFFCURVE",
"366 -10 CURVE SMOOTH"
);
},
{
closed = 1;
nodes = (
"219 32 OFFCURVE",
"151 166 OFFCURVE",
"151 350 CURVE SMOOTH",
"151 534 OFFCURVE",
"219 668 OFFCURVE",
"366 668 CURVE SMOOTH",
"513 668 OFFCURVE",
"581 534 OFFCURVE",
"581 350 CURVE SMOOTH",
"581 166 OFFCURVE",
"513 32 OFFCURVE",
"366 32 CURVE SMOOTH"
);
},
{
closed = 1;
nodes = (
"463 813 LINE",
"345 927 LINE SMOOTH",
"337 935 OFFCURVE",
"319 953 OFFCURVE",
"295 953 CURVE SMOOTH",
"269 953 OFFCURVE",
"257 936 OFFCURVE",
"257 921 CURVE SMOOTH",
"257 902 OFFCURVE",
"271 887 OFFCURVE",
"296 872 CURVE SMOOTH",
"444 786 LINE"
);
}
);
width = 732;
}
);
leftKerningGroup = O;
note = Ograve;
rightKerningGroup = O;
unicode = 00D2;
},
{
glyphname = Oacute;
lastChange = "2015-10-01 17:12:31 +0000";
layers = (
{
layerId = "6933CEC8-9691-45CB-9271-BBFB30E0E1A0";
name = Regular;
paths = (
{
closed = 1;
nodes = (
"580 -10 OFFCURVE",
"696 127 OFFCURVE",
"696 350 CURVE SMOOTH",
"696 572 OFFCURVE",
"580 710 OFFCURVE",
"366 710 CURVE SMOOTH",
"151 710 OFFCURVE",
"36 572 OFFCURVE",
"36 350 CURVE SMOOTH",
"36 127 OFFCURVE",
"151 -10 OFFCURVE",
"366 -10 CURVE SMOOTH"
);
},
{
closed = 1;
nodes = (
"219 32 OFFCURVE",
"151 166 OFFCURVE",
"151 350 CURVE SMOOTH",
"151 534 OFFCURVE",
"219 668 OFFCURVE",
"366 668 CURVE SMOOTH",
"513 668 OFFCURVE",
"581 534 OFFCURVE",
"581 350 CURVE SMOOTH",
"581 166 OFFCURVE",
"513 32 OFFCURVE",
"366 32 CURVE SMOOTH"
);
},
{
closed = 1;
nodes = (
"435 872 LINE SMOOTH",
"460 887 OFFCURVE",
"473 902 OFFCURVE",
"473 921 CURVE SMOOTH",
"473 936 OFFCURVE",
"461 953 OFFCURVE",
"436 953 CURVE SMOOTH",
"410 953 OFFCURVE",
"391 933 OFFCURVE",
"385 926 CURVE",
"268 813 LINE",
"287 786 LINE"
);
}
);
width = 732;
}
);
leftKerningGroup = O;
note = Oacute;
rightKerningGroup = O;
unicode = 00D3;
},
{
glyphname = Ocircumflex;
lastChange = "2015-10-01 17:12:31 +0000";
layers = (
{
layerId = "6933CEC8-9691-45CB-9271-BBFB30E0E1A0";
name = Regular;
paths = (
{
closed = 1;
nodes = (
"580 -10 OFFCURVE",
"696 127 OFFCURVE",
"696 350 CURVE SMOOTH",
"696 572 OFFCURVE",
"580 710 OFFCURVE",
"366 710 CURVE SMOOTH",
"151 710 OFFCURVE",
"36 572 OFFCURVE",
"36 350 CURVE SMOOTH",
"36 127 OFFCURVE",
"151 -10 OFFCURVE",
"366 -10 CURVE SMOOTH"
);
},
{
closed = 1;
nodes = (
"219 32 OFFCURVE",
"151 166 OFFCURVE",
"151 350 CURVE SMOOTH",
"151 534 OFFCURVE",
"219 668 OFFCURVE",
"366 668 CURVE SMOOTH",
"513 668 OFFCURVE",
"581 534 OFFCURVE",
"581 350 CURVE SMOOTH",
"581 166 OFFCURVE",
"513 32 OFFCURVE",
"366 32 CURVE SMOOTH"
);
},
{
closed = 1;
nodes = (
"285 811 OFFCURVE",
"338 861 OFFCURVE",
"363 897 CURVE",
"368 897 LINE",
"393 861 OFFCURVE",
"446 811 OFFCURVE",
"485 781 CURVE",
"531 818 LINE",
"489 845 OFFCURVE",
"419 908 OFFCURVE",
"392 947 CURVE",
"339 947 LINE",
"312 908 OFFCURVE",
"242 845 OFFCURVE",
"200 818 CURVE",
"246 781 LINE"
);
}
);
width = 732;
}
);
leftKerningGroup = O;
note = Ocircumflex;
rightKerningGroup = O;
unicode = 00D4;
},
{
glyphname = Otilde;
lastChange = "2015-10-01 17:12:33 +0000";
layers = (
{
layerId = "6933CEC8-9691-45CB-9271-BBFB30E0E1A0";
name = Regular;
paths = (
{
closed = 1;
nodes = (
"580 -10 OFFCURVE",
"696 127 OFFCURVE",
"696 350 CURVE SMOOTH",
"696 572 OFFCURVE",
"580 710 OFFCURVE",
"366 710 CURVE SMOOTH",
"151 710 OFFCURVE",
"36 572 OFFCURVE",
"36 350 CURVE SMOOTH",
"36 127 OFFCURVE",
"151 -10 OFFCURVE",
"366 -10 CURVE SMOOTH"
);
},
{
closed = 1;
nodes = (
"219 32 OFFCURVE",
"151 166 OFFCURVE",
"151 350 CURVE SMOOTH",
"151 534 OFFCURVE",
"219 668 OFFCURVE",
"366 668 CURVE SMOOTH",
"513 668 OFFCURVE",
"581 534 OFFCURVE",
"581 350 CURVE SMOOTH",
"581 166 OFFCURVE",
"513 32 OFFCURVE",
"366 32 CURVE SMOOTH"
);
},
{
closed = 1;
nodes = (
"225 786 LINE",
"232 820 OFFCURVE",
"258 842 OFFCURVE",
"288 842 CURVE SMOOTH",
"327 842 OFFCURVE",
"387 787 OFFCURVE",
"440 787 CURVE SMOOTH",
"505 787 OFFCURVE",
"538 830 OFFCURVE",
"546 896 CURVE",
"508 896 LINE",
"498 852 OFFCURVE",
"469 838 OFFCURVE",
"441 838 CURVE SMOOTH",
"400 838 OFFCURVE",
"353 892 OFFCURVE",
"291 892 CURVE SMOOTH",
"233 892 OFFCURVE",
"195 858 OFFCURVE",
"185 786 CURVE"
);
}
);
width = 732;
}
);
leftKerningGroup = O;
note = Otilde;
rightKerningGroup = O;
unicode = 00D5;
},
{
glyphname = Odieresis;
lastChange = "2015-10-01 17:12:31 +0000";
layers = (
{
layerId = "6933CEC8-9691-45CB-9271-BBFB30E0E1A0";
name = Regular;
paths = (
{
closed = 1;
nodes = (
"580 -10 OFFCURVE",
"696 127 OFFCURVE",
"696 350 CURVE SMOOTH",
"696 572 OFFCURVE",
"580 710 OFFCURVE",
"366 710 CURVE SMOOTH",
"151 710 OFFCURVE",
"36 572 OFFCURVE",
"36 350 CURVE SMOOTH",
"36 127 OFFCURVE",
"151 -10 OFFCURVE",
"366 -10 CURVE SMOOTH"
);
},
{
closed = 1;
nodes = (
"219 32 OFFCURVE",
"151 166 OFFCURVE",
"151 350 CURVE SMOOTH",
"151 534 OFFCURVE",
"219 668 OFFCURVE",
"366 668 CURVE SMOOTH",
"513 668 OFFCURVE",
"581 534 OFFCURVE",
"581 350 CURVE SMOOTH",
"581 166 OFFCURVE",
"513 32 OFFCURVE",
"366 32 CURVE SMOOTH"
);
},
{
closed = 1;
nodes = (
"283 785 OFFCURVE",
"303 807 OFFCURVE",
"303 836 CURVE SMOOTH",
"303 866 OFFCURVE",
"283 888 OFFCURVE",
"252 888 CURVE SMOOTH",
"222 888 OFFCURVE",
"202 866 OFFCURVE",
"202 836 CURVE SMOOTH",
"202 807 OFFCURVE",
"222 785 OFFCURVE",
"252 785 CURVE SMOOTH"
);
},
{
closed = 1;
nodes = (
"509 785 OFFCURVE",
"529 807 OFFCURVE",
"529 836 CURVE SMOOTH",
"529 866 OFFCURVE",
"509 888 OFFCURVE",
"479 888 CURVE SMOOTH",
"448 888 OFFCURVE",
"429 866 OFFCURVE",
"429 836 CURVE SMOOTH",
"429 807 OFFCURVE",
"448 785 OFFCURVE",
"479 785 CURVE SMOOTH"
);
}
);
width = 732;
}
);
leftKerningGroup = O;
note = Odieresis;
rightKerningGroup = O;
unicode = 00D6;
},
{
glyphname = Omacron;
lastChange = "2015-10-01 17:12:32 +0000";
layers = (
{
layerId = "6933CEC8-9691-45CB-9271-BBFB30E0E1A0";
name = Regular;
paths = (
{
closed = 1;
nodes = (
"580 -10 OFFCURVE",
"696 127 OFFCURVE",
"696 350 CURVE SMOOTH",
"696 572 OFFCURVE",
"580 710 OFFCURVE",
"366 710 CURVE SMOOTH",
"151 710 OFFCURVE",
"36 572 OFFCURVE",
"36 350 CURVE SMOOTH",
"36 127 OFFCURVE",
"151 -10 OFFCURVE",
"366 -10 CURVE SMOOTH"
);
},
{
closed = 1;
nodes = (
"219 32 OFFCURVE",
"151 166 OFFCURVE",
"151 350 CURVE SMOOTH",
"151 534 OFFCURVE",
"219 668 OFFCURVE",
"366 668 CURVE SMOOTH",
"513 668 OFFCURVE",
"581 534 OFFCURVE",
"581 350 CURVE SMOOTH",
"581 166 OFFCURVE",
"513 32 OFFCURVE",
"366 32 CURVE SMOOTH"
);
},
{
closed = 1;
nodes = (
"541 795 LINE",
"541 835 LINE",
"189 835 LINE",
"189 795 LINE"
);
}
);
width = 732;
}
);
leftKerningGroup = O;
note = Omacron;
rightKerningGroup = O;
unicode = 014C;
},
{
glyphname = Obreve;
lastChange = "2015-10-01 17:12:32 +0000";
layers = (
{
layerId = "6933CEC8-9691-45CB-9271-BBFB30E0E1A0";
name = Regular;
paths = (
{
closed = 1;
nodes = (
"580 -10 OFFCURVE",
"696 127 OFFCURVE",
"696 350 CURVE SMOOTH",
"696 572 OFFCURVE",
"580 710 OFFCURVE",
"366 710 CURVE SMOOTH",
"151 710 OFFCURVE",
"36 572 OFFCURVE",
"36 350 CURVE SMOOTH",
"36 127 OFFCURVE",
"151 -10 OFFCURVE",
"366 -10 CURVE SMOOTH"
);
},
{
closed = 1;
nodes = (
"219 32 OFFCURVE",
"151 166 OFFCURVE",
"151 350 CURVE SMOOTH",
"151 534 OFFCURVE",
"219 668 OFFCURVE",
"366 668 CURVE SMOOTH",
"513 668 OFFCURVE",
"581 534 OFFCURVE",
"581 350 CURVE SMOOTH",
"581 166 OFFCURVE",
"513 32 OFFCURVE",
"366 32 CURVE SMOOTH"
);
},
{
closed = 1;
nodes = (
"455 778 OFFCURVE",
"518 818 OFFCURVE",
"530 905 CURVE",
"464 905 LINE",
"456 830 OFFCURVE",
"407 820 OFFCURVE",
"366 820 CURVE SMOOTH",
"325 820 OFFCURVE",
"276 830 OFFCURVE",
"268 905 CURVE",
"202 905 LINE",
"214 818 OFFCURVE",
"277 778 OFFCURVE",
"366 778 CURVE SMOOTH"
);
}
);
width = 732;
}
);
leftKerningGroup = O;
note = Obreve;
rightKerningGroup = O;
unicode = 014E;
},
{
glyphname = Ohungarumlaut;
lastChange = "2015-10-01 17:12:33 +0000";
layers = (
{
layerId = "6933CEC8-9691-45CB-9271-BBFB30E0E1A0";
name = Regular;
paths = (
{
closed = 1;
nodes = (
"580 -10 OFFCURVE",
"696 127 OFFCURVE",
"696 350 CURVE SMOOTH",
"696 572 OFFCURVE",
"580 710 OFFCURVE",
"366 710 CURVE SMOOTH",
"151 710 OFFCURVE",
"36 572 OFFCURVE",
"36 350 CURVE SMOOTH",
"36 127 OFFCURVE",
"151 -10 OFFCURVE",
"366 -10 CURVE SMOOTH"
);
},
{
closed = 1;
nodes = (
"219 32 OFFCURVE",
"151 166 OFFCURVE",
"151 350 CURVE SMOOTH",
"151 534 OFFCURVE",
"219 668 OFFCURVE",
"366 668 CURVE SMOOTH",
"513 668 OFFCURVE",
"581 534 OFFCURVE",
"581 350 CURVE SMOOTH",
"581 166 OFFCURVE",
"513 32 OFFCURVE",
"366 32 CURVE SMOOTH"
);
},
{
closed = 1;
nodes = (
"375 871 LINE SMOOTH",
"400 886 OFFCURVE",
"414 901 OFFCURVE",
"414 920 CURVE SMOOTH",
"414 935 OFFCURVE",
"402 952 OFFCURVE",
"376 952 CURVE SMOOTH",
"351 952 OFFCURVE",
"331 932 OFFCURVE",
"325 925 CURVE",
"208 812 LINE",
"227 785 LINE"
);
},
{
closed = 1;
nodes = (
"580 871 LINE SMOOTH",
"605 886 OFFCURVE",
"619 901 OFFCURVE",
"619 920 CURVE SMOOTH",
"619 935 OFFCURVE",
"607 952 OFFCURVE",
"581 952 CURVE SMOOTH",
"556 952 OFFCURVE",
"536 932 OFFCURVE",
"530 925 CURVE",
"413 812 LINE",
"432 785 LINE"
);
}
);
width = 732;
}
);
leftKerningGroup = O;
note = Ohungarumlaut;
rightKerningGroup = O;
unicode = 0150;
},
{
glyphname = Oslash;
lastChange = "2015-10-01 17:12:32 +0000";
layers = (
{
layerId = "6933CEC8-9691-45CB-9271-BBFB30E0E1A0";
name = Regular;
paths = (
{
closed = 1;
nodes = (
"580 -10 OFFCURVE",
"696 127 OFFCURVE",
"696 350 CURVE SMOOTH",
"696 572 OFFCURVE",
"580 710 OFFCURVE",
"366 710 CURVE SMOOTH",
"151 710 OFFCURVE",
"36 572 OFFCURVE",
"36 350 CURVE SMOOTH",
"36 127 OFFCURVE",
"151 -10 OFFCURVE",
"366 -10 CURVE SMOOTH"
);
},
{
closed = 1;
nodes = (
"642 696 LINE",
"606 722 LINE",
"72 -6 LINE",
"106 -32 LINE"
);
},
{
closed = 1;
nodes = (
"219 32 OFFCURVE",
"151 166 OFFCURVE",
"151 350 CURVE SMOOTH",
"151 534 OFFCURVE",
"219 668 OFFCURVE",
"366 668 CURVE SMOOTH",
"513 668 OFFCURVE",
"581 534 OFFCURVE",
"581 350 CURVE SMOOTH",
"581 166 OFFCURVE",
"513 32 OFFCURVE",
"366 32 CURVE SMOOTH"
);
}
);
width = 732;
}
);
leftKerningGroup = O;
note = Oslash;
rightKerningGroup = O;
unicode = 00D8;
},
{
glyphname = Oslashacute;
lastChange = "2015-10-01 17:12:31 +0000";
layers = (
{
layerId = "6933CEC8-9691-45CB-9271-BBFB30E0E1A0";
name = Regular;
paths = (
{
closed = 1;
nodes = (
"580 -10 OFFCURVE",
"696 127 OFFCURVE",
"696 350 CURVE SMOOTH",
"696 572 OFFCURVE",
"580 710 OFFCURVE",
"366 710 CURVE SMOOTH",
"151 710 OFFCURVE",
"36 572 OFFCURVE",
"36 350 CURVE SMOOTH",
"36 127 OFFCURVE",
"151 -10 OFFCURVE",
"366 -10 CURVE SMOOTH"
);
},
{
closed = 1;
nodes = (
"642 696 LINE",
"606 722 LINE",
"72 -6 LINE",
"106 -32 LINE"
);
},
{
closed = 1;
nodes = (
"219 32 OFFCURVE",
"151 166 OFFCURVE",
"151 350 CURVE SMOOTH",
"151 534 OFFCURVE",
"219 668 OFFCURVE",
"366 668 CURVE SMOOTH",
"513 668 OFFCURVE",
"581 534 OFFCURVE",
"581 350 CURVE SMOOTH",
"581 166 OFFCURVE",
"513 32 OFFCURVE",
"366 32 CURVE SMOOTH"
);
},
{
closed = 1;
nodes = (
"444 872 LINE SMOOTH",
"469 887 OFFCURVE",
"482 902 OFFCURVE",
"482 921 CURVE SMOOTH",
"482 936 OFFCURVE",
"470 953 OFFCURVE",
"445 953 CURVE SMOOTH",
"419 953 OFFCURVE",
"400 933 OFFCURVE",
"394 926 CURVE",
"277 813 LINE",
"296 786 LINE"
);
}
);
width = 732;
}
);
leftKerningGroup = O;
note = Oslashacute;
rightKerningGroup = O;
unicode = 01FE;
},
{
glyphname = OE;
lastChange = "2015-10-01 17:12:33 +0000";
layers = (
{
layerId = "6933CEC8-9691-45CB-9271-BBFB30E0E1A0";
name = Regular;
paths = (
{
closed = 1;
nodes = (
"421 -10 OFFCURVE",
"473 7 OFFCURVE",
"518 47 CURVE",
"518 0 LINE",
"965 0 LINE",
"981 155 LINE",
"955 155 LINE",
"941 135 OFFCURVE",
"916 72 OFFCURVE",
"913 40 CURVE",
"632 40 LINE",
"632 339 LINE",
"829 339 LINE",
"831 322 OFFCURVE",
"838 282 OFFCURVE",
"848 255 CURVE",
"867 255 LINE",
"867 464 LINE",
"848 464 LINE",
"838 438 OFFCURVE",
"831 398 OFFCURVE",
"829 380 CURVE",
"632 380 LINE",
"632 659 LINE",
"909 659 LINE",
"911 631 OFFCURVE",
"928 565 OFFCURVE",
"940 544 CURVE",
"966 544 LINE",
"966 700 LINE",
"518 700 LINE",
"518 650 LINE",
"478 688 OFFCURVE",
"421 710 OFFCURVE",
"348 710 CURVE SMOOTH",
"133 710 OFFCURVE",
"36 546 OFFCURVE",
"36 350 CURVE SMOOTH",
"36 153 OFFCURVE",
"133 -10 OFFCURVE",
"348 -10 CURVE SMOOTH"
);
},
{
closed = 1;
nodes = (
"220 32 OFFCURVE",
"152 166 OFFCURVE",
"152 350 CURVE SMOOTH",
"152 534 OFFCURVE",
"220 668 OFFCURVE",
"366 668 CURVE SMOOTH",
"433 668 OFFCURVE",
"487 633 OFFCURVE",
"518 588 CURVE",
"518 111 LINE",
"484 63 OFFCURVE",
"433 32 OFFCURVE",
"366 32 CURVE SMOOTH"
);
}
);
width = 1026;
}
);
note = OE;
unicode = 0152;
},
{
glyphname = Racute;
lastChange = "2015-10-01 17:12:33 +0000";
layers = (
{
layerId = "6933CEC8-9691-45CB-9271-BBFB30E0E1A0";
name = Regular;
paths = (
{
closed = 1;
nodes = (
"313 0 LINE",
"313 14 LINE",
"287 22 OFFCURVE",
"257 29 OFFCURVE",
"232 33 CURVE",
"232 300 LINE",
"385 300 LINE SMOOTH",
"526 300 OFFCURVE",
"604 378 OFFCURVE",
"604 503 CURVE SMOOTH",
"604 619 OFFCURVE",
"551 700 OFFCURVE",
"385 700 CURVE SMOOTH",
"39 700 LINE",
"39 686 LINE",
"66 677 OFFCURVE",
"92 671 OFFCURVE",
"118 666 CURVE",
"118 34 LINE",
"103 32 OFFCURVE",
"63 23 OFFCURVE",
"37 15 CURVE",
"37 0 LINE"
);
},
{
closed = 1;
nodes = (
"663 0 LINE",
"663 14 LINE",
"641 23 OFFCURVE",
"611 29 OFFCURVE",
"589 33 CURVE",
"433 312 LINE",
"332 312 LINE",
"498 0 LINE"
);
},
{
closed = 1;
nodes = (
"232 659 LINE",
"350 659 LINE SMOOTH",
"449 659 OFFCURVE",
"491 604 OFFCURVE",
"491 504 CURVE SMOOTH",
"491 406 OFFCURVE",
"451 340 OFFCURVE",
"350 340 CURVE SMOOTH",
"232 340 LINE"
);
},
{
closed = 1;
nodes = (
"409 872 LINE SMOOTH",
"434 887 OFFCURVE",
"447 902 OFFCURVE",
"447 921 CURVE SMOOTH",
"447 936 OFFCURVE",
"435 953 OFFCURVE",
"410 953 CURVE SMOOTH",
"384 953 OFFCURVE",
"365 933 OFFCURVE",
"359 926 CURVE",
"242 813 LINE",
"261 786 LINE"
);
}
);
width = 686;
}
);
note = Racute;
rightKerningGroup = R;
unicode = 0154;
},
{
glyphname = Rcaron;
lastChange = "2015-10-01 17:12:31 +0000";
layers = (
{
layerId = "6933CEC8-9691-45CB-9271-BBFB30E0E1A0";
name = Regular;
paths = (
{
closed = 1;
nodes = (
"313 0 LINE",
"313 14 LINE",
"287 22 OFFCURVE",
"257 29 OFFCURVE",
"232 33 CURVE",
"232 300 LINE",
"385 300 LINE SMOOTH",
"526 300 OFFCURVE",
"604 378 OFFCURVE",
"604 503 CURVE SMOOTH",
"604 619 OFFCURVE",
"551 700 OFFCURVE",
"385 700 CURVE SMOOTH",
"39 700 LINE",
"39 686 LINE",
"66 677 OFFCURVE",
"92 671 OFFCURVE",
"118 666 CURVE",
"118 34 LINE",
"103 32 OFFCURVE",
"63 23 OFFCURVE",
"37 15 CURVE",
"37 0 LINE"
);
},
{
closed = 1;
nodes = (
"663 0 LINE",
"663 14 LINE",
"641 23 OFFCURVE",
"611 29 OFFCURVE",
"589 33 CURVE",
"433 312 LINE",
"332 312 LINE",
"498 0 LINE"
);
},
{
closed = 1;
nodes = (
"232 659 LINE",
"350 659 LINE SMOOTH",
"449 659 OFFCURVE",
"491 604 OFFCURVE",
"491 504 CURVE SMOOTH",
"491 406 OFFCURVE",
"451 340 OFFCURVE",
"350 340 CURVE SMOOTH",
"232 340 LINE"
);
},
{
closed = 1;
nodes = (
"362 786 LINE",
"389 826 OFFCURVE",
"459 888 OFFCURVE",
"501 916 CURVE",
"455 952 LINE",
"416 923 OFFCURVE",
"363 873 OFFCURVE",
"338 837 CURVE",
"333 837 LINE",
"308 873 OFFCURVE",
"255 923 OFFCURVE",
"216 952 CURVE",
"170 916 LINE",
"212 888 OFFCURVE",
"282 826 OFFCURVE",
"309 786 CURVE"
);
}
);
width = 686;
}
);
note = Rcaron;
rightKerningGroup = R;
unicode = 0158;
},
{
glyphname = Rcommaaccent;
lastChange = "2015-10-01 17:12:31 +0000";
layers = (
{
layerId = "6933CEC8-9691-45CB-9271-BBFB30E0E1A0";
name = Regular;
paths = (
{
closed = 1;
nodes = (
"313 0 LINE",
"313 14 LINE",
"287 22 OFFCURVE",
"257 29 OFFCURVE",
"232 33 CURVE",
"232 300 LINE",
"385 300 LINE SMOOTH",
"526 300 OFFCURVE",
"604 378 OFFCURVE",
"604 503 CURVE SMOOTH",
"604 619 OFFCURVE",
"551 700 OFFCURVE",
"385 700 CURVE SMOOTH",
"39 700 LINE",
"39 686 LINE",
"66 677 OFFCURVE",
"92 671 OFFCURVE",
"118 666 CURVE",
"118 34 LINE",
"103 32 OFFCURVE",
"63 23 OFFCURVE",
"37 15 CURVE",
"37 0 LINE"
);
},
{
closed = 1;
nodes = (
"392 -281 OFFCURVE",
"426 -205 OFFCURVE",
"426 -143 CURVE SMOOTH",
"426 -104 OFFCURVE",
"408 -73 OFFCURVE",
"361 -73 CURVE SMOOTH",
"330 -73 OFFCURVE",
"300 -92 OFFCURVE",
"300 -128 CURVE SMOOTH",
"300 -166 OFFCURVE",
"324 -183 OFFCURVE",
"363 -183 CURVE",
"358 -225 OFFCURVE",
"333 -268 OFFCURVE",
"308 -295 CURVE",
"345 -324 LINE"
);
},
{
closed = 1;
nodes = (
"663 0 LINE",
"663 14 LINE",
"641 23 OFFCURVE",
"611 29 OFFCURVE",
"589 33 CURVE",
"433 312 LINE",
"332 312 LINE",
"498 0 LINE"
);
},
{
closed = 1;
nodes = (
"232 659 LINE",
"350 659 LINE SMOOTH",
"449 659 OFFCURVE",
"491 604 OFFCURVE",
"491 504 CURVE SMOOTH",
"491 406 OFFCURVE",
"451 340 OFFCURVE",
"350 340 CURVE SMOOTH",
"232 340 LINE"
);
}
);
width = 686;
}
);
note = Rcommaaccent;
rightKerningGroup = R;
unicode = 0156;
},
{
glyphname = Sacute;
lastChange = "2015-10-01 17:12:31 +0000";
layers = (
{
layerId = "6933CEC8-9691-45CB-9271-BBFB30E0E1A0";
name = Regular;
paths = (
{
closed = 1;
nodes = (
"419 -10 OFFCURVE",
"529 63 OFFCURVE",
"529 188 CURVE SMOOTH",
"529 442 OFFCURVE",
"161 401 OFFCURVE",
"161 556 CURVE SMOOTH",
"161 630 OFFCURVE",
"217 668 OFFCURVE",
"315 668 CURVE SMOOTH",
"369 668 OFFCURVE",
"415 653 OFFCURVE",
"445 627 CURVE",
"448 588 OFFCURVE",
"455 543 OFFCURVE",
"465 514 CURVE",
"493 514 LINE",
"504 638 LINE",
"455 687 OFFCURVE",
"387 710 OFFCURVE",
"289 710 CURVE SMOOTH",
"144 710 OFFCURVE",
"45 654 OFFCURVE",
"45 539 CURVE SMOOTH",
"45 306 OFFCURVE",
"413 366 OFFCURVE",
"413 172 CURVE SMOOTH",
"413 78 OFFCURVE",
"332 32 OFFCURVE",
"247 32 CURVE SMOOTH",
"179 32 OFFCURVE",
"125 59 OFFCURVE",
"92 96 CURVE",
"89 134 OFFCURVE",
"84 193 OFFCURVE",
"73 223 CURVE",
"46 223 LINE",
"34 83 LINE",
"77 30 OFFCURVE",
"166 -10 OFFCURVE",
"276 -10 CURVE SMOOTH"
);
},
{
closed = 1;
nodes = (
"363 872 LINE SMOOTH",
"388 887 OFFCURVE",
"401 902 OFFCURVE",
"401 921 CURVE SMOOTH",
"401 936 OFFCURVE",
"389 953 OFFCURVE",
"364 953 CURVE SMOOTH",
"338 953 OFFCURVE",
"319 933 OFFCURVE",
"313 926 CURVE",
"196 813 LINE",
"215 786 LINE"
);
}
);
width = 564;
}
);
leftKerningGroup = S;
note = Sacute;
rightKerningGroup = S;
unicode = 015A;
},
{
glyphname = Scircumflex;
lastChange = "2015-10-01 17:12:32 +0000";
layers = (
{
layerId = "6933CEC8-9691-45CB-9271-BBFB30E0E1A0";
name = Regular;
paths = (
{
closed = 1;
nodes = (
"419 -10 OFFCURVE",
"529 63 OFFCURVE",
"529 188 CURVE SMOOTH",
"529 442 OFFCURVE",
"161 401 OFFCURVE",
"161 556 CURVE SMOOTH",
"161 630 OFFCURVE",
"217 668 OFFCURVE",
"315 668 CURVE SMOOTH",
"369 668 OFFCURVE",
"415 653 OFFCURVE",
"445 627 CURVE",
"448 588 OFFCURVE",
"455 543 OFFCURVE",
"465 514 CURVE",
"493 514 LINE",
"504 638 LINE",
"455 687 OFFCURVE",
"387 710 OFFCURVE",
"289 710 CURVE SMOOTH",
"144 710 OFFCURVE",
"45 654 OFFCURVE",
"45 539 CURVE SMOOTH",
"45 306 OFFCURVE",
"413 366 OFFCURVE",
"413 172 CURVE SMOOTH",
"413 78 OFFCURVE",
"332 32 OFFCURVE",
"247 32 CURVE SMOOTH",
"179 32 OFFCURVE",
"125 59 OFFCURVE",
"92 96 CURVE",
"89 134 OFFCURVE",
"84 193 OFFCURVE",
"73 223 CURVE",
"46 223 LINE",
"34 83 LINE",
"77 30 OFFCURVE",
"166 -10 OFFCURVE",
"276 -10 CURVE SMOOTH"
);
},
{
closed = 1;
nodes = (
"201 811 OFFCURVE",
"254 861 OFFCURVE",
"279 897 CURVE",
"284 897 LINE",
"309 861 OFFCURVE",
"362 811 OFFCURVE",
"401 781 CURVE",
"447 818 LINE",
"405 845 OFFCURVE",
"335 908 OFFCURVE",
"308 947 CURVE",
"255 947 LINE",
"228 908 OFFCURVE",
"158 845 OFFCURVE",
"116 818 CURVE",
"162 781 LINE"
);
}
);
width = 564;
}
);
leftKerningGroup = S;
note = Scircumflex;
rightKerningGroup = S;
unicode = 015C;
},
{
glyphname = Scaron;
lastChange = "2015-10-01 17:12:33 +0000";
layers = (
{
layerId = "6933CEC8-9691-45CB-9271-BBFB30E0E1A0";
name = Regular;
paths = (
{
closed = 1;
nodes = (
"419 -10 OFFCURVE",
"529 63 OFFCURVE",
"529 188 CURVE SMOOTH",
"529 442 OFFCURVE",
"161 401 OFFCURVE",
"161 556 CURVE SMOOTH",
"161 630 OFFCURVE",
"217 668 OFFCURVE",
"315 668 CURVE SMOOTH",
"369 668 OFFCURVE",
"415 653 OFFCURVE",
"445 627 CURVE",
"448 588 OFFCURVE",
"455 543 OFFCURVE",
"465 514 CURVE",
"493 514 LINE",
"504 638 LINE",
"455 687 OFFCURVE",
"387 710 OFFCURVE",
"289 710 CURVE SMOOTH",
"144 710 OFFCURVE",
"45 654 OFFCURVE",
"45 539 CURVE SMOOTH",
"45 306 OFFCURVE",
"413 366 OFFCURVE",
"413 172 CURVE SMOOTH",
"413 78 OFFCURVE",
"332 32 OFFCURVE",
"247 32 CURVE SMOOTH",
"179 32 OFFCURVE",
"125 59 OFFCURVE",
"92 96 CURVE",
"89 134 OFFCURVE",
"84 193 OFFCURVE",
"73 223 CURVE",
"46 223 LINE",
"34 83 LINE",
"77 30 OFFCURVE",
"166 -10 OFFCURVE",
"276 -10 CURVE SMOOTH"
);
},
{
closed = 1;
nodes = (
"308 786 LINE",
"335 826 OFFCURVE",
"405 888 OFFCURVE",
"447 916 CURVE",
"401 952 LINE",
"362 923 OFFCURVE",
"309 873 OFFCURVE",
"284 837 CURVE",
"279 837 LINE",
"254 873 OFFCURVE",
"201 923 OFFCURVE",
"162 952 CURVE",
"116 916 LINE",
"158 888 OFFCURVE",
"228 826 OFFCURVE",
"255 786 CURVE"
);
}
);
width = 564;
}
);
leftKerningGroup = S;
note = Scaron;
rightKerningGroup = S;
unicode = 0160;
},
{
glyphname = Scedilla;
lastChange = "2015-10-01 17:12:32 +0000";
layers = (
{
layerId = "6933CEC8-9691-45CB-9271-BBFB30E0E1A0";
name = Regular;
paths = (
{
closed = 1;
nodes = (
"419 -10 OFFCURVE",
"529 63 OFFCURVE",
"529 188 CURVE SMOOTH",
"529 442 OFFCURVE",
"161 401 OFFCURVE",
"161 556 CURVE SMOOTH",
"161 630 OFFCURVE",
"217 668 OFFCURVE",
"315 668 CURVE SMOOTH",
"369 668 OFFCURVE",
"415 653 OFFCURVE",
"445 627 CURVE",
"448 588 OFFCURVE",
"455 543 OFFCURVE",
"465 514 CURVE",
"493 514 LINE",
"504 638 LINE",
"455 687 OFFCURVE",
"387 710 OFFCURVE",
"289 710 CURVE SMOOTH",
"144 710 OFFCURVE",
"45 654 OFFCURVE",
"45 539 CURVE SMOOTH",
"45 306 OFFCURVE",
"413 366 OFFCURVE",
"413 172 CURVE SMOOTH",
"413 78 OFFCURVE",
"332 32 OFFCURVE",
"247 32 CURVE SMOOTH",
"179 32 OFFCURVE",
"125 59 OFFCURVE",
"92 96 CURVE",
"89 134 OFFCURVE",
"84 193 OFFCURVE",
"73 223 CURVE",
"46 223 LINE",
"34 83 LINE",
"77 30 OFFCURVE",
"166 -10 OFFCURVE",
"276 -10 CURVE SMOOTH"
);
},
{
closed = 1;
nodes = (
"336 -230 OFFCURVE",
"393 -199 OFFCURVE",
"393 -136 CURVE SMOOTH",
"393 -91 OFFCURVE",
"354 -63 OFFCURVE",
"282 -63 CURVE",
"320 16 LINE",
"268 16 LINE",
"225 -69 LINE",
"248 -99 LINE",
"255 -98 OFFCURVE",
"264 -97 OFFCURVE",
"272 -97 CURVE SMOOTH",
"301 -97 OFFCURVE",
"334 -106 OFFCURVE",
"334 -136 CURVE SMOOTH",
"334 -175 OFFCURVE",
"300 -189 OFFCURVE",
"257 -189 CURVE SMOOTH",
"234 -189 OFFCURVE",
"208 -184 OFFCURVE",
"189 -175 CURVE",
"170 -207 LINE",
"196 -222 OFFCURVE",
"233 -230 OFFCURVE",
"264 -230 CURVE SMOOTH"
);
}
);
width = 564;
}
);
leftKerningGroup = S;
note = Scedilla;
rightKerningGroup = S;
unicode = 015E;
},
{
glyphname = Scommaaccent;
lastChange = "2015-10-01 17:12:33 +0000";
layers = (
{
layerId = "6933CEC8-9691-45CB-9271-BBFB30E0E1A0";
name = Regular;
paths = (
{
closed = 1;
nodes = (
"419 -10 OFFCURVE",
"529 63 OFFCURVE",
"529 188 CURVE SMOOTH",
"529 442 OFFCURVE",
"161 401 OFFCURVE",
"161 556 CURVE SMOOTH",
"161 630 OFFCURVE",
"217 668 OFFCURVE",
"315 668 CURVE SMOOTH",
"369 668 OFFCURVE",
"415 653 OFFCURVE",
"445 627 CURVE",
"448 588 OFFCURVE",
"455 543 OFFCURVE",
"465 514 CURVE",
"493 514 LINE",
"504 638 LINE",
"455 687 OFFCURVE",
"387 710 OFFCURVE",
"289 710 CURVE SMOOTH",
"144 710 OFFCURVE",
"45 654 OFFCURVE",
"45 539 CURVE SMOOTH",
"45 306 OFFCURVE",
"413 366 OFFCURVE",
"413 172 CURVE SMOOTH",
"413 78 OFFCURVE",
"332 32 OFFCURVE",
"247 32 CURVE SMOOTH",
"179 32 OFFCURVE",
"125 59 OFFCURVE",
"92 96 CURVE",
"89 134 OFFCURVE",
"84 193 OFFCURVE",
"73 223 CURVE",
"46 223 LINE",
"34 83 LINE",
"77 30 OFFCURVE",
"166 -10 OFFCURVE",
"276 -10 CURVE SMOOTH"
);
},
{
closed = 1;
nodes = (
"313 -266 OFFCURVE",
"349 -187 OFFCURVE",
"349 -125 CURVE SMOOTH",
"349 -86 OFFCURVE",
"327 -53 OFFCURVE",
"280 -53 CURVE SMOOTH",
"247 -53 OFFCURVE",
"219 -76 OFFCURVE",
"219 -111 CURVE SMOOTH",
"219 -143 OFFCURVE",
"246 -167 OFFCURVE",
"276 -167 CURVE SMOOTH",
"278 -167 OFFCURVE",
"281 -167 OFFCURVE",
"284 -166 CURVE",
"279 -209 OFFCURVE",
"252 -253 OFFCURVE",
"228 -280 CURVE",
"266 -309 LINE"
);
}
);
width = 564;
}
);
leftKerningGroup = S;
note = Scommaaccent;
rightKerningGroup = S;
unicode = 0218;
},
{
glyphname = Tcaron;
lastChange = "2015-10-01 17:12:33 +0000";
layers = (
{
layerId = "6933CEC8-9691-45CB-9271-BBFB30E0E1A0";
name = Regular;
paths = (
{
closed = 1;
nodes = (
"469 0 LINE",
"469 14 LINE",
"443 22 OFFCURVE",
"408 29 OFFCURVE",
"383 33 CURVE",
"383 659 LINE",
"558 659 LINE",
"560 631 OFFCURVE",
"577 550 OFFCURVE",
"589 529 CURVE",
"615 529 LINE",
"615 700 LINE",
"37 700 LINE",
"37 529 LINE",
"62 529 LINE",
"74 550 OFFCURVE",
"91 631 OFFCURVE",
"93 659 CURVE",
"269 659 LINE",
"269 34 LINE",
"239 28 OFFCURVE",
"209 22 OFFCURVE",
"183 15 CURVE",
"183 0 LINE"
);
},
{
closed = 1;
nodes = (
"351 786 LINE",
"378 826 OFFCURVE",
"448 888 OFFCURVE",
"490 916 CURVE",
"444 952 LINE",
"405 923 OFFCURVE",
"352 873 OFFCURVE",
"327 837 CURVE",
"322 837 LINE",
"297 873 OFFCURVE",
"244 923 OFFCURVE",
"205 952 CURVE",
"159 916 LINE",
"201 888 OFFCURVE",
"271 826 OFFCURVE",
"298 786 CURVE"
);
}
);
width = 652;
}
);
leftKerningGroup = T;
note = Tcaron;
rightKerningGroup = T;
unicode = 0164;
},
{
glyphname = Tcedilla;
lastChange = "2015-10-01 17:12:33 +0000";
layers = (
{
layerId = "6933CEC8-9691-45CB-9271-BBFB30E0E1A0";
name = Regular;
paths = (
{
closed = 1;
nodes = (
"469 0 LINE",
"469 14 LINE",
"443 22 OFFCURVE",
"408 29 OFFCURVE",
"383 33 CURVE",
"383 659 LINE",
"558 659 LINE",
"560 631 OFFCURVE",
"577 550 OFFCURVE",
"589 529 CURVE",
"615 529 LINE",
"615 700 LINE",
"37 700 LINE",
"37 529 LINE",
"62 529 LINE",
"74 550 OFFCURVE",
"91 631 OFFCURVE",
"93 659 CURVE",
"269 659 LINE",
"269 34 LINE",
"239 28 OFFCURVE",
"209 22 OFFCURVE",
"183 15 CURVE",
"183 0 LINE"
);
},
{
closed = 1;
nodes = (
"368 -230 OFFCURVE",
"426 -199 OFFCURVE",
"426 -136 CURVE SMOOTH",
"426 -94 OFFCURVE",
"391 -63 OFFCURVE",
"321 -63 CURVE SMOOTH",
"314 -63 LINE",
"352 16 LINE",
"300 16 LINE",
"257 -69 LINE",
"281 -99 LINE",
"288 -98 OFFCURVE",
"296 -97 OFFCURVE",
"304 -97 CURVE SMOOTH",
"333 -97 OFFCURVE",
"367 -106 OFFCURVE",
"367 -136 CURVE SMOOTH",
"367 -175 OFFCURVE",
"332 -189 OFFCURVE",
"290 -189 CURVE SMOOTH",
"266 -189 OFFCURVE",
"240 -184 OFFCURVE",
"221 -175 CURVE",
"202 -207 LINE",
"229 -222 OFFCURVE",
"266 -230 OFFCURVE",
"297 -230 CURVE SMOOTH"
);
}
);
width = 652;
}
);
leftKerningGroup = T;
note = Tcedilla;
rightKerningGroup = T;
unicode = 0162;
},
{
glyphname = Tcommaaccent;
lastChange = "2015-10-01 17:12:32 +0000";
layers = (
{
layerId = "6933CEC8-9691-45CB-9271-BBFB30E0E1A0";
name = Regular;
paths = (
{
closed = 1;
nodes = (
"469 0 LINE",
"469 14 LINE",
"443 22 OFFCURVE",
"408 29 OFFCURVE",
"383 33 CURVE",
"383 659 LINE",
"558 659 LINE",
"560 631 OFFCURVE",
"577 550 OFFCURVE",
"589 529 CURVE",
"615 529 LINE",
"615 700 LINE",
"37 700 LINE",
"37 529 LINE",
"62 529 LINE",
"74 550 OFFCURVE",
"91 631 OFFCURVE",
"93 659 CURVE",
"269 659 LINE",
"269 34 LINE",
"239 28 OFFCURVE",
"209 22 OFFCURVE",
"183 15 CURVE",
"183 0 LINE"
);
},
{
closed = 1;
nodes = (
"355 -281 OFFCURVE",
"389 -205 OFFCURVE",
"389 -143 CURVE SMOOTH",
"389 -104 OFFCURVE",
"371 -73 OFFCURVE",
"324 -73 CURVE SMOOTH",
"293 -73 OFFCURVE",
"263 -92 OFFCURVE",
"263 -128 CURVE SMOOTH",
"263 -166 OFFCURVE",
"287 -183 OFFCURVE",
"326 -183 CURVE",
"321 -225 OFFCURVE",
"296 -268 OFFCURVE",
"271 -295 CURVE",
"308 -324 LINE"
);
}
);
width = 652;
}
);
leftKerningGroup = T;
note = Tcommaaccent;
rightKerningGroup = T;
unicode = 021A;
},
{
glyphname = Tbar;
lastChange = "2015-10-01 17:12:32 +0000";
layers = (
{
layerId = "6933CEC8-9691-45CB-9271-BBFB30E0E1A0";
name = Regular;
paths = (
{
closed = 1;
nodes = (
"469 0 LINE",
"469 14 LINE",
"443 22 OFFCURVE",
"408 29 OFFCURVE",
"383 33 CURVE",
"383 659 LINE",
"558 659 LINE",
"560 631 OFFCURVE",
"577 550 OFFCURVE",
"589 529 CURVE",
"615 529 LINE",
"615 700 LINE",
"37 700 LINE",
"37 529 LINE",
"62 529 LINE",
"74 550 OFFCURVE",
"91 631 OFFCURVE",
"93 659 CURVE",
"269 659 LINE",
"269 34 LINE",
"239 28 OFFCURVE",
"209 22 OFFCURVE",
"183 15 CURVE",
"183 0 LINE"
);
},
{
closed = 1;
nodes = (
"535 315 LINE",
"535 355 LINE",
"124 355 LINE",
"124 315 LINE"
);
}
);
width = 652;
}
);
leftKerningGroup = T;
note = Tbar;
rightKerningGroup = T;
unicode = 0166;
},
{
glyphname = Thorn;
lastChange = "2015-10-01 17:12:33 +0000";
layers = (
{
layerId = "6933CEC8-9691-45CB-9271-BBFB30E0E1A0";
name = Regular;
paths = (
{
closed = 1;
nodes = (
"308 0 LINE",
"308 14 LINE",
"282 22 OFFCURVE",
"253 29 OFFCURVE",
"227 33 CURVE",
"227 143 LINE",
"373 143 LINE SMOOTH",
"525 143 OFFCURVE",
"594 240 OFFCURVE",
"594 361 CURVE SMOOTH",
"594 477 OFFCURVE",
"537 567 OFFCURVE",
"371 567 CURVE SMOOTH",
"227 567 LINE",
"227 700 LINE",
"34 700 LINE",
"34 686 LINE",
"61 677 OFFCURVE",
"87 671 OFFCURVE",
"113 666 CURVE",
"113 34 LINE",
"99 32 OFFCURVE",
"59 23 OFFCURVE",
"32 15 CURVE",
"32 0 LINE"
);
},
{
closed = 1;
nodes = (
"227 527 LINE",
"345 527 LINE SMOOTH",
"441 527 OFFCURVE",
"481 461 OFFCURVE",
"481 362 CURVE SMOOTH",
"481 264 OFFCURVE",
"443 183 OFFCURVE",
"345 183 CURVE SMOOTH",
"227 183 LINE"
);
}
);
width = 620;
}
);
note = Thorn;
unicode = 00DE;
},
{
glyphname = Ugrave;
lastChange = "2015-10-01 17:12:33 +0000";
layers = (
{
layerId = "6933CEC8-9691-45CB-9271-BBFB30E0E1A0";
name = Regular;
paths = (
{
closed = 1;
nodes = (
"572 -10 OFFCURVE",
"665 63 OFFCURVE",
"665 216 CURVE SMOOTH",
"665 665 LINE",
"684 668 OFFCURVE",
"714 675 OFFCURVE",
"747 686 CURVE",
"747 700 LINE",
"534 700 LINE",
"534 686 LINE",
"561 677 OFFCURVE",
"588 671 OFFCURVE",
"615 667 CURVE",
"615 204 LINE SMOOTH",
"615 75 OFFCURVE",
"526 32 OFFCURVE",
"423 32 CURVE SMOOTH",
"318 32 OFFCURVE",
"229 71 OFFCURVE",
"229 204 CURVE SMOOTH",
"229 666 LINE",
"257 671 OFFCURVE",
"285 677 OFFCURVE",
"309 685 CURVE",
"309 700 LINE",
"34 700 LINE",
"34 686 LINE",
"61 677 OFFCURVE",
"89 671 OFFCURVE",
"115 666 CURVE",
"115 216 LINE SMOOTH",
"115 57 OFFCURVE",
"219 -10 OFFCURVE",
"395 -10 CURVE SMOOTH"
);
},
{
closed = 1;
nodes = (
"494 813 LINE",
"376 927 LINE SMOOTH",
"368 935 OFFCURVE",
"350 953 OFFCURVE",
"326 953 CURVE SMOOTH",
"300 953 OFFCURVE",
"288 936 OFFCURVE",
"288 921 CURVE SMOOTH",
"288 902 OFFCURVE",
"302 887 OFFCURVE",
"327 872 CURVE SMOOTH",
"475 786 LINE"
);
}
);
width = 781;
}
);
leftKerningGroup = U;
note = Ugrave;
rightKerningGroup = U;
unicode = 00D9;
},
{
glyphname = Uacute;
lastChange = "2015-10-01 17:12:32 +0000";
layers = (
{
layerId = "6933CEC8-9691-45CB-9271-BBFB30E0E1A0";
name = Regular;
paths = (
{
closed = 1;
nodes = (
"572 -10 OFFCURVE",
"665 63 OFFCURVE",
"665 216 CURVE SMOOTH",
"665 665 LINE",
"684 668 OFFCURVE",
"714 675 OFFCURVE",
"747 686 CURVE",
"747 700 LINE",
"534 700 LINE",
"534 686 LINE",
"561 677 OFFCURVE",
"588 671 OFFCURVE",
"615 667 CURVE",
"615 204 LINE SMOOTH",
"615 75 OFFCURVE",
"526 32 OFFCURVE",
"423 32 CURVE SMOOTH",
"318 32 OFFCURVE",
"229 71 OFFCURVE",
"229 204 CURVE SMOOTH",
"229 666 LINE",
"257 671 OFFCURVE",
"285 677 OFFCURVE",
"309 685 CURVE",
"309 700 LINE",
"34 700 LINE",
"34 686 LINE",
"61 677 OFFCURVE",
"89 671 OFFCURVE",
"115 666 CURVE",
"115 216 LINE SMOOTH",
"115 57 OFFCURVE",
"219 -10 OFFCURVE",
"395 -10 CURVE SMOOTH"
);
},
{
closed = 1;
nodes = (
"486 872 LINE SMOOTH",
"511 887 OFFCURVE",
"524 902 OFFCURVE",
"524 921 CURVE SMOOTH",
"524 936 OFFCURVE",
"512 953 OFFCURVE",
"487 953 CURVE SMOOTH",
"461 953 OFFCURVE",
"442 933 OFFCURVE",
"436 926 CURVE",
"319 813 LINE",
"338 786 LINE"
);
}
);
width = 781;
}
);
leftKerningGroup = U;
note = Uacute;
rightKerningGroup = U;
unicode = 00DA;
},
{
glyphname = Ucircumflex;
lastChange = "2015-10-01 17:12:32 +0000";
layers = (
{
layerId = "6933CEC8-9691-45CB-9271-BBFB30E0E1A0";
name = Regular;
paths = (
{
closed = 1;
nodes = (
"572 -10 OFFCURVE",
"665 63 OFFCURVE",
"665 216 CURVE SMOOTH",
"665 665 LINE",
"684 668 OFFCURVE",
"714 675 OFFCURVE",
"747 686 CURVE",
"747 700 LINE",
"534 700 LINE",
"534 686 LINE",
"561 677 OFFCURVE",
"588 671 OFFCURVE",
"615 667 CURVE",
"615 204 LINE SMOOTH",
"615 75 OFFCURVE",
"526 32 OFFCURVE",
"423 32 CURVE SMOOTH",
"318 32 OFFCURVE",
"229 71 OFFCURVE",
"229 204 CURVE SMOOTH",
"229 666 LINE",
"257 671 OFFCURVE",
"285 677 OFFCURVE",
"309 685 CURVE",
"309 700 LINE",
"34 700 LINE",
"34 686 LINE",
"61 677 OFFCURVE",
"89 671 OFFCURVE",
"115 666 CURVE",
"115 216 LINE SMOOTH",
"115 57 OFFCURVE",
"219 -10 OFFCURVE",
"395 -10 CURVE SMOOTH"
);
},
{
closed = 1;
nodes = (
"310 811 OFFCURVE",
"363 861 OFFCURVE",
"388 897 CURVE",
"393 897 LINE",
"418 861 OFFCURVE",
"471 811 OFFCURVE",
"510 781 CURVE",
"556 818 LINE",
"514 845 OFFCURVE",
"444 908 OFFCURVE",
"417 947 CURVE",
"364 947 LINE",
"337 908 OFFCURVE",
"267 845 OFFCURVE",
"225 818 CURVE",
"271 781 LINE"
);
}
);
width = 781;
}
);
leftKerningGroup = U;
note = Ucircumflex;
rightKerningGroup = U;
unicode = 00DB;
},
{
glyphname = Utilde;
lastChange = "2015-10-01 17:12:33 +0000";
layers = (
{
layerId = "6933CEC8-9691-45CB-9271-BBFB30E0E1A0";
name = Regular;
paths = (
{
closed = 1;
nodes = (
"572 -10 OFFCURVE",
"665 63 OFFCURVE",
"665 216 CURVE SMOOTH",
"665 665 LINE",
"684 668 OFFCURVE",
"714 675 OFFCURVE",
"747 686 CURVE",
"747 700 LINE",
"534 700 LINE",
"534 686 LINE",
"561 677 OFFCURVE",
"588 671 OFFCURVE",
"615 667 CURVE",
"615 204 LINE SMOOTH",
"615 75 OFFCURVE",
"526 32 OFFCURVE",
"423 32 CURVE SMOOTH",
"318 32 OFFCURVE",
"229 71 OFFCURVE",
"229 204 CURVE SMOOTH",
"229 666 LINE",
"257 671 OFFCURVE",
"285 677 OFFCURVE",
"309 685 CURVE",
"309 700 LINE",
"34 700 LINE",
"34 686 LINE",
"61 677 OFFCURVE",
"89 671 OFFCURVE",
"115 666 CURVE",
"115 216 LINE SMOOTH",
"115 57 OFFCURVE",
"219 -10 OFFCURVE",
"395 -10 CURVE SMOOTH"
);
},
{
closed = 1;
nodes = (
"250 786 LINE",
"257 820 OFFCURVE",
"283 842 OFFCURVE",
"313 842 CURVE SMOOTH",
"352 842 OFFCURVE",
"412 787 OFFCURVE",
"465 787 CURVE SMOOTH",
"530 787 OFFCURVE",
"563 830 OFFCURVE",
"571 896 CURVE",
"533 896 LINE",
"523 852 OFFCURVE",
"494 838 OFFCURVE",
"466 838 CURVE SMOOTH",
"425 838 OFFCURVE",
"378 892 OFFCURVE",
"316 892 CURVE SMOOTH",
"258 892 OFFCURVE",
"220 858 OFFCURVE",
"210 786 CURVE"
);
}
);
width = 781;
}
);
leftKerningGroup = U;
note = Utilde;
rightKerningGroup = U;
unicode = 0168;
},
{
glyphname = Udieresis;
lastChange = "2015-10-01 17:12:32 +0000";
layers = (
{
layerId = "6933CEC8-9691-45CB-9271-BBFB30E0E1A0";
name = Regular;
paths = (
{
closed = 1;
nodes = (
"572 -10 OFFCURVE",
"665 63 OFFCURVE",
"665 216 CURVE SMOOTH",
"665 665 LINE",
"684 668 OFFCURVE",
"714 675 OFFCURVE",
"747 686 CURVE",
"747 700 LINE",
"534 700 LINE",
"534 686 LINE",
"561 677 OFFCURVE",
"588 671 OFFCURVE",
"615 667 CURVE",
"615 204 LINE SMOOTH",
"615 75 OFFCURVE",
"526 32 OFFCURVE",
"423 32 CURVE SMOOTH",
"318 32 OFFCURVE",
"229 71 OFFCURVE",
"229 204 CURVE SMOOTH",
"229 666 LINE",
"257 671 OFFCURVE",
"285 677 OFFCURVE",
"309 685 CURVE",
"309 700 LINE",
"34 700 LINE",
"34 686 LINE",
"61 677 OFFCURVE",
"89 671 OFFCURVE",
"115 666 CURVE",
"115 216 LINE SMOOTH",
"115 57 OFFCURVE",
"219 -10 OFFCURVE",
"395 -10 CURVE SMOOTH"
);
},
{
closed = 1;
nodes = (
"323 785 OFFCURVE",
"343 807 OFFCURVE",
"343 836 CURVE SMOOTH",
"343 866 OFFCURVE",
"323 888 OFFCURVE",
"292 888 CURVE SMOOTH",
"262 888 OFFCURVE",
"242 866 OFFCURVE",
"242 836 CURVE SMOOTH",
"242 807 OFFCURVE",
"262 785 OFFCURVE",
"292 785 CURVE SMOOTH"
);
},
{
closed = 1;
nodes = (
"549 785 OFFCURVE",
"569 807 OFFCURVE",
"569 836 CURVE SMOOTH",
"569 866 OFFCURVE",
"549 888 OFFCURVE",
"519 888 CURVE SMOOTH",
"488 888 OFFCURVE",
"469 866 OFFCURVE",
"469 836 CURVE SMOOTH",
"469 807 OFFCURVE",
"488 785 OFFCURVE",
"519 785 CURVE SMOOTH"
);
}
);
width = 781;
}
);
leftKerningGroup = U;
note = Udieresis;
rightKerningGroup = U;
unicode = 00DC;
},
{
glyphname = Umacron;
lastChange = "2015-10-01 17:12:32 +0000";
layers = (
{
layerId = "6933CEC8-9691-45CB-9271-BBFB30E0E1A0";
name = Regular;
paths = (
{
closed = 1;
nodes = (
"572 -10 OFFCURVE",
"665 63 OFFCURVE",
"665 216 CURVE SMOOTH",
"665 665 LINE",
"684 668 OFFCURVE",
"714 675 OFFCURVE",
"747 686 CURVE",
"747 700 LINE",
"534 700 LINE",
"534 686 LINE",
"561 677 OFFCURVE",
"588 671 OFFCURVE",
"615 667 CURVE",
"615 204 LINE SMOOTH",
"615 75 OFFCURVE",
"526 32 OFFCURVE",
"423 32 CURVE SMOOTH",
"318 32 OFFCURVE",
"229 71 OFFCURVE",
"229 204 CURVE SMOOTH",
"229 666 LINE",
"257 671 OFFCURVE",
"285 677 OFFCURVE",
"309 685 CURVE",
"309 700 LINE",
"34 700 LINE",
"34 686 LINE",
"61 677 OFFCURVE",
"89 671 OFFCURVE",
"115 666 CURVE",
"115 216 LINE SMOOTH",
"115 57 OFFCURVE",
"219 -10 OFFCURVE",
"395 -10 CURVE SMOOTH"
);
},
{
closed = 1;
nodes = (
"566 786 LINE",
"566 826 LINE",
"214 826 LINE",
"214 786 LINE"
);
}
);
width = 781;
}
);
leftKerningGroup = U;
note = Umacron;
rightKerningGroup = U;
unicode = 016A;
},
{
glyphname = Ubreve;
lastChange = "2015-10-01 17:12:33 +0000";
layers = (
{
layerId = "6933CEC8-9691-45CB-9271-BBFB30E0E1A0";
name = Regular;
paths = (
{
closed = 1;
nodes = (
"572 -10 OFFCURVE",
"665 63 OFFCURVE",
"665 216 CURVE SMOOTH",
"665 665 LINE",
"684 668 OFFCURVE",
"714 675 OFFCURVE",
"747 686 CURVE",
"747 700 LINE",
"534 700 LINE",
"534 686 LINE",
"561 677 OFFCURVE",
"588 671 OFFCURVE",
"615 667 CURVE",
"615 204 LINE SMOOTH",
"615 75 OFFCURVE",
"526 32 OFFCURVE",
"423 32 CURVE SMOOTH",
"318 32 OFFCURVE",
"229 71 OFFCURVE",
"229 204 CURVE SMOOTH",
"229 666 LINE",
"257 671 OFFCURVE",
"285 677 OFFCURVE",
"309 685 CURVE",
"309 700 LINE",
"34 700 LINE",
"34 686 LINE",
"61 677 OFFCURVE",
"89 671 OFFCURVE",
"115 666 CURVE",
"115 216 LINE SMOOTH",
"115 57 OFFCURVE",
"219 -10 OFFCURVE",
"395 -10 CURVE SMOOTH"
);
},
{
closed = 1;
nodes = (
"486 778 OFFCURVE",
"549 818 OFFCURVE",
"561 905 CURVE",
"495 905 LINE",
"487 830 OFFCURVE",
"438 820 OFFCURVE",
"397 820 CURVE SMOOTH",
"356 820 OFFCURVE",
"307 830 OFFCURVE",
"299 905 CURVE",
"233 905 LINE",
"245 818 OFFCURVE",
"308 778 OFFCURVE",
"397 778 CURVE SMOOTH"
);
}
);
width = 781;
}
);
leftKerningGroup = U;
note = Ubreve;
rightKerningGroup = U;
unicode = 016C;
},
{
glyphname = Uring;
lastChange = "2015-10-01 17:12:33 +0000";
layers = (
{
layerId = "6933CEC8-9691-45CB-9271-BBFB30E0E1A0";
name = Regular;
paths = (
{
closed = 1;
nodes = (
"572 -10 OFFCURVE",
"665 63 OFFCURVE",
"665 216 CURVE SMOOTH",
"665 665 LINE",
"684 668 OFFCURVE",
"714 675 OFFCURVE",
"747 686 CURVE",
"747 700 LINE",
"534 700 LINE",
"534 686 LINE",
"561 677 OFFCURVE",
"588 671 OFFCURVE",
"615 667 CURVE",
"615 204 LINE SMOOTH",
"615 75 OFFCURVE",
"526 32 OFFCURVE",
"423 32 CURVE SMOOTH",
"318 32 OFFCURVE",
"229 71 OFFCURVE",
"229 204 CURVE SMOOTH",
"229 666 LINE",
"257 671 OFFCURVE",
"285 677 OFFCURVE",
"309 685 CURVE",
"309 700 LINE",
"34 700 LINE",
"34 686 LINE",
"61 677 OFFCURVE",
"89 671 OFFCURVE",
"115 666 CURVE",
"115 216 LINE SMOOTH",
"115 57 OFFCURVE",
"219 -10 OFFCURVE",
"395 -10 CURVE SMOOTH"
);
},
{
closed = 1;
nodes = (
"449 775 OFFCURVE",
"489 812 OFFCURVE",
"489 867 CURVE SMOOTH",
"489 922 OFFCURVE",
"449 960 OFFCURVE",
"391 960 CURVE SMOOTH",
"333 960 OFFCURVE",
"293 922 OFFCURVE",
"293 867 CURVE SMOOTH",
"293 812 OFFCURVE",
"333 775 OFFCURVE",
"391 775 CURVE SMOOTH"
);
},
{
closed = 1;
nodes = (
"358 811 OFFCURVE",
"333 833 OFFCURVE",
"333 867 CURVE SMOOTH",
"333 901 OFFCURVE",
"358 923 OFFCURVE",
"391 923 CURVE SMOOTH",
"424 923 OFFCURVE",
"448 901 OFFCURVE",
"448 867 CURVE SMOOTH",
"448 833 OFFCURVE",
"424 811 OFFCURVE",
"391 811 CURVE SMOOTH"
);
}
);
width = 781;
}
);
leftKerningGroup = U;
note = Uring;
rightKerningGroup = U;
unicode = 016E;
},
{
glyphname = Uhungarumlaut;
lastChange = "2015-10-01 17:12:33 +0000";
layers = (
{
layerId = "6933CEC8-9691-45CB-9271-BBFB30E0E1A0";
name = Regular;
paths = (
{
closed = 1;
nodes = (
"572 -10 OFFCURVE",
"665 63 OFFCURVE",
"665 216 CURVE SMOOTH",
"665 665 LINE",
"684 668 OFFCURVE",
"714 675 OFFCURVE",
"747 686 CURVE",
"747 700 LINE",
"534 700 LINE",
"534 686 LINE",
"561 677 OFFCURVE",
"588 671 OFFCURVE",
"615 667 CURVE",
"615 204 LINE SMOOTH",
"615 75 OFFCURVE",
"526 32 OFFCURVE",
"423 32 CURVE SMOOTH",
"318 32 OFFCURVE",
"229 71 OFFCURVE",
"229 204 CURVE SMOOTH",
"229 666 LINE",
"257 671 OFFCURVE",
"285 677 OFFCURVE",
"309 685 CURVE",
"309 700 LINE",
"34 700 LINE",
"34 686 LINE",
"61 677 OFFCURVE",
"89 671 OFFCURVE",
"115 666 CURVE",
"115 216 LINE SMOOTH",
"115 57 OFFCURVE",
"219 -10 OFFCURVE",
"395 -10 CURVE SMOOTH"
);
},
{
closed = 1;
nodes = (
"379 871 LINE SMOOTH",
"404 886 OFFCURVE",
"418 901 OFFCURVE",
"418 920 CURVE SMOOTH",
"418 935 OFFCURVE",
"406 952 OFFCURVE",
"380 952 CURVE SMOOTH",
"355 952 OFFCURVE",
"335 932 OFFCURVE",
"329 925 CURVE",
"212 812 LINE",
"231 785 LINE"
);
},
{
closed = 1;
nodes = (
"584 871 LINE SMOOTH",
"609 886 OFFCURVE",
"623 901 OFFCURVE",
"623 920 CURVE SMOOTH",
"623 935 OFFCURVE",
"611 952 OFFCURVE",
"585 952 CURVE SMOOTH",
"560 952 OFFCURVE",
"540 932 OFFCURVE",
"534 925 CURVE",
"417 812 LINE",
"436 785 LINE"
);
}
);
width = 781;
}
);
leftKerningGroup = U;
note = Uhungarumlaut;
rightKerningGroup = U;
unicode = 0170;
},
{
glyphname = Uogonek;
lastChange = "2015-10-01 17:12:31 +0000";
layers = (
{
layerId = "6933CEC8-9691-45CB-9271-BBFB30E0E1A0";
name = Regular;
paths = (
{
closed = 1;
nodes = (
"572 -10 OFFCURVE",
"665 63 OFFCURVE",
"665 216 CURVE SMOOTH",
"665 665 LINE",
"684 668 OFFCURVE",
"714 675 OFFCURVE",
"747 686 CURVE",
"747 700 LINE",
"534 700 LINE",
"534 686 LINE",
"561 677 OFFCURVE",
"588 671 OFFCURVE",
"615 667 CURVE",
"615 204 LINE SMOOTH",
"615 75 OFFCURVE",
"526 32 OFFCURVE",
"423 32 CURVE SMOOTH",
"318 32 OFFCURVE",
"229 71 OFFCURVE",
"229 204 CURVE SMOOTH",
"229 666 LINE",
"257 671 OFFCURVE",
"285 677 OFFCURVE",
"309 685 CURVE",
"309 700 LINE",
"34 700 LINE",
"34 686 LINE",
"61 677 OFFCURVE",
"89 671 OFFCURVE",
"115 666 CURVE",
"115 216 LINE SMOOTH",
"115 57 OFFCURVE",
"219 -10 OFFCURVE",
"395 -10 CURVE SMOOTH"
);
},
{
closed = 1;
nodes = (
"494 -193 OFFCURVE",
"527 -186 OFFCURVE",
"551 -173 CURVE",
"551 -125 LINE",
"530 -136 OFFCURVE",
"510 -141 OFFCURVE",
"493 -141 CURVE SMOOTH",
"457 -141 OFFCURVE",
"431 -123 OFFCURVE",
"431 -90 CURVE SMOOTH",
"431 -55 OFFCURVE",
"459 -19 OFFCURVE",
"490 0 CURVE",
"433 0 LINE",
"378 -19 OFFCURVE",
"346 -65 OFFCURVE",
"346 -110 CURVE SMOOTH",
"346 -156 OFFCURVE",
"385 -193 OFFCURVE",
"458 -193 CURVE SMOOTH"
);
}
);
width = 781;
}
);
leftKerningGroup = U;
note = Uogonek;
rightKerningGroup = U;
unicode = 0172;
},
{
glyphname = Wacute;
lastChange = "2015-10-01 17:12:31 +0000";
layers = (
{
layerId = "6933CEC8-9691-45CB-9271-BBFB30E0E1A0";
name = Regular;
paths = (
{
closed = 1;
nodes = (
"342 -5 LINE",
"506 509 LINE",
"676 -5 LINE",
"774 -5 LINE",
"949 669 LINE",
"967 672 OFFCURVE",
"990 679 OFFCURVE",
"1008 688 CURVE",
"1008 700 LINE",
"829 700 LINE",
"829 685 LINE",
"850 679 OFFCURVE",
"870 674 OFFCURVE",
"895 670 CURVE",
"746 86 LINE",
"554 668 LINE",
"502 668 LINE",
"330 132 LINE",
"202 665 LINE",
"229 668 OFFCURVE",
"265 677 OFFCURVE",
"285 685 CURVE",
"285 700 LINE",
"17 700 LINE",
"17 686 LINE",
"40 678 OFFCURVE",
"65 670 OFFCURVE",
"93 665 CURVE",
"261 -5 LINE"
);
},
{
closed = 1;
nodes = (
"615 872 LINE SMOOTH",
"640 887 OFFCURVE",
"653 902 OFFCURVE",
"653 921 CURVE SMOOTH",
"653 936 OFFCURVE",
"641 953 OFFCURVE",
"616 953 CURVE SMOOTH",
"590 953 OFFCURVE",
"571 933 OFFCURVE",
"565 926 CURVE",
"448 813 LINE",
"467 786 LINE"
);
}
);
width = 1025;
}
);
leftKerningGroup = W;
note = Wacute;
rightKerningGroup = W;
unicode = 1E82;
},
{
glyphname = Wcircumflex;
lastChange = "2015-10-01 17:12:32 +0000";
layers = (
{
layerId = "6933CEC8-9691-45CB-9271-BBFB30E0E1A0";
name = Regular;
paths = (
{
closed = 1;
nodes = (
"342 -5 LINE",
"506 509 LINE",
"676 -5 LINE",
"774 -5 LINE",
"949 669 LINE",
"967 672 OFFCURVE",
"990 679 OFFCURVE",
"1008 688 CURVE",
"1008 700 LINE",
"829 700 LINE",
"829 685 LINE",
"850 679 OFFCURVE",
"870 674 OFFCURVE",
"895 670 CURVE",
"746 86 LINE",
"554 668 LINE",
"502 668 LINE",
"330 132 LINE",
"202 665 LINE",
"229 668 OFFCURVE",
"265 677 OFFCURVE",
"285 685 CURVE",
"285 700 LINE",
"17 700 LINE",
"17 686 LINE",
"40 678 OFFCURVE",
"65 670 OFFCURVE",
"93 665 CURVE",
"261 -5 LINE"
);
},
{
closed = 1;
nodes = (
"450 811 OFFCURVE",
"503 861 OFFCURVE",
"528 897 CURVE",
"533 897 LINE",
"558 861 OFFCURVE",
"611 811 OFFCURVE",
"650 781 CURVE",
"696 818 LINE",
"654 845 OFFCURVE",
"584 908 OFFCURVE",
"557 947 CURVE",
"504 947 LINE",
"477 908 OFFCURVE",
"407 845 OFFCURVE",
"365 818 CURVE",
"411 781 LINE"
);
}
);
width = 1025;
}
);
leftKerningGroup = W;
note = Wcircumflex;
rightKerningGroup = W;
unicode = 0174;
},
{
glyphname = Wdieresis;
lastChange = "2015-10-01 17:12:31 +0000";
layers = (
{
layerId = "6933CEC8-9691-45CB-9271-BBFB30E0E1A0";
name = Regular;
paths = (
{
closed = 1;
nodes = (
"342 -5 LINE",
"506 509 LINE",
"676 -5 LINE",
"774 -5 LINE",
"949 669 LINE",
"967 672 OFFCURVE",
"990 679 OFFCURVE",
"1008 688 CURVE",
"1008 700 LINE",
"829 700 LINE",
"829 685 LINE",
"850 679 OFFCURVE",
"870 674 OFFCURVE",
"895 670 CURVE",
"746 86 LINE",
"554 668 LINE",
"502 668 LINE",
"330 132 LINE",
"202 665 LINE",
"229 668 OFFCURVE",
"265 677 OFFCURVE",
"285 685 CURVE",
"285 700 LINE",
"17 700 LINE",
"17 686 LINE",
"40 678 OFFCURVE",
"65 670 OFFCURVE",
"93 665 CURVE",
"261 -5 LINE"
);
},
{
closed = 1;
nodes = (
"446 785 OFFCURVE",
"466 807 OFFCURVE",
"466 836 CURVE SMOOTH",
"466 866 OFFCURVE",
"446 888 OFFCURVE",
"415 888 CURVE SMOOTH",
"385 888 OFFCURVE",
"365 866 OFFCURVE",
"365 836 CURVE SMOOTH",
"365 807 OFFCURVE",
"385 785 OFFCURVE",
"415 785 CURVE SMOOTH"
);
},
{
closed = 1;
nodes = (
"672 785 OFFCURVE",
"692 807 OFFCURVE",
"692 836 CURVE SMOOTH",
"692 866 OFFCURVE",
"672 888 OFFCURVE",
"642 888 CURVE SMOOTH",
"611 888 OFFCURVE",
"592 866 OFFCURVE",
"592 836 CURVE SMOOTH",
"592 807 OFFCURVE",
"611 785 OFFCURVE",
"642 785 CURVE SMOOTH"
);
}
);
width = 1025;
}
);
leftKerningGroup = W;
note = Wdieresis;
rightKerningGroup = W;
unicode = 1E84;
},
{
glyphname = Wgrave;
lastChange = "2015-10-01 17:12:32 +0000";
layers = (
{
layerId = "6933CEC8-9691-45CB-9271-BBFB30E0E1A0";
name = Regular;
paths = (
{
closed = 1;
nodes = (
"342 -5 LINE",
"506 509 LINE",
"676 -5 LINE",
"774 -5 LINE",
"949 669 LINE",
"967 672 OFFCURVE",
"990 679 OFFCURVE",
"1008 688 CURVE",
"1008 700 LINE",
"829 700 LINE",
"829 685 LINE",
"850 679 OFFCURVE",
"870 674 OFFCURVE",
"895 670 CURVE",
"746 86 LINE",
"554 668 LINE",
"502 668 LINE",
"330 132 LINE",
"202 665 LINE",
"229 668 OFFCURVE",
"265 677 OFFCURVE",
"285 685 CURVE",
"285 700 LINE",
"17 700 LINE",
"17 686 LINE",
"40 678 OFFCURVE",
"65 670 OFFCURVE",
"93 665 CURVE",
"261 -5 LINE"
);
},
{
closed = 1;
nodes = (
"611 813 LINE",
"493 927 LINE SMOOTH",
"485 935 OFFCURVE",
"467 953 OFFCURVE",
"443 953 CURVE SMOOTH",
"417 953 OFFCURVE",
"405 936 OFFCURVE",
"405 921 CURVE SMOOTH",
"405 902 OFFCURVE",
"419 887 OFFCURVE",
"444 872 CURVE SMOOTH",
"592 786 LINE"
);
}
);
width = 1025;
}
);
leftKerningGroup = W;
note = Wgrave;
rightKerningGroup = W;
unicode = 1E80;
},
{
glyphname = Yacute;
lastChange = "2015-10-01 17:12:34 +0000";
layers = (
{
layerId = "6933CEC8-9691-45CB-9271-BBFB30E0E1A0";
name = Regular;
paths = (
{
closed = 1;
nodes = (
"505 0 LINE",
"505 14 LINE",
"479 22 OFFCURVE",
"449 29 OFFCURVE",
"424 33 CURVE",
"424 303 LINE",
"654 668 LINE",
"671 671 OFFCURVE",
"690 676 OFFCURVE",
"710 684 CURVE",
"710 700 LINE",
"524 700 LINE",
"524 686 LINE",
"546 679 OFFCURVE",
"566 673 OFFCURVE",
"589 668 CURVE",
"391 351 LINE",
"204 664 LINE",
"231 667 OFFCURVE",
"264 676 OFFCURVE",
"289 684 CURVE",
"289 700 LINE",
"17 700 LINE",
"17 685 LINE",
"42 676 OFFCURVE",
"70 669 OFFCURVE",
"95 664 CURVE",
"310 304 LINE",
"310 33 LINE",
"282 31 OFFCURVE",
"253 21 OFFCURVE",
"230 13 CURVE",
"230 0 LINE"
);
},
{
closed = 1;
nodes = (
"460 872 LINE SMOOTH",
"485 887 OFFCURVE",
"498 902 OFFCURVE",
"498 921 CURVE SMOOTH",
"498 936 OFFCURVE",
"486 953 OFFCURVE",
"461 953 CURVE SMOOTH",
"435 953 OFFCURVE",
"416 933 OFFCURVE",
"410 926 CURVE",
"293 813 LINE",
"312 786 LINE"
);
}
);
width = 727;
}
);
leftKerningGroup = Y;
note = Yacute;
rightKerningGroup = Y;
unicode = 00DD;
},
{
glyphname = Ycircumflex;
lastChange = "2015-10-01 17:12:31 +0000";
layers = (
{
layerId = "6933CEC8-9691-45CB-9271-BBFB30E0E1A0";
name = Regular;
paths = (
{
closed = 1;
nodes = (
"505 0 LINE",
"505 14 LINE",
"479 22 OFFCURVE",
"449 29 OFFCURVE",
"424 33 CURVE",
"424 303 LINE",
"654 668 LINE",
"671 671 OFFCURVE",
"690 676 OFFCURVE",
"710 684 CURVE",
"710 700 LINE",
"524 700 LINE",
"524 686 LINE",
"546 679 OFFCURVE",
"566 673 OFFCURVE",
"589 668 CURVE",
"391 351 LINE",
"204 664 LINE",
"231 667 OFFCURVE",
"264 676 OFFCURVE",
"289 684 CURVE",
"289 700 LINE",
"17 700 LINE",
"17 685 LINE",
"42 676 OFFCURVE",
"70 669 OFFCURVE",
"95 664 CURVE",
"310 304 LINE",
"310 33 LINE",
"282 31 OFFCURVE",
"253 21 OFFCURVE",
"230 13 CURVE",
"230 0 LINE"
);
},
{
closed = 1;
nodes = (
"282 811 OFFCURVE",
"335 861 OFFCURVE",
"360 897 CURVE",
"365 897 LINE",
"390 861 OFFCURVE",
"443 811 OFFCURVE",
"482 781 CURVE",
"528 818 LINE",
"486 845 OFFCURVE",
"416 908 OFFCURVE",
"389 947 CURVE",
"336 947 LINE",
"309 908 OFFCURVE",
"239 845 OFFCURVE",
"197 818 CURVE",
"243 781 LINE"
);
}
);
width = 727;
}
);
leftKerningGroup = Y;
note = Ycircumflex;
rightKerningGroup = Y;
unicode = 0176;
},
{
glyphname = Ydieresis;
lastChange = "2015-10-01 17:12:34 +0000";
layers = (
{
layerId = "6933CEC8-9691-45CB-9271-BBFB30E0E1A0";
name = Regular;
paths = (
{
closed = 1;
nodes = (
"505 0 LINE",
"505 14 LINE",
"479 22 OFFCURVE",
"449 29 OFFCURVE",
"424 33 CURVE",
"424 303 LINE",
"654 668 LINE",
"671 671 OFFCURVE",
"690 676 OFFCURVE",
"710 684 CURVE",
"710 700 LINE",
"524 700 LINE",
"524 686 LINE",
"546 679 OFFCURVE",
"566 673 OFFCURVE",
"589 668 CURVE",
"391 351 LINE",
"204 664 LINE",
"231 667 OFFCURVE",
"264 676 OFFCURVE",
"289 684 CURVE",
"289 700 LINE",
"17 700 LINE",
"17 685 LINE",
"42 676 OFFCURVE",
"70 669 OFFCURVE",
"95 664 CURVE",
"310 304 LINE",
"310 33 LINE",
"282 31 OFFCURVE",
"253 21 OFFCURVE",
"230 13 CURVE",
"230 0 LINE"
);
},
{
closed = 1;
nodes = (
"302 785 OFFCURVE",
"322 807 OFFCURVE",
"322 836 CURVE SMOOTH",
"322 866 OFFCURVE",
"302 888 OFFCURVE",
"271 888 CURVE SMOOTH",
"241 888 OFFCURVE",
"221 866 OFFCURVE",
"221 836 CURVE SMOOTH",
"221 807 OFFCURVE",
"241 785 OFFCURVE",
"271 785 CURVE SMOOTH"
);
},
{
closed = 1;
nodes = (
"528 785 OFFCURVE",
"548 807 OFFCURVE",
"548 836 CURVE SMOOTH",
"548 866 OFFCURVE",
"528 888 OFFCURVE",
"498 888 CURVE SMOOTH",
"467 888 OFFCURVE",
"448 866 OFFCURVE",
"448 836 CURVE SMOOTH",
"448 807 OFFCURVE",
"467 785 OFFCURVE",
"498 785 CURVE SMOOTH"
);
}
);
width = 727;
}
);
leftKerningGroup = Y;
note = Ydieresis;
rightKerningGroup = Y;
unicode = 0178;
},
{
glyphname = Ygrave;
lastChange = "2015-10-01 17:12:32 +0000";
layers = (
{
layerId = "6933CEC8-9691-45CB-9271-BBFB30E0E1A0";
name = Regular;
paths = (
{
closed = 1;
nodes = (
"505 0 LINE",
"505 14 LINE",
"479 22 OFFCURVE",
"449 29 OFFCURVE",
"424 33 CURVE",
"424 303 LINE",
"654 668 LINE",
"671 671 OFFCURVE",
"690 676 OFFCURVE",
"710 684 CURVE",
"710 700 LINE",
"524 700 LINE",
"524 686 LINE",
"546 679 OFFCURVE",
"566 673 OFFCURVE",
"589 668 CURVE",
"391 351 LINE",
"204 664 LINE",
"231 667 OFFCURVE",
"264 676 OFFCURVE",
"289 684 CURVE",
"289 700 LINE",
"17 700 LINE",
"17 685 LINE",
"42 676 OFFCURVE",
"70 669 OFFCURVE",
"95 664 CURVE",
"310 304 LINE",
"310 33 LINE",
"282 31 OFFCURVE",
"253 21 OFFCURVE",
"230 13 CURVE",
"230 0 LINE"
);
},
{
closed = 1;
nodes = (
"453 813 LINE",
"335 927 LINE SMOOTH",
"327 935 OFFCURVE",
"309 953 OFFCURVE",
"285 953 CURVE SMOOTH",
"259 953 OFFCURVE",
"247 936 OFFCURVE",
"247 921 CURVE SMOOTH",
"247 902 OFFCURVE",
"261 887 OFFCURVE",
"286 872 CURVE SMOOTH",
"434 786 LINE"
);
}
);
width = 727;
}
);
leftKerningGroup = Y;
note = Ygrave;
rightKerningGroup = Y;
unicode = 1EF2;
},
{
glyphname = Zacute;
lastChange = "2015-10-01 17:12:32 +0000";
layers = (
{
layerId = "6933CEC8-9691-45CB-9271-BBFB30E0E1A0";
name = Regular;
paths = (
{
closed = 1;
nodes = (
"541 0 LINE",
"557 155 LINE",
"531 155 LINE",
"517 135 OFFCURVE",
"492 72 OFFCURVE",
"489 40 CURVE",
"145 40 LINE",
"559 682 LINE",
"559 700 LINE",
"61 700 LINE",
"61 544 LINE",
"87 544 LINE",
"99 565 OFFCURVE",
"116 631 OFFCURVE",
"118 659 CURVE",
"436 659 LINE",
"25 26 LINE",
"25 0 LINE"
);
},
{
closed = 1;
nodes = (
"409 872 LINE SMOOTH",
"434 887 OFFCURVE",
"447 902 OFFCURVE",
"447 921 CURVE SMOOTH",
"447 936 OFFCURVE",
"435 953 OFFCURVE",
"410 953 CURVE SMOOTH",
"384 953 OFFCURVE",
"365 933 OFFCURVE",
"359 926 CURVE",
"242 813 LINE",
"261 786 LINE"
);
}
);
width = 591;
}
);
note = Zacute;
unicode = 0179;
},
{
glyphname = Zcaron;
lastChange = "2015-10-01 17:12:31 +0000";
layers = (
{
layerId = "6933CEC8-9691-45CB-9271-BBFB30E0E1A0";
name = Regular;
paths = (
{
closed = 1;
nodes = (
"541 0 LINE",
"557 155 LINE",
"531 155 LINE",
"517 135 OFFCURVE",
"492 72 OFFCURVE",
"489 40 CURVE",
"145 40 LINE",
"559 682 LINE",
"559 700 LINE",
"61 700 LINE",
"61 544 LINE",
"87 544 LINE",
"99 565 OFFCURVE",
"116 631 OFFCURVE",
"118 659 CURVE",
"436 659 LINE",
"25 26 LINE",
"25 0 LINE"
);
},
{
closed = 1;
nodes = (
"332 786 LINE",
"359 826 OFFCURVE",
"429 888 OFFCURVE",
"471 916 CURVE",
"425 952 LINE",
"386 923 OFFCURVE",
"333 873 OFFCURVE",
"308 837 CURVE",
"303 837 LINE",
"278 873 OFFCURVE",
"225 923 OFFCURVE",
"186 952 CURVE",
"140 916 LINE",
"182 888 OFFCURVE",
"252 826 OFFCURVE",
"279 786 CURVE"
);
}
);
width = 591;
}
);
note = Zcaron;
unicode = 017D;
},
{
glyphname = Zdotaccent;
lastChange = "2015-10-01 17:12:32 +0000";
layers = (
{
layerId = "6933CEC8-9691-45CB-9271-BBFB30E0E1A0";
name = Regular;
paths = (
{
closed = 1;
nodes = (
"541 0 LINE",
"557 155 LINE",
"531 155 LINE",
"517 135 OFFCURVE",
"492 72 OFFCURVE",
"489 40 CURVE",
"145 40 LINE",
"559 682 LINE",
"559 700 LINE",
"61 700 LINE",
"61 544 LINE",
"87 544 LINE",
"99 565 OFFCURVE",
"116 631 OFFCURVE",
"118 659 CURVE",
"436 659 LINE",
"25 26 LINE",
"25 0 LINE"
);
},
{
closed = 1;
nodes = (
"332 785 OFFCURVE",
"352 807 OFFCURVE",
"352 836 CURVE SMOOTH",
"352 866 OFFCURVE",
"332 888 OFFCURVE",
"302 888 CURVE SMOOTH",
"271 888 OFFCURVE",
"252 866 OFFCURVE",
"252 836 CURVE SMOOTH",
"252 807 OFFCURVE",
"271 785 OFFCURVE",
"302 785 CURVE SMOOTH"
);
}
);
width = 591;
}
);
note = Zdotaccent;
unicode = 017B;
},
{
glyphname = agrave;
lastChange = "2015-10-01 17:12:31 +0000";
layers = (
{
layerId = "6933CEC8-9691-45CB-9271-BBFB30E0E1A0";
name = Regular;
paths = (
{
closed = 1;
nodes = (
"249 -10 OFFCURVE",
"315 9 OFFCURVE",
"368 67 CURVE",
"368 -3 LINE",
"548 15 LINE",
"548 24 LINE",
"525 31 OFFCURVE",
"504 36 OFFCURVE",
"479 41 CURVE",
"479 365 LINE SMOOTH",
"479 451 OFFCURVE",
"404 507 OFFCURVE",
"279 507 CURVE SMOOTH",
"204 507 OFFCURVE",
"131 489 OFFCURVE",
"76 460 CURVE",
"83 425 LINE",
"126 446 OFFCURVE",
"187 467 OFFCURVE",
"243 467 CURVE SMOOTH",
"318 467 OFFCURVE",
"368 436 OFFCURVE",
"368 359 CURVE SMOOTH",
"368 283 LINE",
"227 283 LINE SMOOTH",
"121 283 OFFCURVE",
"27 247 OFFCURVE",
"27 135 CURVE SMOOTH",
"27 41 OFFCURVE",
"82 -10 OFFCURVE",
"195 -10 CURVE SMOOTH"
);
},
{
closed = 1;
nodes = (
"179 32 OFFCURVE",
"137 63 OFFCURVE",
"137 136 CURVE SMOOTH",
"137 201 OFFCURVE",
"173 243 OFFCURVE",
"253 243 CURVE SMOOTH",
"368 243 LINE",
"368 111 LINE",
"343 69 OFFCURVE",
"285 32 OFFCURVE",
"236 32 CURVE SMOOTH"
);
},
{
closed = 1;
nodes = (
"371 611 LINE",
"253 725 LINE SMOOTH",
"245 733 OFFCURVE",
"227 751 OFFCURVE",
"203 751 CURVE SMOOTH",
"177 751 OFFCURVE",
"165 734 OFFCURVE",
"165 719 CURVE SMOOTH",
"165 700 OFFCURVE",
"179 685 OFFCURVE",
"204 670 CURVE SMOOTH",
"352 584 LINE"
);
}
);
width = 554;
}
);
leftKerningGroup = a;
note = agrave;
rightKerningGroup = a;
unicode = 00E0;
},
{
glyphname = aacute;
lastChange = "2015-10-01 17:12:32 +0000";
layers = (
{
layerId = "6933CEC8-9691-45CB-9271-BBFB30E0E1A0";
name = Regular;
paths = (
{
closed = 1;
nodes = (
"249 -10 OFFCURVE",
"315 9 OFFCURVE",
"368 67 CURVE",
"368 -3 LINE",
"548 15 LINE",
"548 24 LINE",
"525 31 OFFCURVE",
"504 36 OFFCURVE",
"479 41 CURVE",
"479 365 LINE SMOOTH",
"479 451 OFFCURVE",
"404 507 OFFCURVE",
"279 507 CURVE SMOOTH",
"204 507 OFFCURVE",
"131 489 OFFCURVE",
"76 460 CURVE",
"83 425 LINE",
"126 446 OFFCURVE",
"187 467 OFFCURVE",
"243 467 CURVE SMOOTH",
"318 467 OFFCURVE",
"368 436 OFFCURVE",
"368 359 CURVE SMOOTH",
"368 283 LINE",
"227 283 LINE SMOOTH",
"121 283 OFFCURVE",
"27 247 OFFCURVE",
"27 135 CURVE SMOOTH",
"27 41 OFFCURVE",
"82 -10 OFFCURVE",
"195 -10 CURVE SMOOTH"
);
},
{
closed = 1;
nodes = (
"179 32 OFFCURVE",
"137 63 OFFCURVE",
"137 136 CURVE SMOOTH",
"137 201 OFFCURVE",
"173 243 OFFCURVE",
"253 243 CURVE SMOOTH",
"368 243 LINE",
"368 111 LINE",
"343 69 OFFCURVE",
"285 32 OFFCURVE",
"236 32 CURVE SMOOTH"
);
},
{
closed = 1;
nodes = (
"355 670 LINE SMOOTH",
"380 685 OFFCURVE",
"393 700 OFFCURVE",
"393 719 CURVE SMOOTH",
"393 734 OFFCURVE",
"381 751 OFFCURVE",
"356 751 CURVE SMOOTH",
"330 751 OFFCURVE",
"311 731 OFFCURVE",
"305 724 CURVE",
"188 611 LINE",
"207 584 LINE"
);
}
);
width = 554;
}
);
leftKerningGroup = a;
note = aacute;
rightKerningGroup = a;
unicode = 00E1;
},
{
glyphname = acircumflex;
lastChange = "2015-10-01 17:12:33 +0000";
layers = (
{
layerId = "6933CEC8-9691-45CB-9271-BBFB30E0E1A0";
name = Regular;
paths = (
{
closed = 1;
nodes = (
"249 -10 OFFCURVE",
"315 9 OFFCURVE",
"368 67 CURVE",
"368 -3 LINE",
"548 15 LINE",
"548 24 LINE",
"525 31 OFFCURVE",
"504 36 OFFCURVE",
"479 41 CURVE",
"479 365 LINE SMOOTH",
"479 451 OFFCURVE",
"404 507 OFFCURVE",
"279 507 CURVE SMOOTH",
"204 507 OFFCURVE",
"131 489 OFFCURVE",
"76 460 CURVE",
"83 425 LINE",
"126 446 OFFCURVE",
"187 467 OFFCURVE",
"243 467 CURVE SMOOTH",
"318 467 OFFCURVE",
"368 436 OFFCURVE",
"368 359 CURVE SMOOTH",
"368 283 LINE",
"227 283 LINE SMOOTH",
"121 283 OFFCURVE",
"27 247 OFFCURVE",
"27 135 CURVE SMOOTH",
"27 41 OFFCURVE",
"82 -10 OFFCURVE",
"195 -10 CURVE SMOOTH"
);
},
{
closed = 1;
nodes = (
"179 32 OFFCURVE",
"137 63 OFFCURVE",
"137 136 CURVE SMOOTH",
"137 201 OFFCURVE",
"173 243 OFFCURVE",
"253 243 CURVE SMOOTH",
"368 243 LINE",
"368 111 LINE",
"343 69 OFFCURVE",
"285 32 OFFCURVE",
"236 32 CURVE SMOOTH"
);
},
{
closed = 1;
nodes = (
"192 609 OFFCURVE",
"245 659 OFFCURVE",
"270 695 CURVE",
"275 695 LINE",
"300 659 OFFCURVE",
"353 609 OFFCURVE",
"392 579 CURVE",
"438 616 LINE",
"396 643 OFFCURVE",
"326 706 OFFCURVE",
"299 745 CURVE",
"246 745 LINE",
"219 706 OFFCURVE",
"149 643 OFFCURVE",
"107 616 CURVE",
"153 579 LINE"
);
}
);
width = 554;
}
);
leftKerningGroup = a;
note = acircumflex;
rightKerningGroup = a;
unicode = 00E2;
},
{
glyphname = atilde;
lastChange = "2015-10-01 17:12:32 +0000";
layers = (
{
layerId = "6933CEC8-9691-45CB-9271-BBFB30E0E1A0";
name = Regular;
paths = (
{
closed = 1;
nodes = (
"249 -10 OFFCURVE",
"315 9 OFFCURVE",
"368 67 CURVE",
"368 -3 LINE",
"548 15 LINE",
"548 24 LINE",
"525 31 OFFCURVE",
"504 36 OFFCURVE",
"479 41 CURVE",
"479 365 LINE SMOOTH",
"479 451 OFFCURVE",
"404 507 OFFCURVE",
"279 507 CURVE SMOOTH",
"204 507 OFFCURVE",
"131 489 OFFCURVE",
"76 460 CURVE",
"83 425 LINE",
"126 446 OFFCURVE",
"187 467 OFFCURVE",
"243 467 CURVE SMOOTH",
"318 467 OFFCURVE",
"368 436 OFFCURVE",
"368 359 CURVE SMOOTH",
"368 283 LINE",
"227 283 LINE SMOOTH",
"121 283 OFFCURVE",
"27 247 OFFCURVE",
"27 135 CURVE SMOOTH",
"27 41 OFFCURVE",
"82 -10 OFFCURVE",
"195 -10 CURVE SMOOTH"
);
},
{
closed = 1;
nodes = (
"179 32 OFFCURVE",
"137 63 OFFCURVE",
"137 136 CURVE SMOOTH",
"137 201 OFFCURVE",
"173 243 OFFCURVE",
"253 243 CURVE SMOOTH",
"368 243 LINE",
"368 111 LINE",
"343 69 OFFCURVE",
"285 32 OFFCURVE",
"236 32 CURVE SMOOTH"
);
},
{
closed = 1;
nodes = (
"131 584 LINE",
"138 618 OFFCURVE",
"164 640 OFFCURVE",
"194 640 CURVE SMOOTH",
"233 640 OFFCURVE",
"293 585 OFFCURVE",
"346 585 CURVE SMOOTH",
"411 585 OFFCURVE",
"444 628 OFFCURVE",
"452 694 CURVE",
"414 694 LINE",
"404 650 OFFCURVE",
"375 636 OFFCURVE",
"347 636 CURVE SMOOTH",
"306 636 OFFCURVE",
"259 690 OFFCURVE",
"197 690 CURVE SMOOTH",
"139 690 OFFCURVE",
"101 656 OFFCURVE",
"91 584 CURVE"
);
}
);
width = 554;
}
);
leftKerningGroup = a;
note = atilde;
rightKerningGroup = a;
unicode = 00E3;
},
